<svg xmlns="http://www.w3.org/2000/svg" xmlns:xlink="http://www.w3.org/1999/xlink" width="500" zoomAndPan="magnify" viewBox="0 0 375 374.999991" height="500" preserveAspectRatio="xMidYMid meet" version="1.0"><defs><g/><clipPath id="12ba42b5fd"><path d="M 70 109.816406 L 107 109.816406 L 107 146 L 70 146 Z M 70 109.816406 " clip-rule="nonzero"/></clipPath><clipPath id="fc2785c089"><path d="M 97.703125 145.800781 C 96.613281 145.839844 95.5625 145.65625 94.546875 145.257812 C 93.53125 144.859375 92.640625 144.273438 91.867188 143.503906 C 85.589844 137.242188 79.269531 131.019531 73.085938 124.707031 C 69.761719 121.292969 70.054688 116.0625 73.492188 112.519531 C 73.882812 112.121094 74.308594 111.765625 74.765625 111.449219 C 75.222656 111.136719 75.707031 110.867188 76.21875 110.644531 C 76.726562 110.425781 77.253906 110.253906 77.796875 110.132812 C 78.339844 110.015625 78.886719 109.949219 79.441406 109.9375 C 79.996094 109.921875 80.550781 109.964844 81.097656 110.058594 C 81.644531 110.152344 82.175781 110.296875 82.695312 110.492188 C 83.214844 110.691406 83.710938 110.9375 84.183594 111.230469 C 84.65625 111.523438 85.097656 111.859375 85.503906 112.234375 C 90.402344 116.882812 95.113281 121.777344 99.910156 126.5625 C 101.332031 127.988281 102.8125 129.363281 104.167969 130.832031 C 104.777344 131.449219 105.28125 132.140625 105.679688 132.914062 C 106.082031 133.683594 106.355469 134.496094 106.507812 135.351562 C 106.660156 136.207031 106.683594 137.0625 106.574219 137.925781 C 106.464844 138.785156 106.230469 139.613281 105.871094 140.402344 C 104.441406 143.988281 101.605469 145.78125 97.703125 145.800781 Z M 97.703125 145.800781 " clip-rule="nonzero"/></clipPath><linearGradient x1="84.137779" gradientTransform="matrix(0.851811, 0, 0, 0.854271, 38.203518, 109.818177)" y1="6.422487" x2="33.647773" gradientUnits="userSpaceOnUse" y2="36.442527" id="e611a7208b"><stop stop-opacity="1" stop-color="rgb(34.533691%, 26.222229%, 79.112244%)" offset="0"/><stop stop-opacity="1" stop-color="rgb(34.388733%, 26.115417%, 79.042053%)" offset="0.03125"/><stop stop-opacity="1" stop-color="rgb(34.100342%, 25.901794%, 78.903198%)" offset="0.0625"/><stop stop-opacity="1" stop-color="rgb(33.813477%, 25.688171%, 78.762817%)" offset="0.09375"/><stop stop-opacity="1" stop-color="rgb(33.525085%, 25.474548%, 78.623962%)" offset="0.125"/><stop stop-opacity="1" stop-color="rgb(33.236694%, 25.260925%, 78.485107%)" offset="0.15625"/><stop stop-opacity="1" stop-color="rgb(32.948303%, 25.048828%, 78.346252%)" offset="0.1875"/><stop stop-opacity="1" stop-color="rgb(32.659912%, 24.835205%, 78.207397%)" offset="0.21875"/><stop stop-opacity="1" stop-color="rgb(32.373047%, 24.621582%, 78.068542%)" offset="0.25"/><stop stop-opacity="1" stop-color="rgb(32.084656%, 24.407959%, 77.929688%)" offset="0.28125"/><stop stop-opacity="1" stop-color="rgb(31.796265%, 24.194336%, 77.790833%)" offset="0.3125"/><stop stop-opacity="1" stop-color="rgb(31.526184%, 23.99292%, 77.659607%)" offset="0.365778"/><stop stop-opacity="1" stop-color="rgb(31.399536%, 23.899841%, 77.598572%)" offset="0.375"/><stop stop-opacity="1" stop-color="rgb(31.399536%, 23.899841%, 77.598572%)" offset="0.5"/><stop stop-opacity="1" stop-color="rgb(31.399536%, 23.899841%, 77.598572%)" offset="0.634222"/><stop stop-opacity="1" stop-color="rgb(31.399536%, 23.899841%, 77.598572%)" offset="1"/></linearGradient><clipPath id="36eef3cb7f"><path d="M 278 128 L 335 128 L 335 186 L 278 186 Z M 278 128 " clip-rule="nonzero"/></clipPath><clipPath id="e03b12a28b"><path d="M 306.464844 142.929688 C 302.691406 139.085938 299.191406 135.472656 295.636719 131.910156 C 292.726562 128.988281 289.15625 127.929688 285.289062 129.277344 C 277.988281 131.839844 276.003906 140.316406 281.320312 145.972656 C 284.445312 149.300781 287.726562 152.496094 291.011719 155.675781 C 292.085938 156.71875 292.113281 157.332031 291.011719 158.410156 C 287.742188 161.511719 284.582031 164.730469 281.445312 167.96875 C 281.035156 168.367188 280.664062 168.796875 280.324219 169.261719 C 279.988281 169.722656 279.691406 170.210938 279.4375 170.722656 C 279.179688 171.238281 278.972656 171.769531 278.808594 172.316406 C 278.640625 172.867188 278.523438 173.425781 278.453125 173.996094 C 278.386719 174.5625 278.363281 175.132812 278.390625 175.707031 C 278.417969 176.28125 278.492188 176.84375 278.613281 177.40625 C 278.738281 177.964844 278.90625 178.511719 279.121094 179.042969 C 279.335938 179.574219 279.59375 180.082031 279.894531 180.570312 C 283.414062 185.976562 290.273438 187.042969 295.050781 182.714844 C 298.542969 179.550781 301.789062 176.117188 305.058594 172.726562 C 306.15625 171.589844 306.890625 171.554688 308.007812 172.726562 C 311.117188 175.980469 314.292969 179.183594 317.546875 182.292969 C 320.101562 184.746094 323.203125 185.992188 326.773438 185.089844 C 334.753906 183.054688 337.386719 174.214844 331.773438 168.171875 C 328.746094 164.925781 325.613281 161.773438 322.402344 158.777344 C 320.859375 157.339844 321.210938 156.511719 322.519531 155.238281 C 325.929688 151.96875 329.335938 148.695312 332.4375 145.175781 C 335.246094 142.023438 335.613281 138.214844 333.746094 134.4375 C 331.804688 130.515625 328.484375 128.679688 324.070312 128.84375 C 320.664062 128.960938 318.371094 130.945312 316.167969 133.183594 C 312.996094 136.300781 309.871094 139.476562 306.464844 142.929688 Z M 306.464844 142.929688 " clip-rule="nonzero"/></clipPath><linearGradient x1="356.730433" gradientTransform="matrix(0.851811, 0, 0, 0.854271, 38.203518, 109.818177)" y1="30.45048" x2="273.467465" gradientUnits="userSpaceOnUse" y2="79.959628" id="269303676a"><stop stop-opacity="1" stop-color="rgb(59.999084%, 45.098877%, 91.398621%)" offset="0"/><stop stop-opacity="1" stop-color="rgb(59.999084%, 45.098877%, 91.398621%)" offset="0.360613"/><stop stop-opacity="1" stop-color="rgb(59.999084%, 45.098877%, 91.398621%)" offset="0.5"/><stop stop-opacity="1" stop-color="rgb(59.936523%, 45.053101%, 91.368103%)" offset="0.625"/><stop stop-opacity="1" stop-color="rgb(59.75647%, 44.918823%, 91.281128%)" offset="0.639387"/><stop stop-opacity="1" stop-color="rgb(59.637451%, 44.831848%, 91.22467%)" offset="0.640625"/><stop stop-opacity="1" stop-color="rgb(59.518433%, 44.743347%, 91.166687%)" offset="0.65625"/><stop stop-opacity="1" stop-color="rgb(59.281921%, 44.566345%, 91.052246%)" offset="0.671875"/><stop stop-opacity="1" stop-color="rgb(59.043884%, 44.390869%, 90.937805%)" offset="0.6875"/><stop stop-opacity="1" stop-color="rgb(58.805847%, 44.213867%, 90.823364%)" offset="0.703125"/><stop stop-opacity="1" stop-color="rgb(58.56781%, 44.038391%, 90.708923%)" offset="0.71875"/><stop stop-opacity="1" stop-color="rgb(58.331299%, 43.862915%, 90.594482%)" offset="0.734375"/><stop stop-opacity="1" stop-color="rgb(58.093262%, 43.685913%, 90.478516%)" offset="0.75"/><stop stop-opacity="1" stop-color="rgb(57.855225%, 43.510437%, 90.364075%)" offset="0.765625"/><stop stop-opacity="1" stop-color="rgb(57.618713%, 43.333435%, 90.249634%)" offset="0.78125"/><stop stop-opacity="1" stop-color="rgb(57.380676%, 43.157959%, 90.135193%)" offset="0.796875"/><stop stop-opacity="1" stop-color="rgb(57.142639%, 42.982483%, 90.020752%)" offset="0.8125"/><stop stop-opacity="1" stop-color="rgb(56.906128%, 42.805481%, 89.906311%)" offset="0.828125"/><stop stop-opacity="1" stop-color="rgb(56.668091%, 42.630005%, 89.79187%)" offset="0.84375"/><stop stop-opacity="1" stop-color="rgb(56.430054%, 42.453003%, 89.677429%)" offset="0.859375"/><stop stop-opacity="1" stop-color="rgb(56.193542%, 42.277527%, 89.561462%)" offset="0.875"/><stop stop-opacity="1" stop-color="rgb(55.955505%, 42.102051%, 89.447021%)" offset="0.890625"/><stop stop-opacity="1" stop-color="rgb(55.717468%, 41.925049%, 89.332581%)" offset="0.90625"/><stop stop-opacity="1" stop-color="rgb(55.480957%, 41.749573%, 89.21814%)" offset="0.921875"/><stop stop-opacity="1" stop-color="rgb(55.24292%, 41.574097%, 89.103699%)" offset="0.9375"/><stop stop-opacity="1" stop-color="rgb(55.004883%, 41.397095%, 88.989258%)" offset="0.953125"/><stop stop-opacity="1" stop-color="rgb(54.768372%, 41.221619%, 88.874817%)" offset="0.96875"/><stop stop-opacity="1" stop-color="rgb(54.530334%, 41.044617%, 88.760376%)" offset="0.984375"/><stop stop-opacity="1" stop-color="rgb(54.292297%, 40.869141%, 88.645935%)" offset="1"/></linearGradient><clipPath id="13884843a2"><path d="M 299 110 L 314 110 L 314 125 L 299 125 Z M 299 110 " clip-rule="nonzero"/></clipPath><clipPath id="ef4856c5d4"><path d="M 313.902344 117.4375 C 313.917969 116.957031 313.890625 116.480469 313.8125 116.003906 C 313.734375 115.53125 313.613281 115.066406 313.441406 114.617188 C 313.269531 114.167969 313.054688 113.738281 312.800781 113.332031 C 312.542969 112.925781 312.246094 112.550781 311.914062 112.203125 C 311.582031 111.859375 311.214844 111.550781 310.820312 111.277344 C 310.425781 111.003906 310.007812 110.773438 309.566406 110.585938 C 309.121094 110.398438 308.667969 110.257812 308.195312 110.164062 C 307.726562 110.066406 307.25 110.023438 306.769531 110.023438 C 306.285156 110 305.796875 110.027344 305.316406 110.105469 C 304.835938 110.183594 304.363281 110.308594 303.910156 110.480469 C 303.453125 110.652344 303.015625 110.871094 302.605469 111.132812 C 302.191406 111.394531 301.808594 111.695312 301.457031 112.035156 C 301.105469 112.375 300.792969 112.746094 300.515625 113.148438 C 300.242188 113.554688 300.007812 113.980469 299.820312 114.433594 C 299.628906 114.882812 299.488281 115.347656 299.394531 115.828125 C 299.300781 116.308594 299.253906 116.796875 299.257812 117.285156 C 299.238281 117.777344 299.265625 118.265625 299.34375 118.75 C 299.417969 119.238281 299.542969 119.710938 299.714844 120.171875 C 299.886719 120.632812 300.105469 121.074219 300.363281 121.492188 C 300.625 121.910156 300.921875 122.296875 301.261719 122.652344 C 301.597656 123.011719 301.96875 123.332031 302.371094 123.613281 C 302.773438 123.898438 303.199219 124.136719 303.648438 124.332031 C 304.097656 124.53125 304.5625 124.679688 305.042969 124.785156 C 305.523438 124.886719 306.007812 124.941406 306.5 124.945312 C 306.992188 124.949219 307.476562 124.90625 307.960938 124.8125 C 308.441406 124.722656 308.910156 124.582031 309.363281 124.394531 C 309.820312 124.207031 310.25 123.976562 310.65625 123.699219 C 311.066406 123.425781 311.441406 123.113281 311.785156 122.765625 C 312.132812 122.414062 312.4375 122.03125 312.707031 121.621094 C 312.976562 121.210938 313.203125 120.773438 313.382812 120.316406 C 313.566406 119.859375 313.699219 119.386719 313.785156 118.902344 C 313.875 118.417969 313.910156 117.929688 313.902344 117.4375 Z M 313.902344 117.4375 " clip-rule="nonzero"/></clipPath><clipPath id="448be124d1"><path d="M 236 129 L 273 129 L 273 166 L 236 166 Z M 236 129 " clip-rule="nonzero"/></clipPath><clipPath id="59a61a5eae"><path d="M 272.101562 157.195312 C 272.074219 158.027344 271.929688 158.839844 271.675781 159.628906 C 271.417969 160.421875 271.058594 161.160156 270.59375 161.851562 C 270.132812 162.539062 269.582031 163.152344 268.945312 163.6875 C 268.308594 164.222656 267.613281 164.65625 266.855469 164.996094 C 266.058594 165.375 265.222656 165.621094 264.351562 165.738281 C 263.476562 165.859375 262.605469 165.839844 261.738281 165.6875 C 260.871094 165.535156 260.042969 165.253906 259.265625 164.84375 C 258.484375 164.433594 257.78125 163.914062 257.160156 163.285156 C 251.050781 157.226562 244.976562 151.136719 238.933594 145.015625 C 238.507812 144.605469 238.128906 144.15625 237.792969 143.667969 C 237.457031 143.179688 237.175781 142.664062 236.945312 142.121094 C 236.714844 141.578125 236.539062 141.015625 236.421875 140.4375 C 236.304688 139.855469 236.246094 139.269531 236.246094 138.679688 C 236.246094 138.089844 236.304688 137.503906 236.421875 136.921875 C 236.539062 136.34375 236.714844 135.78125 236.945312 135.238281 C 237.175781 134.695312 237.457031 134.179688 237.792969 133.691406 C 238.128906 133.203125 238.507812 132.753906 238.933594 132.34375 C 242.417969 128.859375 247.945312 128.988281 251.574219 132.628906 C 257.316406 138.386719 263.066406 144.144531 268.824219 149.902344 C 269.859375 150.828125 270.664062 151.925781 271.234375 153.199219 C 271.808594 154.46875 272.097656 155.800781 272.101562 157.195312 Z M 272.101562 157.195312 " clip-rule="nonzero"/></clipPath><linearGradient x1="278.807954" gradientTransform="matrix(0.851811, 0, 0, 0.854271, 38.203518, 109.818177)" y1="29.384064" x2="228.682191" gradientUnits="userSpaceOnUse" y2="59.187537" id="38cf980d5f"><stop stop-opacity="1" stop-color="rgb(58.950806%, 44.322205%, 90.893555%)" offset="0"/><stop stop-opacity="1" stop-color="rgb(58.807373%, 44.215393%, 90.823364%)" offset="0.03125"/><stop stop-opacity="1" stop-color="rgb(58.522034%, 44.003296%, 90.686035%)" offset="0.0625"/><stop stop-opacity="1" stop-color="rgb(58.235168%, 43.791199%, 90.548706%)" offset="0.09375"/><stop stop-opacity="1" stop-color="rgb(57.949829%, 43.579102%, 90.409851%)" offset="0.125"/><stop stop-opacity="1" stop-color="rgb(57.662964%, 43.367004%, 90.272522%)" offset="0.15625"/><stop stop-opacity="1" stop-color="rgb(57.377625%, 43.154907%, 90.133667%)" offset="0.1875"/><stop stop-opacity="1" stop-color="rgb(57.092285%, 42.94281%, 89.996338%)" offset="0.21875"/><stop stop-opacity="1" stop-color="rgb(56.80542%, 42.732239%, 89.857483%)" offset="0.25"/><stop stop-opacity="1" stop-color="rgb(56.520081%, 42.520142%, 89.720154%)" offset="0.28125"/><stop stop-opacity="1" stop-color="rgb(56.233215%, 42.308044%, 89.582825%)" offset="0.3125"/><stop stop-opacity="1" stop-color="rgb(55.947876%, 42.095947%, 89.44397%)" offset="0.34375"/><stop stop-opacity="1" stop-color="rgb(55.661011%, 41.88385%, 89.306641%)" offset="0.375"/><stop stop-opacity="1" stop-color="rgb(55.375671%, 41.671753%, 89.167786%)" offset="0.379545"/><stop stop-opacity="1" stop-color="rgb(55.233765%, 41.566467%, 89.099121%)" offset="0.40625"/><stop stop-opacity="1" stop-color="rgb(55.090332%, 41.459656%, 89.030457%)" offset="0.4375"/><stop stop-opacity="1" stop-color="rgb(54.803467%, 41.247559%, 88.891602%)" offset="0.46875"/><stop stop-opacity="1" stop-color="rgb(54.518127%, 41.035461%, 88.754272%)" offset="0.5"/><stop stop-opacity="1" stop-color="rgb(54.231262%, 40.823364%, 88.615417%)" offset="0.53125"/><stop stop-opacity="1" stop-color="rgb(53.945923%, 40.611267%, 88.478088%)" offset="0.5625"/><stop stop-opacity="1" stop-color="rgb(53.659058%, 40.39917%, 88.340759%)" offset="0.59375"/><stop stop-opacity="1" stop-color="rgb(53.373718%, 40.187073%, 88.201904%)" offset="0.620455"/><stop stop-opacity="1" stop-color="rgb(53.231812%, 40.081787%, 88.13324%)" offset="0.625"/><stop stop-opacity="1" stop-color="rgb(53.088379%, 39.974976%, 88.064575%)" offset="0.65625"/><stop stop-opacity="1" stop-color="rgb(52.801514%, 39.762878%, 87.92572%)" offset="0.6875"/><stop stop-opacity="1" stop-color="rgb(52.516174%, 39.552307%, 87.788391%)" offset="0.71875"/><stop stop-opacity="1" stop-color="rgb(52.229309%, 39.34021%, 87.649536%)" offset="0.75"/><stop stop-opacity="1" stop-color="rgb(51.94397%, 39.128113%, 87.512207%)" offset="0.78125"/><stop stop-opacity="1" stop-color="rgb(51.657104%, 38.916016%, 87.374878%)" offset="0.8125"/><stop stop-opacity="1" stop-color="rgb(51.371765%, 38.703918%, 87.236023%)" offset="0.84375"/><stop stop-opacity="1" stop-color="rgb(51.086426%, 38.491821%, 87.098694%)" offset="0.875"/><stop stop-opacity="1" stop-color="rgb(50.799561%, 38.279724%, 86.959839%)" offset="0.90625"/><stop stop-opacity="1" stop-color="rgb(50.514221%, 38.067627%, 86.82251%)" offset="0.9375"/><stop stop-opacity="1" stop-color="rgb(50.227356%, 37.85553%, 86.683655%)" offset="0.96875"/><stop stop-opacity="1" stop-color="rgb(49.942017%, 37.643433%, 86.546326%)" offset="1"/></linearGradient><clipPath id="9fd69aa31f"><path d="M 201 171 L 217 171 L 217 186.316406 L 201 186.316406 Z M 201 171 " clip-rule="nonzero"/></clipPath><clipPath id="2daa8b10dc"><path d="M 208.804688 171.496094 C 209.285156 171.511719 209.757812 171.570312 210.222656 171.675781 C 210.691406 171.78125 211.144531 171.933594 211.585938 172.125 C 212.023438 172.316406 212.441406 172.546875 212.835938 172.820312 C 213.230469 173.09375 213.597656 173.398438 213.933594 173.742188 C 214.273438 174.082031 214.574219 174.453125 214.839844 174.851562 C 215.105469 175.253906 215.332031 175.671875 215.519531 176.117188 C 215.707031 176.558594 215.847656 177.015625 215.949219 177.484375 C 216.046875 177.957031 216.101562 178.429688 216.113281 178.910156 C 216.109375 179.390625 216.0625 179.867188 215.96875 180.339844 C 215.875 180.8125 215.738281 181.269531 215.554688 181.714844 C 215.371094 182.160156 215.148438 182.582031 214.882812 182.980469 C 214.617188 183.382812 214.316406 183.753906 213.980469 184.097656 C 213.644531 184.4375 213.277344 184.746094 212.882812 185.015625 C 212.484375 185.285156 212.066406 185.515625 211.625 185.707031 C 211.183594 185.894531 210.730469 186.039062 210.261719 186.140625 C 209.792969 186.238281 209.316406 186.292969 208.839844 186.300781 C 208.351562 186.304688 207.867188 186.261719 207.386719 186.167969 C 206.90625 186.078125 206.441406 185.941406 205.988281 185.757812 C 205.535156 185.574219 205.105469 185.351562 204.695312 185.085938 C 204.289062 184.816406 203.910156 184.511719 203.558594 184.171875 C 203.207031 183.832031 202.894531 183.457031 202.617188 183.054688 C 202.339844 182.652344 202.105469 182.226562 201.910156 181.777344 C 201.714844 181.328125 201.566406 180.867188 201.460938 180.386719 C 201.359375 179.910156 201.300781 179.425781 201.292969 178.9375 C 201.308594 178.449219 201.367188 177.96875 201.476562 177.492188 C 201.582031 177.015625 201.734375 176.554688 201.929688 176.105469 C 202.125 175.660156 202.359375 175.234375 202.632812 174.832031 C 202.910156 174.429688 203.21875 174.054688 203.566406 173.714844 C 203.914062 173.371094 204.289062 173.0625 204.695312 172.792969 C 205.097656 172.519531 205.523438 172.289062 205.972656 172.101562 C 206.421875 171.910156 206.882812 171.765625 207.359375 171.664062 C 207.835938 171.5625 208.316406 171.507812 208.804688 171.496094 Z M 208.804688 171.496094 " clip-rule="nonzero"/></clipPath><linearGradient x1="210.42163" gradientTransform="matrix(0.851811, 0, 0, 0.854271, 38.203518, 109.818177)" y1="74.826287" x2="189.951948" gradientUnits="userSpaceOnUse" y2="86.997803" id="dbfbeecf11"><stop stop-opacity="1" stop-color="rgb(46.081543%, 34.78241%, 84.683228%)" offset="0"/><stop stop-opacity="1" stop-color="rgb(45.96405%, 34.695435%, 84.62677%)" offset="0.0625"/><stop stop-opacity="1" stop-color="rgb(45.730591%, 34.521484%, 84.513855%)" offset="0.125"/><stop stop-opacity="1" stop-color="rgb(45.497131%, 34.34906%, 84.40094%)" offset="0.1875"/><stop stop-opacity="1" stop-color="rgb(45.262146%, 34.176636%, 84.289551%)" offset="0.25"/><stop stop-opacity="1" stop-color="rgb(45.028687%, 34.002686%, 84.176636%)" offset="0.3125"/><stop stop-opacity="1" stop-color="rgb(44.795227%, 33.830261%, 84.063721%)" offset="0.372"/><stop stop-opacity="1" stop-color="rgb(44.67926%, 33.743286%, 84.007263%)" offset="0.375"/><stop stop-opacity="1" stop-color="rgb(44.561768%, 33.656311%, 83.950806%)" offset="0.4375"/><stop stop-opacity="1" stop-color="rgb(44.328308%, 33.483887%, 83.837891%)" offset="0.5"/><stop stop-opacity="1" stop-color="rgb(44.094849%, 33.309937%, 83.724976%)" offset="0.5625"/><stop stop-opacity="1" stop-color="rgb(43.861389%, 33.137512%, 83.612061%)" offset="0.625"/><stop stop-opacity="1" stop-color="rgb(43.62793%, 32.963562%, 83.500671%)" offset="0.628"/><stop stop-opacity="1" stop-color="rgb(43.511963%, 32.878113%, 83.444214%)" offset="0.6875"/><stop stop-opacity="1" stop-color="rgb(43.39447%, 32.791138%, 83.387756%)" offset="0.75"/><stop stop-opacity="1" stop-color="rgb(43.161011%, 32.617188%, 83.274841%)" offset="0.8125"/><stop stop-opacity="1" stop-color="rgb(42.927551%, 32.444763%, 83.161926%)" offset="0.875"/><stop stop-opacity="1" stop-color="rgb(42.694092%, 32.270813%, 83.049011%)" offset="0.9375"/><stop stop-opacity="1" stop-color="rgb(42.459106%, 32.098389%, 82.936096%)" offset="1"/></linearGradient><clipPath id="19aa997e3b"><path d="M 237 171 L 253 171 L 253 186.316406 L 237 186.316406 Z M 237 171 " clip-rule="nonzero"/></clipPath><clipPath id="78a6abb129"><path d="M 252.417969 178.910156 C 252.417969 179.390625 252.371094 179.867188 252.277344 180.339844 C 252.1875 180.808594 252.050781 181.269531 251.867188 181.710938 C 251.6875 182.15625 251.464844 182.582031 251.203125 182.980469 C 250.941406 183.382812 250.640625 183.753906 250.304688 184.097656 C 249.96875 184.441406 249.605469 184.75 249.210938 185.019531 C 248.816406 185.292969 248.398438 185.523438 247.957031 185.714844 C 247.519531 185.902344 247.066406 186.050781 246.597656 186.152344 C 246.128906 186.253906 245.65625 186.308594 245.175781 186.316406 C 244.679688 186.339844 244.1875 186.3125 243.699219 186.234375 C 243.210938 186.160156 242.730469 186.035156 242.269531 185.859375 C 241.804688 185.6875 241.359375 185.46875 240.9375 185.207031 C 240.519531 184.945312 240.128906 184.644531 239.765625 184.304688 C 239.40625 183.960938 239.082031 183.589844 238.796875 183.183594 C 238.511719 182.777344 238.269531 182.34375 238.070312 181.890625 C 237.871094 181.433594 237.71875 180.964844 237.613281 180.480469 C 237.507812 179.992188 237.449219 179.5 237.445312 179.003906 C 237.4375 178.507812 237.480469 178.015625 237.570312 177.527344 C 237.664062 177.039062 237.800781 176.5625 237.988281 176.101562 C 238.175781 175.640625 238.40625 175.207031 238.679688 174.792969 C 238.957031 174.378906 239.269531 173.996094 239.621094 173.644531 C 239.972656 173.292969 240.351562 172.980469 240.765625 172.707031 C 241.179688 172.433594 241.617188 172.203125 242.078125 172.015625 C 242.535156 171.832031 243.011719 171.691406 243.496094 171.601562 C 243.984375 171.511719 244.476562 171.472656 244.972656 171.480469 C 245.460938 171.476562 245.945312 171.519531 246.425781 171.609375 C 246.90625 171.703125 247.371094 171.839844 247.824219 172.027344 C 248.277344 172.210938 248.707031 172.4375 249.113281 172.710938 C 249.519531 172.980469 249.898438 173.289062 250.246094 173.632812 C 250.589844 173.980469 250.898438 174.355469 251.171875 174.761719 C 251.445312 175.171875 251.671875 175.601562 251.859375 176.054688 C 252.046875 176.507812 252.1875 176.972656 252.28125 177.453125 C 252.375 177.9375 252.417969 178.421875 252.417969 178.910156 Z M 252.417969 178.910156 " clip-rule="nonzero"/></clipPath><linearGradient x1="253.05489" gradientTransform="matrix(0.851811, 0, 0, 0.854271, 38.203518, 109.818177)" y1="74.814081" x2="232.425267" gradientUnits="userSpaceOnUse" y2="87.080699" id="415e44d440"><stop stop-opacity="1" stop-color="rgb(51.832581%, 39.045715%, 87.458801%)" offset="0"/><stop stop-opacity="1" stop-color="rgb(51.715088%, 38.95874%, 87.402344%)" offset="0.0625"/><stop stop-opacity="1" stop-color="rgb(51.480103%, 38.783264%, 87.287903%)" offset="0.125"/><stop stop-opacity="1" stop-color="rgb(51.245117%, 38.609314%, 87.174988%)" offset="0.1875"/><stop stop-opacity="1" stop-color="rgb(51.008606%, 38.435364%, 87.060547%)" offset="0.25"/><stop stop-opacity="1" stop-color="rgb(50.773621%, 38.259888%, 86.947632%)" offset="0.3125"/><stop stop-opacity="1" stop-color="rgb(50.538635%, 38.085938%, 86.833191%)" offset="0.370095"/><stop stop-opacity="1" stop-color="rgb(50.421143%, 37.998962%, 86.776733%)" offset="0.375"/><stop stop-opacity="1" stop-color="rgb(50.302124%, 37.911987%, 86.720276%)" offset="0.4375"/><stop stop-opacity="1" stop-color="rgb(50.067139%, 37.736511%, 86.607361%)" offset="0.5"/><stop stop-opacity="1" stop-color="rgb(49.832153%, 37.562561%, 86.49292%)" offset="0.5625"/><stop stop-opacity="1" stop-color="rgb(49.597168%, 37.388611%, 86.380005%)" offset="0.625"/><stop stop-opacity="1" stop-color="rgb(49.360657%, 37.213135%, 86.265564%)" offset="0.629905"/><stop stop-opacity="1" stop-color="rgb(49.243164%, 37.12616%, 86.209106%)" offset="0.6875"/><stop stop-opacity="1" stop-color="rgb(49.125671%, 37.039185%, 86.152649%)" offset="0.75"/><stop stop-opacity="1" stop-color="rgb(48.890686%, 36.863708%, 86.038208%)" offset="0.8125"/><stop stop-opacity="1" stop-color="rgb(48.654175%, 36.689758%, 85.925293%)" offset="0.875"/><stop stop-opacity="1" stop-color="rgb(48.419189%, 36.515808%, 85.810852%)" offset="0.9375"/><stop stop-opacity="1" stop-color="rgb(48.184204%, 36.340332%, 85.697937%)" offset="1"/></linearGradient><clipPath id="9970386619"><path d="M 255 110 L 271 110 L 271 125 L 255 125 Z M 255 110 " clip-rule="nonzero"/></clipPath><clipPath id="bf2bf1ecc9"><path d="M 270.578125 117.582031 C 270.566406 118.074219 270.507812 118.558594 270.398438 119.035156 C 270.292969 119.511719 270.136719 119.976562 269.9375 120.421875 C 269.738281 120.867188 269.496094 121.292969 269.210938 121.691406 C 268.925781 122.089844 268.605469 122.453125 268.25 122.789062 C 267.894531 123.125 267.507812 123.417969 267.089844 123.675781 C 266.675781 123.933594 266.238281 124.144531 265.777344 124.3125 C 265.320312 124.484375 264.851562 124.605469 264.367188 124.679688 C 263.882812 124.753906 263.398438 124.78125 262.910156 124.757812 C 262.433594 124.734375 261.960938 124.664062 261.5 124.546875 C 261.035156 124.433594 260.585938 124.273438 260.152344 124.070312 C 259.71875 123.867188 259.308594 123.621094 258.921875 123.339844 C 258.535156 123.054688 258.179688 122.738281 257.855469 122.386719 C 257.53125 122.035156 257.242188 121.652344 256.988281 121.246094 C 256.738281 120.839844 256.527344 120.410156 256.359375 119.960938 C 256.191406 119.511719 256.066406 119.050781 255.984375 118.578125 C 255.90625 118.105469 255.871094 117.628906 255.882812 117.148438 C 255.90625 116.671875 255.972656 116.199219 256.085938 115.734375 C 256.203125 115.269531 256.359375 114.820312 256.558594 114.386719 C 256.761719 113.953125 257 113.542969 257.28125 113.15625 C 257.5625 112.769531 257.878906 112.414062 258.226562 112.089844 C 258.578125 111.761719 258.957031 111.476562 259.359375 111.222656 C 259.765625 110.972656 260.191406 110.761719 260.640625 110.59375 C 261.085938 110.425781 261.542969 110.304688 262.015625 110.226562 C 262.484375 110.148438 262.960938 110.113281 263.4375 110.128906 C 263.914062 110.144531 264.382812 110.203125 264.847656 110.308594 C 265.3125 110.414062 265.765625 110.566406 266.199219 110.761719 C 266.636719 110.953125 267.046875 111.1875 267.4375 111.464844 C 267.828125 111.738281 268.1875 112.046875 268.519531 112.394531 C 268.847656 112.738281 269.144531 113.113281 269.402344 113.515625 C 269.65625 113.917969 269.875 114.34375 270.050781 114.789062 C 270.222656 115.230469 270.355469 115.691406 270.441406 116.160156 C 270.527344 116.632812 270.566406 117.105469 270.5625 117.582031 Z M 270.578125 117.582031 " clip-rule="nonzero"/></clipPath><linearGradient x1="274.278142" gradientTransform="matrix(0.851811, 0, 0, 0.854271, 38.203518, 109.818177)" y1="2.833044" x2="253.980944" gradientUnits="userSpaceOnUse" y2="14.901228" id="bfcbe49ff3"><stop stop-opacity="1" stop-color="rgb(59.999084%, 45.098877%, 91.398621%)" offset="0"/><stop stop-opacity="1" stop-color="rgb(59.999084%, 45.098877%, 91.398621%)" offset="0.125"/><stop stop-opacity="1" stop-color="rgb(59.886169%, 45.014954%, 91.343689%)" offset="0.1875"/><stop stop-opacity="1" stop-color="rgb(59.657288%, 44.845581%, 91.233826%)" offset="0.25"/><stop stop-opacity="1" stop-color="rgb(59.425354%, 44.673157%, 91.122437%)" offset="0.3125"/><stop stop-opacity="1" stop-color="rgb(59.19342%, 44.502258%, 91.009521%)" offset="0.371582"/><stop stop-opacity="1" stop-color="rgb(59.078979%, 44.416809%, 90.95459%)" offset="0.375"/><stop stop-opacity="1" stop-color="rgb(58.963013%, 44.329834%, 90.898132%)" offset="0.4375"/><stop stop-opacity="1" stop-color="rgb(58.731079%, 44.158936%, 90.786743%)" offset="0.5"/><stop stop-opacity="1" stop-color="rgb(58.499146%, 43.986511%, 90.675354%)" offset="0.5625"/><stop stop-opacity="1" stop-color="rgb(58.267212%, 43.815613%, 90.563965%)" offset="0.625"/><stop stop-opacity="1" stop-color="rgb(58.036804%, 43.643188%, 90.45105%)" offset="0.628418"/><stop stop-opacity="1" stop-color="rgb(57.920837%, 43.557739%, 90.396118%)" offset="0.6875"/><stop stop-opacity="1" stop-color="rgb(57.804871%, 43.47229%, 90.339661%)" offset="0.75"/><stop stop-opacity="1" stop-color="rgb(57.572937%, 43.299866%, 90.228271%)" offset="0.8125"/><stop stop-opacity="1" stop-color="rgb(57.341003%, 43.128967%, 90.116882%)" offset="0.875"/><stop stop-opacity="1" stop-color="rgb(57.10907%, 42.956543%, 90.003967%)" offset="0.9375"/><stop stop-opacity="1" stop-color="rgb(56.878662%, 42.785645%, 89.892578%)" offset="1"/></linearGradient><clipPath id="d09b126a4e"><path d="M 219 151 L 235 151 L 235 167 L 219 167 Z M 219 151 " clip-rule="nonzero"/></clipPath><clipPath id="f540207f90"><path d="M 227.167969 166.535156 C 226.6875 166.523438 226.214844 166.464844 225.746094 166.359375 C 225.277344 166.257812 224.820312 166.109375 224.382812 165.914062 C 223.941406 165.722656 223.523438 165.488281 223.128906 165.210938 C 222.738281 164.933594 222.375 164.625 222.039062 164.277344 C 221.707031 163.929688 221.410156 163.554688 221.152344 163.148438 C 220.890625 162.742188 220.675781 162.316406 220.5 161.867188 C 220.324219 161.417969 220.191406 160.957031 220.105469 160.484375 C 220.019531 160.007812 219.980469 159.53125 219.988281 159.050781 C 219.996094 158.566406 220.050781 158.089844 220.152344 157.621094 C 220.253906 157.148438 220.402344 156.691406 220.589844 156.25 C 220.78125 155.808594 221.011719 155.386719 221.285156 154.992188 C 221.558594 154.59375 221.867188 154.230469 222.210938 153.894531 C 222.554688 153.558594 222.929688 153.257812 223.332031 152.996094 C 223.734375 152.734375 224.160156 152.511719 224.605469 152.332031 C 225.050781 152.15625 225.511719 152.019531 225.984375 151.933594 C 226.457031 151.84375 226.933594 151.800781 227.414062 151.808594 C 227.894531 151.8125 228.367188 151.867188 228.839844 151.964844 C 229.308594 152.0625 229.765625 152.207031 230.207031 152.394531 C 230.648438 152.585938 231.066406 152.8125 231.464844 153.085938 C 231.863281 153.355469 232.230469 153.664062 232.566406 154.007812 C 232.902344 154.351562 233.203125 154.722656 233.46875 155.125 C 233.730469 155.53125 233.953125 155.953125 234.132812 156.402344 C 234.316406 156.847656 234.449219 157.304688 234.542969 157.78125 C 234.632812 158.253906 234.675781 158.730469 234.671875 159.210938 C 234.675781 159.703125 234.625 160.1875 234.53125 160.667969 C 234.433594 161.148438 234.292969 161.613281 234.101562 162.0625 C 233.910156 162.515625 233.679688 162.941406 233.40625 163.347656 C 233.128906 163.75 232.816406 164.125 232.464844 164.464844 C 232.117188 164.808594 231.734375 165.109375 231.324219 165.375 C 230.914062 165.640625 230.480469 165.859375 230.027344 166.039062 C 229.570312 166.214844 229.105469 166.347656 228.621094 166.429688 C 228.140625 166.511719 227.65625 166.546875 227.167969 166.535156 Z M 227.167969 166.535156 " clip-rule="nonzero"/></clipPath><linearGradient x1="232.177506" gradientTransform="matrix(0.851811, 0, 0, 0.854271, 38.203518, 109.818177)" y1="51.710174" x2="211.849937" gradientUnits="userSpaceOnUse" y2="63.796417" id="c78ddfdeed"><stop stop-opacity="1" stop-color="rgb(50.869751%, 38.331604%, 86.994934%)" offset="0"/><stop stop-opacity="1" stop-color="rgb(50.753784%, 38.246155%, 86.938477%)" offset="0.0625"/><stop stop-opacity="1" stop-color="rgb(50.521851%, 38.07373%, 86.825562%)" offset="0.125"/><stop stop-opacity="1" stop-color="rgb(50.289917%, 37.901306%, 86.714172%)" offset="0.1875"/><stop stop-opacity="1" stop-color="rgb(50.057983%, 37.730408%, 86.602783%)" offset="0.25"/><stop stop-opacity="1" stop-color="rgb(49.82605%, 37.557983%, 86.489868%)" offset="0.3125"/><stop stop-opacity="1" stop-color="rgb(49.594116%, 37.385559%, 86.378479%)" offset="0.372997"/><stop stop-opacity="1" stop-color="rgb(49.478149%, 37.30011%, 86.322021%)" offset="0.375"/><stop stop-opacity="1" stop-color="rgb(49.362183%, 37.214661%, 86.265564%)" offset="0.4375"/><stop stop-opacity="1" stop-color="rgb(49.130249%, 37.042236%, 86.154175%)" offset="0.5"/><stop stop-opacity="1" stop-color="rgb(48.898315%, 36.869812%, 86.042786%)" offset="0.5625"/><stop stop-opacity="1" stop-color="rgb(48.666382%, 36.698914%, 85.929871%)" offset="0.625"/><stop stop-opacity="1" stop-color="rgb(48.434448%, 36.526489%, 85.818481%)" offset="0.627003"/><stop stop-opacity="1" stop-color="rgb(48.318481%, 36.44104%, 85.76355%)" offset="0.6875"/><stop stop-opacity="1" stop-color="rgb(48.202515%, 36.354065%, 85.707092%)" offset="0.75"/><stop stop-opacity="1" stop-color="rgb(47.970581%, 36.183167%, 85.594177%)" offset="0.8125"/><stop stop-opacity="1" stop-color="rgb(47.738647%, 36.010742%, 85.482788%)" offset="0.875"/><stop stop-opacity="1" stop-color="rgb(47.506714%, 35.838318%, 85.371399%)" offset="0.9375"/><stop stop-opacity="1" stop-color="rgb(47.27478%, 35.667419%, 85.258484%)" offset="1"/></linearGradient><clipPath id="64483ff832"><path d="M 201 131 L 214 131 L 214 145 L 201 145 Z M 201 131 " clip-rule="nonzero"/></clipPath><clipPath id="070735414b"><path d="M 201.675781 138.085938 C 201.667969 137.683594 201.703125 137.28125 201.773438 136.886719 C 201.847656 136.488281 201.957031 136.101562 202.105469 135.726562 C 202.253906 135.351562 202.433594 134.992188 202.652344 134.652344 C 202.871094 134.316406 203.121094 134 203.402344 133.710938 C 203.679688 133.421875 203.984375 133.160156 204.316406 132.929688 C 204.648438 132.699219 205 132.503906 205.367188 132.34375 C 205.738281 132.183594 206.117188 132.0625 206.511719 131.976562 C 206.90625 131.890625 207.304688 131.84375 207.707031 131.839844 C 208.109375 131.832031 208.507812 131.863281 208.902344 131.9375 C 209.300781 132.007812 209.683594 132.117188 210.058594 132.265625 C 210.433594 132.414062 210.789062 132.597656 211.128906 132.816406 C 211.464844 133.035156 211.78125 133.285156 212.070312 133.566406 C 212.359375 133.847656 212.617188 134.152344 212.847656 134.484375 C 213.078125 134.816406 213.273438 135.167969 213.433594 135.535156 C 213.59375 135.90625 213.714844 136.289062 213.800781 136.683594 C 213.886719 137.078125 213.933594 137.476562 213.941406 137.882812 C 213.949219 138.292969 213.917969 138.699219 213.84375 139.105469 C 213.773438 139.511719 213.660156 139.90625 213.511719 140.289062 C 213.359375 140.667969 213.171875 141.035156 212.949219 141.378906 C 212.726562 141.726562 212.472656 142.046875 212.1875 142.339844 C 211.902344 142.636719 211.589844 142.898438 211.25 143.132812 C 210.914062 143.363281 210.554688 143.5625 210.175781 143.722656 C 209.800781 143.882812 209.410156 144.007812 209.007812 144.089844 C 208.605469 144.171875 208.199219 144.21875 207.789062 144.21875 C 207.390625 144.222656 206.992188 144.183594 206.597656 144.105469 C 206.203125 144.027344 205.820312 143.910156 205.449219 143.757812 C 205.074219 143.605469 204.722656 143.414062 204.390625 143.191406 C 204.054688 142.96875 203.746094 142.714844 203.460938 142.429688 C 203.175781 142.144531 202.921875 141.832031 202.699219 141.496094 C 202.476562 141.164062 202.289062 140.808594 202.136719 140.4375 C 201.980469 140.0625 201.867188 139.679688 201.789062 139.285156 C 201.710938 138.886719 201.671875 138.488281 201.675781 138.085938 Z M 201.675781 138.085938 " clip-rule="nonzero"/></clipPath><linearGradient x1="207.614576" gradientTransform="matrix(0.851811, 0, 0, 0.854271, 38.203518, 109.818177)" y1="27.946079" x2="190.592074" gradientUnits="userSpaceOnUse" y2="38.067215" id="fd3ffe94d5"><stop stop-opacity="1" stop-color="rgb(49.461365%, 37.287903%, 86.314392%)" offset="0"/><stop stop-opacity="1" stop-color="rgb(49.267578%, 37.14447%, 86.219788%)" offset="0.125"/><stop stop-opacity="1" stop-color="rgb(48.878479%, 36.856079%, 86.03363%)" offset="0.25"/><stop stop-opacity="1" stop-color="rgb(48.490906%, 36.567688%, 85.845947%)" offset="0.374252"/><stop stop-opacity="1" stop-color="rgb(48.297119%, 36.424255%, 85.752869%)" offset="0.375"/><stop stop-opacity="1" stop-color="rgb(48.101807%, 36.279297%, 85.658264%)" offset="0.5"/><stop stop-opacity="1" stop-color="rgb(47.712708%, 35.992432%, 85.470581%)" offset="0.625"/><stop stop-opacity="1" stop-color="rgb(47.325134%, 35.704041%, 85.282898%)" offset="0.625748"/><stop stop-opacity="1" stop-color="rgb(47.131348%, 35.560608%, 85.189819%)" offset="0.75"/><stop stop-opacity="1" stop-color="rgb(46.936035%, 35.415649%, 85.095215%)" offset="0.875"/><stop stop-opacity="1" stop-color="rgb(46.548462%, 35.128784%, 84.909058%)" offset="1"/></linearGradient><clipPath id="20ee813489"><path d="M 183 152 L 196 152 L 196 166 L 183 166 Z M 183 152 " clip-rule="nonzero"/></clipPath><clipPath id="4143130077"><path d="M 188.972656 165.347656 C 188.574219 165.332031 188.183594 165.28125 187.792969 165.191406 C 187.40625 165.101562 187.027344 164.976562 186.664062 164.8125 C 186.300781 164.648438 185.957031 164.453125 185.628906 164.222656 C 185.304688 163.992188 185.003906 163.734375 184.726562 163.445312 C 184.449219 163.15625 184.207031 162.84375 183.988281 162.507812 C 183.773438 162.171875 183.59375 161.816406 183.445312 161.445312 C 183.300781 161.074219 183.1875 160.691406 183.117188 160.296875 C 183.042969 159.90625 183.007812 159.507812 183.011719 159.109375 C 183.035156 158.699219 183.09375 158.292969 183.195312 157.894531 C 183.292969 157.496094 183.429688 157.109375 183.601562 156.738281 C 183.773438 156.363281 183.980469 156.011719 184.222656 155.675781 C 184.460938 155.34375 184.730469 155.035156 185.027344 154.753906 C 185.328125 154.472656 185.648438 154.21875 185.996094 154 C 186.34375 153.777344 186.707031 153.59375 187.089844 153.441406 C 187.46875 153.292969 187.863281 153.179688 188.265625 153.101562 C 188.667969 153.027344 189.074219 152.992188 189.484375 152.992188 C 189.886719 153.023438 190.28125 153.089844 190.667969 153.191406 C 191.058594 153.296875 191.433594 153.433594 191.792969 153.609375 C 192.15625 153.785156 192.5 153.992188 192.820312 154.234375 C 193.144531 154.476562 193.441406 154.742188 193.710938 155.042969 C 193.984375 155.339844 194.226562 155.660156 194.4375 156 C 194.648438 156.34375 194.824219 156.703125 194.96875 157.082031 C 195.109375 157.457031 195.214844 157.84375 195.285156 158.242188 C 195.355469 158.640625 195.386719 159.039062 195.378906 159.441406 C 195.367188 159.847656 195.3125 160.25 195.21875 160.644531 C 195.125 161.039062 194.992188 161.421875 194.824219 161.789062 C 194.65625 162.15625 194.449219 162.507812 194.210938 162.835938 C 193.972656 163.164062 193.707031 163.464844 193.410156 163.738281 C 193.109375 164.011719 192.789062 164.253906 192.441406 164.464844 C 192.097656 164.675781 191.734375 164.851562 191.351562 164.988281 C 190.972656 165.125 190.582031 165.226562 190.179688 165.285156 C 189.78125 165.347656 189.378906 165.367188 188.972656 165.347656 Z M 188.972656 165.347656 " clip-rule="nonzero"/></clipPath><linearGradient x1="185.824068" gradientTransform="matrix(0.851811, 0, 0, 0.854271, 38.203518, 109.818177)" y1="52.717988" x2="168.724384" gradientUnits="userSpaceOnUse" y2="62.885015" id="8b39ea0ebf"><stop stop-opacity="1" stop-color="rgb(44.535828%, 33.636475%, 83.938599%)" offset="0"/><stop stop-opacity="1" stop-color="rgb(44.340515%, 33.491516%, 83.843994%)" offset="0.125"/><stop stop-opacity="1" stop-color="rgb(43.94989%, 33.203125%, 83.654785%)" offset="0.25"/><stop stop-opacity="1" stop-color="rgb(43.560791%, 32.913208%, 83.467102%)" offset="0.372139"/><stop stop-opacity="1" stop-color="rgb(43.365479%, 32.769775%, 83.372498%)" offset="0.375"/><stop stop-opacity="1" stop-color="rgb(43.170166%, 32.624817%, 83.277893%)" offset="0.5"/><stop stop-opacity="1" stop-color="rgb(42.779541%, 32.3349%, 83.09021%)" offset="0.625"/><stop stop-opacity="1" stop-color="rgb(42.388916%, 32.044983%, 82.902527%)" offset="0.627861"/><stop stop-opacity="1" stop-color="rgb(42.195129%, 31.90155%, 82.807922%)" offset="0.75"/><stop stop-opacity="1" stop-color="rgb(41.999817%, 31.756592%, 82.713318%)" offset="0.875"/><stop stop-opacity="1" stop-color="rgb(41.609192%, 31.466675%, 82.525635%)" offset="1"/></linearGradient><clipPath id="c31d04a8b8"><path d="M 184 113 L 193 113 L 193 122 L 184 122 Z M 184 113 " clip-rule="nonzero"/></clipPath><clipPath id="2ee13314fd"><path d="M 188.855469 113.390625 C 189.113281 113.394531 189.371094 113.421875 189.625 113.476562 C 189.878906 113.53125 190.125 113.613281 190.363281 113.714844 C 190.601562 113.820312 190.828125 113.945312 191.042969 114.09375 C 191.253906 114.242188 191.453125 114.410156 191.632812 114.597656 C 191.8125 114.785156 191.972656 114.992188 192.113281 115.210938 C 192.253906 115.429688 192.371094 115.660156 192.464844 115.902344 C 192.558594 116.148438 192.628906 116.398438 192.671875 116.652344 C 192.71875 116.910156 192.738281 117.167969 192.730469 117.429688 C 192.722656 117.691406 192.691406 117.949219 192.632812 118.207031 C 192.578125 118.460938 192.496094 118.710938 192.386719 118.949219 C 192.28125 119.1875 192.152344 119.417969 192.003906 119.628906 C 191.851562 119.84375 191.679688 120.042969 191.492188 120.222656 C 191.300781 120.402344 191.097656 120.5625 190.875 120.703125 C 190.652344 120.84375 190.421875 120.960938 190.175781 121.054688 C 189.933594 121.148438 189.683594 121.214844 189.425781 121.261719 C 189.167969 121.304688 188.90625 121.324219 188.644531 121.316406 C 188.382812 121.308594 188.125 121.277344 187.871094 121.21875 C 187.617188 121.160156 187.371094 121.078125 187.132812 120.972656 C 186.890625 120.863281 186.667969 120.734375 186.453125 120.585938 C 186.238281 120.433594 186.042969 120.261719 185.863281 120.070312 C 185.683594 119.878906 185.523438 119.675781 185.382812 119.453125 C 185.246094 119.230469 185.128906 118.996094 185.035156 118.753906 C 184.941406 118.507812 184.875 118.253906 184.828125 117.996094 C 184.785156 117.738281 184.765625 117.476562 184.773438 117.214844 C 184.78125 116.957031 184.8125 116.699219 184.871094 116.445312 C 184.929688 116.191406 185.011719 115.945312 185.121094 115.707031 C 185.226562 115.46875 185.355469 115.246094 185.507812 115.03125 C 185.65625 114.820312 185.828125 114.625 186.019531 114.449219 C 186.207031 114.269531 186.414062 114.113281 186.632812 113.976562 C 186.855469 113.839844 187.085938 113.722656 187.332031 113.632812 C 187.574219 113.542969 187.824219 113.476562 188.082031 113.433594 C 188.335938 113.394531 188.59375 113.378906 188.855469 113.390625 Z M 188.855469 113.390625 " clip-rule="nonzero"/></clipPath><linearGradient x1="182.228105" gradientTransform="matrix(0.851811, 0, 0, 0.854271, 38.203518, 109.818177)" y1="5.531641" x2="171.230411" gradientUnits="userSpaceOnUse" y2="12.070582" id="82db575631"><stop stop-opacity="1" stop-color="rgb(47.836304%, 36.082458%, 85.53009%)" offset="0"/><stop stop-opacity="1" stop-color="rgb(47.709656%, 35.98938%, 85.469055%)" offset="0.125"/><stop stop-opacity="1" stop-color="rgb(47.459412%, 35.803223%, 85.348511%)" offset="0.25"/><stop stop-opacity="1" stop-color="rgb(47.207642%, 35.618591%, 85.22644%)" offset="0.371483"/><stop stop-opacity="1" stop-color="rgb(47.08252%, 35.525513%, 85.166931%)" offset="0.375"/><stop stop-opacity="1" stop-color="rgb(46.957397%, 35.432434%, 85.105896%)" offset="0.5"/><stop stop-opacity="1" stop-color="rgb(46.705627%, 35.246277%, 84.985352%)" offset="0.625"/><stop stop-opacity="1" stop-color="rgb(46.455383%, 35.06012%, 84.863281%)" offset="0.628517"/><stop stop-opacity="1" stop-color="rgb(46.330261%, 34.967041%, 84.803772%)" offset="0.75"/><stop stop-opacity="1" stop-color="rgb(46.203613%, 34.873962%, 84.742737%)" offset="0.875"/><stop stop-opacity="1" stop-color="rgb(45.953369%, 34.687805%, 84.622192%)" offset="1"/></linearGradient><clipPath id="b2937952db"><path d="M 38 155 L 47 155 L 47 164 L 38 164 Z M 38 155 " clip-rule="nonzero"/></clipPath><clipPath id="518a892752"><path d="M 38.203125 158.9375 C 38.191406 159.46875 38.28125 159.980469 38.460938 160.476562 C 38.644531 160.972656 38.910156 161.417969 39.257812 161.8125 C 39.609375 162.207031 40.019531 162.527344 40.488281 162.769531 C 40.957031 163.007812 41.453125 163.15625 41.976562 163.210938 C 42.496094 163.191406 43 163.085938 43.480469 162.886719 C 43.964844 162.691406 44.398438 162.414062 44.78125 162.0625 C 45.167969 161.707031 45.476562 161.296875 45.714844 160.832031 C 45.953125 160.367188 46.105469 159.875 46.167969 159.355469 C 46.175781 158.832031 46.085938 158.324219 45.902344 157.832031 C 45.714844 157.339844 45.445312 156.902344 45.089844 156.515625 C 44.734375 156.128906 44.320312 155.824219 43.847656 155.597656 C 43.371094 155.371094 42.875 155.238281 42.351562 155.207031 C 41.832031 155.179688 41.324219 155.253906 40.832031 155.429688 C 40.339844 155.605469 39.902344 155.867188 39.511719 156.214844 C 39.125 156.566406 38.816406 156.976562 38.589844 157.449219 C 38.363281 157.917969 38.234375 158.417969 38.203125 158.9375 Z M 38.203125 158.9375 " clip-rule="nonzero"/></clipPath><clipPath id="5445fc543d"><path d="M 124 149 L 161 149 L 161 186 L 124 186 Z M 124 149 " clip-rule="nonzero"/></clipPath><clipPath id="967383fde2"><path d="M 151.671875 149.875 C 152.5 149.859375 153.3125 149.960938 154.109375 150.1875 C 154.910156 150.414062 155.65625 150.75 156.351562 151.199219 C 157.050781 151.648438 157.667969 152.191406 158.203125 152.824219 C 158.738281 153.457031 159.171875 154.152344 159.5 154.914062 C 161.207031 158.589844 160.515625 162.195312 157.628906 165.125 C 152.710938 170.105469 147.746094 175.023438 142.804688 179.960938 C 141.664062 181.105469 140.574219 182.304688 139.398438 183.378906 C 138.984375 183.773438 138.53125 184.121094 138.046875 184.425781 C 137.5625 184.730469 137.054688 184.984375 136.519531 185.191406 C 135.988281 185.394531 135.4375 185.546875 134.875 185.640625 C 134.3125 185.738281 133.746094 185.78125 133.171875 185.765625 C 132.601562 185.753906 132.035156 185.683594 131.480469 185.558594 C 130.921875 185.433594 130.378906 185.253906 129.859375 185.023438 C 129.335938 184.792969 128.839844 184.511719 128.371094 184.183594 C 127.902344 183.855469 127.46875 183.484375 127.074219 183.070312 C 126.667969 182.65625 126.308594 182.203125 125.992188 181.710938 C 125.679688 181.222656 125.414062 180.710938 125.199219 180.167969 C 124.984375 179.628906 124.824219 179.070312 124.71875 178.5 C 124.613281 177.925781 124.5625 177.351562 124.570312 176.769531 C 124.578125 176.1875 124.640625 175.609375 124.761719 175.042969 C 124.882812 174.472656 125.058594 173.917969 125.285156 173.382812 C 125.515625 172.847656 125.792969 172.34375 126.121094 171.863281 C 126.449219 171.382812 126.820312 170.9375 127.234375 170.53125 C 133.085938 164.601562 139 158.734375 144.882812 152.847656 C 146.742188 150.960938 148.886719 149.703125 151.671875 149.875 Z M 151.671875 149.875 " clip-rule="nonzero"/></clipPath><linearGradient x1="147.941212" gradientTransform="matrix(0.851811, 0, 0, 0.854271, 38.203518, 109.818177)" y1="52.645219" x2="97.609648" gradientUnits="userSpaceOnUse" y2="82.574265" id="2191ed68d8"><stop stop-opacity="1" stop-color="rgb(39.433289%, 29.853821%, 81.47583%)" offset="0"/><stop stop-opacity="1" stop-color="rgb(39.28833%, 29.747009%, 81.40564%)" offset="0.03125"/><stop stop-opacity="1" stop-color="rgb(39.001465%, 29.534912%, 81.266785%)" offset="0.0625"/><stop stop-opacity="1" stop-color="rgb(38.7146%, 29.321289%, 81.12793%)" offset="0.09375"/><stop stop-opacity="1" stop-color="rgb(38.427734%, 29.109192%, 80.990601%)" offset="0.125"/><stop stop-opacity="1" stop-color="rgb(38.140869%, 28.895569%, 80.851746%)" offset="0.15625"/><stop stop-opacity="1" stop-color="rgb(37.852478%, 28.683472%, 80.712891%)" offset="0.1875"/><stop stop-opacity="1" stop-color="rgb(37.565613%, 28.469849%, 80.574036%)" offset="0.21875"/><stop stop-opacity="1" stop-color="rgb(37.278748%, 28.257751%, 80.435181%)" offset="0.25"/><stop stop-opacity="1" stop-color="rgb(36.991882%, 28.044128%, 80.297852%)" offset="0.28125"/><stop stop-opacity="1" stop-color="rgb(36.705017%, 27.832031%, 80.158997%)" offset="0.3125"/><stop stop-opacity="1" stop-color="rgb(36.416626%, 27.618408%, 80.020142%)" offset="0.34375"/><stop stop-opacity="1" stop-color="rgb(36.129761%, 27.406311%, 79.881287%)" offset="0.368599"/><stop stop-opacity="1" stop-color="rgb(35.986328%, 27.2995%, 79.812622%)" offset="0.375"/><stop stop-opacity="1" stop-color="rgb(35.842896%, 27.192688%, 79.742432%)" offset="0.40625"/><stop stop-opacity="1" stop-color="rgb(35.55603%, 26.980591%, 79.603577%)" offset="0.4375"/><stop stop-opacity="1" stop-color="rgb(35.269165%, 26.766968%, 79.466248%)" offset="0.46875"/><stop stop-opacity="1" stop-color="rgb(34.980774%, 26.554871%, 79.327393%)" offset="0.5"/><stop stop-opacity="1" stop-color="rgb(34.693909%, 26.341248%, 79.188538%)" offset="0.53125"/><stop stop-opacity="1" stop-color="rgb(34.407043%, 26.12915%, 79.049683%)" offset="0.5625"/><stop stop-opacity="1" stop-color="rgb(34.120178%, 25.915527%, 78.910828%)" offset="0.59375"/><stop stop-opacity="1" stop-color="rgb(33.833313%, 25.70343%, 78.773499%)" offset="0.625"/><stop stop-opacity="1" stop-color="rgb(33.546448%, 25.489807%, 78.634644%)" offset="0.631401"/><stop stop-opacity="1" stop-color="rgb(33.403015%, 25.384521%, 78.565979%)" offset="0.65625"/><stop stop-opacity="1" stop-color="rgb(33.258057%, 25.27771%, 78.495789%)" offset="0.6875"/><stop stop-opacity="1" stop-color="rgb(32.971191%, 25.064087%, 78.356934%)" offset="0.71875"/><stop stop-opacity="1" stop-color="rgb(32.684326%, 24.85199%, 78.218079%)" offset="0.75"/><stop stop-opacity="1" stop-color="rgb(32.397461%, 24.638367%, 78.08075%)" offset="0.78125"/><stop stop-opacity="1" stop-color="rgb(32.110596%, 24.42627%, 77.941895%)" offset="0.8125"/><stop stop-opacity="1" stop-color="rgb(31.822205%, 24.212646%, 77.80304%)" offset="0.84375"/><stop stop-opacity="1" stop-color="rgb(31.538391%, 24.003601%, 77.66571%)" offset="0.875"/><stop stop-opacity="1" stop-color="rgb(31.399536%, 23.899841%, 77.598572%)" offset="1"/></linearGradient><clipPath id="7a23ca1206"><path d="M 66 149 L 103 149 L 103 186 L 66 186 Z M 66 149 " clip-rule="nonzero"/></clipPath><clipPath id="db5829cfd8"><path d="M 75.597656 149.875 C 74.769531 149.859375 73.957031 149.964844 73.160156 150.1875 C 72.359375 150.414062 71.613281 150.753906 70.914062 151.199219 C 70.21875 151.648438 69.601562 152.191406 69.0625 152.824219 C 68.527344 153.457031 68.09375 154.152344 67.761719 154.914062 C 66.058594 158.589844 66.746094 162.195312 69.644531 165.125 C 74.550781 170.105469 79.515625 175.023438 84.457031 179.960938 C 85.597656 181.105469 86.6875 182.304688 87.863281 183.378906 C 88.28125 183.773438 88.730469 184.121094 89.214844 184.425781 C 89.699219 184.730469 90.207031 184.984375 90.738281 185.1875 C 91.273438 185.394531 91.820312 185.542969 92.382812 185.640625 C 92.949219 185.738281 93.515625 185.78125 94.085938 185.765625 C 94.65625 185.75 95.222656 185.683594 95.777344 185.558594 C 96.335938 185.433594 96.875 185.253906 97.398438 185.023438 C 97.921875 184.792969 98.417969 184.511719 98.886719 184.183594 C 99.351562 183.855469 99.785156 183.484375 100.179688 183.070312 C 100.585938 182.65625 100.945312 182.203125 101.261719 181.714844 C 101.578125 181.226562 101.84375 180.710938 102.058594 180.171875 C 102.273438 179.628906 102.433594 179.074219 102.539062 178.5 C 102.644531 177.929688 102.695312 177.351562 102.6875 176.769531 C 102.679688 176.1875 102.617188 175.613281 102.496094 175.042969 C 102.378906 174.472656 102.203125 173.921875 101.976562 173.386719 C 101.746094 172.851562 101.46875 172.34375 101.140625 171.863281 C 100.8125 171.382812 100.441406 170.9375 100.027344 170.53125 C 94.175781 164.601562 88.265625 158.734375 82.371094 152.847656 C 80.53125 150.960938 78.375 149.703125 75.597656 149.875 Z M 75.597656 149.875 " clip-rule="nonzero"/></clipPath><clipPath id="e72fb7252d"><path d="M 142 109.816406 L 179 109.816406 L 179 146 L 142 146 Z M 142 109.816406 " clip-rule="nonzero"/></clipPath><clipPath id="9017cdd721"><path d="M 169.09375 145.699219 C 168.035156 145.675781 167.023438 145.449219 166.058594 145.019531 C 165.09375 144.589844 164.246094 143.992188 163.523438 143.21875 C 157.378906 137.09375 151.214844 131.003906 145.140625 124.8125 C 144.75 124.402344 144.398438 123.960938 144.09375 123.488281 C 143.785156 123.011719 143.527344 122.511719 143.316406 121.988281 C 143.105469 121.460938 142.945312 120.921875 142.839844 120.367188 C 142.730469 119.8125 142.679688 119.25 142.679688 118.683594 C 142.679688 118.121094 142.730469 117.558594 142.839844 117.003906 C 142.945312 116.449219 143.105469 115.910156 143.316406 115.382812 C 143.527344 114.859375 143.785156 114.359375 144.09375 113.882812 C 144.398438 113.410156 144.75 112.96875 145.140625 112.558594 C 148.488281 109.144531 153.90625 108.757812 157.328125 112.054688 C 163.71875 118.207031 169.992188 124.472656 176.15625 130.851562 C 176.792969 131.46875 177.316406 132.171875 177.730469 132.957031 C 178.140625 133.746094 178.417969 134.578125 178.558594 135.457031 C 178.703125 136.332031 178.703125 137.210938 178.5625 138.089844 C 178.421875 138.96875 178.148438 139.800781 177.738281 140.589844 C 176.136719 143.988281 173.34375 145.84375 169.09375 145.699219 Z M 169.09375 145.699219 " clip-rule="nonzero"/></clipPath><linearGradient x1="168.669987" gradientTransform="matrix(0.851811, 0, 0, 0.854271, 38.203518, 109.818177)" y1="6.268415" x2="118.899072" gradientUnits="userSpaceOnUse" y2="35.860903" id="2be6d3c31b"><stop stop-opacity="1" stop-color="rgb(45.948792%, 34.683228%, 84.619141%)" offset="0"/><stop stop-opacity="1" stop-color="rgb(45.806885%, 34.577942%, 84.550476%)" offset="0.03125"/><stop stop-opacity="1" stop-color="rgb(45.523071%, 34.368896%, 84.413147%)" offset="0.0625"/><stop stop-opacity="1" stop-color="rgb(45.237732%, 34.158325%, 84.277344%)" offset="0.09375"/><stop stop-opacity="1" stop-color="rgb(44.953918%, 33.947754%, 84.140015%)" offset="0.125"/><stop stop-opacity="1" stop-color="rgb(44.670105%, 33.737183%, 84.002686%)" offset="0.15625"/><stop stop-opacity="1" stop-color="rgb(44.386292%, 33.526611%, 83.865356%)" offset="0.1875"/><stop stop-opacity="1" stop-color="rgb(44.102478%, 33.31604%, 83.728027%)" offset="0.21875"/><stop stop-opacity="1" stop-color="rgb(43.818665%, 33.105469%, 83.592224%)" offset="0.25"/><stop stop-opacity="1" stop-color="rgb(43.534851%, 32.894897%, 83.454895%)" offset="0.28125"/><stop stop-opacity="1" stop-color="rgb(43.251038%, 32.684326%, 83.317566%)" offset="0.3125"/><stop stop-opacity="1" stop-color="rgb(42.967224%, 32.473755%, 83.180237%)" offset="0.34375"/><stop stop-opacity="1" stop-color="rgb(42.683411%, 32.263184%, 83.042908%)" offset="0.372194"/><stop stop-opacity="1" stop-color="rgb(42.541504%, 32.157898%, 82.975769%)" offset="0.375"/><stop stop-opacity="1" stop-color="rgb(42.399597%, 32.052612%, 82.907104%)" offset="0.40625"/><stop stop-opacity="1" stop-color="rgb(42.114258%, 31.842041%, 82.769775%)" offset="0.4375"/><stop stop-opacity="1" stop-color="rgb(41.830444%, 31.63147%, 82.632446%)" offset="0.46875"/><stop stop-opacity="1" stop-color="rgb(41.546631%, 31.420898%, 82.495117%)" offset="0.5"/><stop stop-opacity="1" stop-color="rgb(41.262817%, 31.210327%, 82.357788%)" offset="0.53125"/><stop stop-opacity="1" stop-color="rgb(40.979004%, 30.999756%, 82.221985%)" offset="0.5625"/><stop stop-opacity="1" stop-color="rgb(40.69519%, 30.789185%, 82.084656%)" offset="0.59375"/><stop stop-opacity="1" stop-color="rgb(40.411377%, 30.578613%, 81.947327%)" offset="0.625"/><stop stop-opacity="1" stop-color="rgb(40.127563%, 30.369568%, 81.809998%)" offset="0.627806"/><stop stop-opacity="1" stop-color="rgb(39.985657%, 30.264282%, 81.742859%)" offset="0.65625"/><stop stop-opacity="1" stop-color="rgb(39.84375%, 30.158997%, 81.674194%)" offset="0.6875"/><stop stop-opacity="1" stop-color="rgb(39.559937%, 29.948425%, 81.536865%)" offset="0.71875"/><stop stop-opacity="1" stop-color="rgb(39.274597%, 29.737854%, 81.399536%)" offset="0.75"/><stop stop-opacity="1" stop-color="rgb(38.990784%, 29.527283%, 81.262207%)" offset="0.78125"/><stop stop-opacity="1" stop-color="rgb(38.70697%, 29.316711%, 81.124878%)" offset="0.8125"/><stop stop-opacity="1" stop-color="rgb(38.423157%, 29.10614%, 80.989075%)" offset="0.84375"/><stop stop-opacity="1" stop-color="rgb(38.139343%, 28.895569%, 80.851746%)" offset="0.875"/><stop stop-opacity="1" stop-color="rgb(37.85553%, 28.684998%, 80.714417%)" offset="0.90625"/><stop stop-opacity="1" stop-color="rgb(37.571716%, 28.474426%, 80.577087%)" offset="0.9375"/><stop stop-opacity="1" stop-color="rgb(37.287903%, 28.263855%, 80.439758%)" offset="0.96875"/><stop stop-opacity="1" stop-color="rgb(37.004089%, 28.053284%, 80.303955%)" offset="1"/></linearGradient><clipPath id="90e8953c64"><path d="M 106 109.816406 L 143 109.816406 L 143 146 L 106 146 Z M 106 109.816406 " clip-rule="nonzero"/></clipPath><clipPath id="d2a01bf97c"><path d="M 133.257812 145.800781 C 132.167969 145.839844 131.113281 145.660156 130.097656 145.261719 C 129.082031 144.859375 128.1875 144.273438 127.414062 143.503906 C 121.136719 137.242188 114.816406 131.019531 108.675781 124.707031 C 105.351562 121.292969 105.640625 116.0625 109.082031 112.519531 C 109.472656 112.121094 109.894531 111.765625 110.355469 111.449219 C 110.8125 111.136719 111.296875 110.867188 111.804688 110.644531 C 112.316406 110.425781 112.84375 110.253906 113.382812 110.132812 C 113.925781 110.015625 114.476562 109.949219 115.03125 109.9375 C 115.585938 109.921875 116.136719 109.964844 116.683594 110.058594 C 117.234375 110.152344 117.765625 110.296875 118.285156 110.492188 C 118.804688 110.691406 119.300781 110.9375 119.773438 111.230469 C 120.246094 111.523438 120.6875 111.859375 121.09375 112.234375 C 125.941406 116.882812 130.667969 121.777344 135.464844 126.5625 C 136.886719 127.988281 138.367188 129.363281 139.722656 130.832031 C 140.332031 131.449219 140.835938 132.140625 141.234375 132.914062 C 141.636719 133.683594 141.910156 134.496094 142.0625 135.351562 C 142.214844 136.207031 142.238281 137.0625 142.128906 137.925781 C 142.019531 138.785156 141.785156 139.613281 141.425781 140.402344 C 139.996094 143.988281 137.160156 145.78125 133.257812 145.800781 Z M 133.257812 145.800781 " clip-rule="nonzero"/></clipPath><linearGradient x1="125.879457" gradientTransform="matrix(0.851811, 0, 0, 0.854271, 38.203518, 109.818177)" y1="6.424899" x2="75.418885" gradientUnits="userSpaceOnUse" y2="36.429353" id="2795ac7149"><stop stop-opacity="1" stop-color="rgb(40.161133%, 30.393982%, 81.826782%)" offset="0"/><stop stop-opacity="1" stop-color="rgb(40.016174%, 30.28717%, 81.756592%)" offset="0.03125"/><stop stop-opacity="1" stop-color="rgb(39.729309%, 30.073547%, 81.617737%)" offset="0.0625"/><stop stop-opacity="1" stop-color="rgb(39.440918%, 29.859924%, 81.478882%)" offset="0.09375"/><stop stop-opacity="1" stop-color="rgb(39.152527%, 29.647827%, 81.340027%)" offset="0.125"/><stop stop-opacity="1" stop-color="rgb(38.865662%, 29.434204%, 81.201172%)" offset="0.15625"/><stop stop-opacity="1" stop-color="rgb(38.577271%, 29.220581%, 81.062317%)" offset="0.1875"/><stop stop-opacity="1" stop-color="rgb(38.288879%, 29.006958%, 80.923462%)" offset="0.21875"/><stop stop-opacity="1" stop-color="rgb(38.002014%, 28.793335%, 80.784607%)" offset="0.25"/><stop stop-opacity="1" stop-color="rgb(37.713623%, 28.579712%, 80.645752%)" offset="0.28125"/><stop stop-opacity="1" stop-color="rgb(37.425232%, 28.366089%, 80.506897%)" offset="0.3125"/><stop stop-opacity="1" stop-color="rgb(37.138367%, 28.152466%, 80.368042%)" offset="0.34375"/><stop stop-opacity="1" stop-color="rgb(36.849976%, 27.940369%, 80.229187%)" offset="0.366015"/><stop stop-opacity="1" stop-color="rgb(36.706543%, 27.833557%, 80.160522%)" offset="0.375"/><stop stop-opacity="1" stop-color="rgb(36.561584%, 27.726746%, 80.090332%)" offset="0.40625"/><stop stop-opacity="1" stop-color="rgb(36.274719%, 27.513123%, 79.951477%)" offset="0.4375"/><stop stop-opacity="1" stop-color="rgb(35.986328%, 27.2995%, 79.812622%)" offset="0.46875"/><stop stop-opacity="1" stop-color="rgb(35.697937%, 27.085876%, 79.673767%)" offset="0.5"/><stop stop-opacity="1" stop-color="rgb(35.409546%, 26.872253%, 79.533386%)" offset="0.53125"/><stop stop-opacity="1" stop-color="rgb(35.122681%, 26.65863%, 79.394531%)" offset="0.5625"/><stop stop-opacity="1" stop-color="rgb(34.83429%, 26.446533%, 79.255676%)" offset="0.59375"/><stop stop-opacity="1" stop-color="rgb(34.545898%, 26.23291%, 79.116821%)" offset="0.625"/><stop stop-opacity="1" stop-color="rgb(34.259033%, 26.019287%, 78.977966%)" offset="0.633985"/><stop stop-opacity="1" stop-color="rgb(34.115601%, 25.912476%, 78.909302%)" offset="0.65625"/><stop stop-opacity="1" stop-color="rgb(33.970642%, 25.805664%, 78.839111%)" offset="0.6875"/><stop stop-opacity="1" stop-color="rgb(33.682251%, 25.592041%, 78.700256%)" offset="0.71875"/><stop stop-opacity="1" stop-color="rgb(33.395386%, 25.378418%, 78.561401%)" offset="0.75"/><stop stop-opacity="1" stop-color="rgb(33.106995%, 25.164795%, 78.422546%)" offset="0.78125"/><stop stop-opacity="1" stop-color="rgb(32.818604%, 24.951172%, 78.283691%)" offset="0.8125"/><stop stop-opacity="1" stop-color="rgb(32.531738%, 24.739075%, 78.144836%)" offset="0.84375"/><stop stop-opacity="1" stop-color="rgb(32.243347%, 24.525452%, 78.005981%)" offset="0.875"/><stop stop-opacity="1" stop-color="rgb(31.954956%, 24.311829%, 77.867126%)" offset="0.90625"/><stop stop-opacity="1" stop-color="rgb(31.666565%, 24.098206%, 77.728271%)" offset="0.9375"/><stop stop-opacity="1" stop-color="rgb(31.460571%, 23.945618%, 77.629089%)" offset="1"/></linearGradient><clipPath id="8512390eaf"><path d="M 51 130 L 67 130 L 67 146 L 51 146 Z M 51 130 " clip-rule="nonzero"/></clipPath><clipPath id="0f84f4ff32"><path d="M 59.5 145.757812 C 59.019531 145.761719 58.542969 145.71875 58.070312 145.628906 C 57.597656 145.542969 57.140625 145.410156 56.691406 145.234375 C 56.246094 145.058594 55.820312 144.84375 55.414062 144.585938 C 55.007812 144.328125 54.628906 144.035156 54.277344 143.707031 C 53.929688 143.378906 53.613281 143.019531 53.332031 142.628906 C 53.046875 142.238281 52.804688 141.824219 52.601562 141.390625 C 52.398438 140.953125 52.238281 140.503906 52.121094 140.035156 C 52 139.570312 51.929688 139.097656 51.902344 138.617188 C 51.746094 134.730469 55.308594 131.03125 59.234375 130.925781 C 59.722656 130.929688 60.207031 130.976562 60.683594 131.070312 C 61.164062 131.167969 61.628906 131.308594 62.078125 131.492188 C 62.53125 131.679688 62.957031 131.90625 63.367188 132.175781 C 63.773438 132.445312 64.148438 132.753906 64.496094 133.097656 C 64.84375 133.441406 65.15625 133.8125 65.429688 134.21875 C 65.707031 134.621094 65.941406 135.050781 66.132812 135.5 C 66.324219 135.949219 66.472656 136.414062 66.574219 136.890625 C 66.675781 137.371094 66.730469 137.851562 66.738281 138.34375 C 66.738281 138.824219 66.695312 139.300781 66.601562 139.769531 C 66.511719 140.242188 66.375 140.699219 66.195312 141.144531 C 66.011719 141.589844 65.789062 142.015625 65.527344 142.417969 C 65.265625 142.816406 64.964844 143.191406 64.628906 143.535156 C 64.296875 143.878906 63.929688 144.183594 63.535156 144.457031 C 63.140625 144.730469 62.722656 144.960938 62.28125 145.152344 C 61.84375 145.34375 61.386719 145.488281 60.921875 145.589844 C 60.453125 145.691406 59.976562 145.746094 59.5 145.757812 Z M 59.5 145.757812 " clip-rule="nonzero"/></clipPath><clipPath id="6937225313"><path d="M 105 151 L 121 151 L 121 167 L 105 167 Z M 105 151 " clip-rule="nonzero"/></clipPath><clipPath id="1e51d6b34d"><path d="M 113.460938 151.804688 C 113.941406 151.832031 114.414062 151.902344 114.882812 152.019531 C 115.351562 152.140625 115.800781 152.300781 116.234375 152.507812 C 116.671875 152.71875 117.082031 152.964844 117.46875 153.253906 C 117.855469 153.542969 118.207031 153.863281 118.53125 154.222656 C 118.855469 154.582031 119.140625 154.96875 119.386719 155.382812 C 119.636719 155.796875 119.839844 156.230469 120 156.6875 C 120.164062 157.140625 120.28125 157.605469 120.351562 158.085938 C 120.421875 158.5625 120.445312 159.042969 120.421875 159.523438 C 120.398438 160.007812 120.328125 160.484375 120.210938 160.953125 C 120.097656 161.421875 119.933594 161.871094 119.730469 162.308594 C 119.523438 162.746094 119.277344 163.160156 118.992188 163.546875 C 118.707031 163.9375 118.386719 164.292969 118.03125 164.617188 C 117.671875 164.945312 117.289062 165.230469 116.875 165.480469 C 116.464844 165.730469 116.03125 165.9375 115.578125 166.101562 C 115.125 166.265625 114.660156 166.382812 114.183594 166.457031 C 113.710938 166.527344 113.230469 166.554688 112.75 166.53125 C 112.269531 166.511719 111.792969 166.441406 111.324219 166.328125 C 110.859375 166.210938 110.40625 166.050781 109.96875 165.847656 C 109.535156 165.644531 109.121094 165.398438 108.734375 165.113281 C 108.34375 164.828125 107.988281 164.507812 107.660156 164.152344 C 107.335938 163.792969 107.046875 163.410156 106.796875 162.996094 C 106.546875 162.585938 106.339844 162.152344 106.175781 161.699219 C 106.011719 161.246094 105.890625 160.777344 105.816406 160.300781 C 105.742188 159.824219 105.714844 159.34375 105.734375 158.863281 C 105.753906 158.375 105.820312 157.894531 105.933594 157.417969 C 106.046875 156.945312 106.207031 156.488281 106.414062 156.042969 C 106.617188 155.601562 106.863281 155.183594 107.152344 154.792969 C 107.441406 154.398438 107.761719 154.039062 108.121094 153.710938 C 108.484375 153.378906 108.871094 153.089844 109.289062 152.839844 C 109.707031 152.589844 110.144531 152.382812 110.601562 152.21875 C 111.058594 152.054688 111.527344 151.9375 112.011719 151.871094 C 112.492188 151.800781 112.976562 151.777344 113.460938 151.804688 Z M 113.460938 151.804688 " clip-rule="nonzero"/></clipPath><linearGradient x1="98.080513" gradientTransform="matrix(0.851811, 0, 0, 0.854271, 38.203518, 109.818177)" y1="51.692825" x2="77.705853" gradientUnits="userSpaceOnUse" y2="63.807067" id="90bb8aec96"><stop stop-opacity="1" stop-color="rgb(32.783508%, 24.925232%, 78.266907%)" offset="0"/><stop stop-opacity="1" stop-color="rgb(32.666016%, 24.838257%, 78.210449%)" offset="0.0625"/><stop stop-opacity="1" stop-color="rgb(32.434082%, 24.665833%, 78.09906%)" offset="0.125"/><stop stop-opacity="1" stop-color="rgb(32.202148%, 24.493408%, 77.986145%)" offset="0.1875"/><stop stop-opacity="1" stop-color="rgb(31.968689%, 24.320984%, 77.874756%)" offset="0.25"/><stop stop-opacity="1" stop-color="rgb(31.736755%, 24.14856%, 77.761841%)" offset="0.3125"/><stop stop-opacity="1" stop-color="rgb(31.509399%, 23.980713%, 77.651978%)" offset="0.372919"/><stop stop-opacity="1" stop-color="rgb(31.399536%, 23.899841%, 77.598572%)" offset="0.375"/><stop stop-opacity="1" stop-color="rgb(31.399536%, 23.899841%, 77.598572%)" offset="0.5"/><stop stop-opacity="1" stop-color="rgb(31.399536%, 23.899841%, 77.598572%)" offset="0.627081"/><stop stop-opacity="1" stop-color="rgb(31.399536%, 23.899841%, 77.598572%)" offset="1"/></linearGradient><clipPath id="49a9dc336f"><path d="M 163 172 L 176 172 L 176 185 L 163 185 Z M 163 172 " clip-rule="nonzero"/></clipPath><clipPath id="7fe240029c"><path d="M 175.804688 178.785156 C 175.808594 179.1875 175.769531 179.585938 175.695312 179.980469 C 175.621094 180.375 175.503906 180.761719 175.355469 181.132812 C 175.203125 181.507812 175.015625 181.863281 174.796875 182.199219 C 174.574219 182.535156 174.324219 182.84375 174.039062 183.132812 C 173.757812 183.417969 173.453125 183.675781 173.117188 183.902344 C 172.785156 184.125 172.433594 184.316406 172.066406 184.472656 C 171.695312 184.628906 171.3125 184.75 170.917969 184.832031 C 170.527344 184.910156 170.128906 184.953125 169.726562 184.957031 C 169.324219 184.957031 168.929688 184.921875 168.535156 184.84375 C 168.140625 184.769531 167.757812 184.65625 167.382812 184.503906 C 167.011719 184.351562 166.660156 184.164062 166.324219 183.941406 C 165.988281 183.722656 165.675781 183.46875 165.390625 183.1875 C 165.105469 182.902344 164.851562 182.59375 164.625 182.261719 C 164.398438 181.929688 164.210938 181.574219 164.054688 181.203125 C 163.898438 180.832031 163.777344 180.449219 163.699219 180.054688 C 163.617188 179.660156 163.574219 179.261719 163.574219 178.859375 C 163.570312 178.457031 163.605469 178.058594 163.683594 177.664062 C 163.757812 177.265625 163.871094 176.882812 164.023438 176.511719 C 164.175781 176.136719 164.363281 175.78125 164.582031 175.445312 C 164.804688 175.109375 165.054688 174.796875 165.335938 174.511719 C 165.621094 174.226562 165.925781 173.96875 166.257812 173.742188 C 166.59375 173.515625 166.941406 173.328125 167.3125 173.167969 C 167.683594 173.011719 168.066406 172.894531 168.457031 172.8125 C 168.851562 172.734375 169.25 172.691406 169.652344 172.6875 C 170.050781 172.6875 170.449219 172.722656 170.84375 172.796875 C 171.238281 172.875 171.621094 172.988281 171.996094 173.140625 C 172.367188 173.292969 172.71875 173.480469 173.054688 173.699219 C 173.390625 173.921875 173.699219 174.175781 173.988281 174.457031 C 174.273438 174.742188 174.527344 175.046875 174.753906 175.382812 C 174.976562 175.714844 175.167969 176.066406 175.324219 176.4375 C 175.480469 176.808594 175.597656 177.191406 175.679688 177.585938 C 175.761719 177.980469 175.800781 178.378906 175.804688 178.785156 Z M 175.804688 178.785156 " clip-rule="nonzero"/></clipPath><linearGradient x1="162.846926" gradientTransform="matrix(0.851811, 0, 0, 0.854271, 38.203518, 109.818177)" y1="75.785185" x2="145.922529" gradientUnits="userSpaceOnUse" y2="85.84799" id="01053537c9"><stop stop-opacity="1" stop-color="rgb(39.587402%, 29.968262%, 81.550598%)" offset="0"/><stop stop-opacity="1" stop-color="rgb(39.393616%, 29.824829%, 81.455994%)" offset="0.125"/><stop stop-opacity="1" stop-color="rgb(39.007568%, 29.53949%, 81.269836%)" offset="0.25"/><stop stop-opacity="1" stop-color="rgb(38.621521%, 29.252625%, 81.083679%)" offset="0.372873"/><stop stop-opacity="1" stop-color="rgb(38.427734%, 29.109192%, 80.990601%)" offset="0.375"/><stop stop-opacity="1" stop-color="rgb(38.233948%, 28.965759%, 80.897522%)" offset="0.5"/><stop stop-opacity="1" stop-color="rgb(37.8479%, 28.68042%, 80.711365%)" offset="0.625"/><stop stop-opacity="1" stop-color="rgb(37.461853%, 28.393555%, 80.525208%)" offset="0.627127"/><stop stop-opacity="1" stop-color="rgb(37.269592%, 28.250122%, 80.432129%)" offset="0.75"/><stop stop-opacity="1" stop-color="rgb(37.075806%, 28.106689%, 80.33905%)" offset="0.875"/><stop stop-opacity="1" stop-color="rgb(36.689758%, 27.82135%, 80.152893%)" offset="1"/></linearGradient><clipPath id="8d3ac5512e"><path d="M 54 172 L 67 172 L 67 186 L 54 186 Z M 54 172 " clip-rule="nonzero"/></clipPath><clipPath id="7ae56d92ec"><path d="M 60.222656 185.046875 C 59.824219 185.039062 59.425781 184.992188 59.035156 184.90625 C 58.644531 184.820312 58.265625 184.695312 57.898438 184.535156 C 57.53125 184.375 57.183594 184.183594 56.851562 183.953125 C 56.523438 183.726562 56.21875 183.46875 55.941406 183.179688 C 55.660156 182.890625 55.414062 182.578125 55.195312 182.242188 C 54.976562 181.90625 54.792969 181.550781 54.644531 181.175781 C 54.496094 180.804688 54.386719 180.417969 54.3125 180.023438 C 54.238281 179.628906 54.207031 179.230469 54.210938 178.832031 C 54.214844 178.429688 54.257812 178.03125 54.339844 177.636719 C 54.421875 177.246094 54.539062 176.863281 54.695312 176.496094 C 54.851562 176.125 55.042969 175.773438 55.269531 175.441406 C 55.492188 175.109375 55.746094 174.800781 56.03125 174.519531 C 56.316406 174.238281 56.625 173.984375 56.960938 173.765625 C 57.292969 173.542969 57.648438 173.355469 58.019531 173.203125 C 58.386719 173.050781 58.769531 172.9375 59.164062 172.859375 C 59.554688 172.78125 59.953125 172.746094 60.351562 172.746094 C 60.753906 172.746094 61.148438 172.785156 61.542969 172.863281 C 61.933594 172.941406 62.316406 173.058594 62.6875 173.210938 C 63.054688 173.367188 63.40625 173.554688 63.742188 173.777344 C 64.074219 174 64.382812 174.25 64.667969 174.535156 C 64.949219 174.816406 65.203125 175.125 65.429688 175.460938 C 65.652344 175.792969 65.839844 176.144531 65.996094 176.515625 C 66.152344 176.882812 66.269531 177.265625 66.351562 177.660156 C 66.429688 178.054688 66.472656 178.449219 66.476562 178.851562 C 66.484375 179.265625 66.449219 179.671875 66.375 180.078125 C 66.300781 180.484375 66.183594 180.875 66.027344 181.257812 C 65.875 181.640625 65.683594 182.003906 65.453125 182.34375 C 65.226562 182.6875 64.964844 183.003906 64.671875 183.292969 C 64.382812 183.582031 64.0625 183.839844 63.71875 184.066406 C 63.375 184.289062 63.011719 184.476562 62.628906 184.628906 C 62.246094 184.777344 61.851562 184.886719 61.445312 184.960938 C 61.042969 185.03125 60.632812 185.058594 60.222656 185.046875 Z M 60.222656 185.046875 " clip-rule="nonzero"/></clipPath><clipPath id="0e08b4a216"><path d="M 38 155 L 47 155 L 47 164 L 38 164 Z M 38 155 " clip-rule="nonzero"/></clipPath><clipPath id="6d58571e10"><path d="M 38.203125 158.9375 C 38.214844 158.679688 38.253906 158.421875 38.316406 158.167969 C 38.378906 157.914062 38.46875 157.671875 38.578125 157.433594 C 38.6875 157.199219 38.820312 156.976562 38.976562 156.765625 C 39.132812 156.558594 39.304688 156.363281 39.496094 156.1875 C 39.691406 156.015625 39.898438 155.859375 40.121094 155.726562 C 40.34375 155.589844 40.578125 155.480469 40.824219 155.390625 C 41.066406 155.304688 41.320312 155.238281 41.578125 155.203125 C 41.832031 155.164062 42.09375 155.148438 42.351562 155.164062 C 42.875 155.195312 43.371094 155.328125 43.847656 155.554688 C 44.320312 155.78125 44.734375 156.085938 45.089844 156.472656 C 45.445312 156.859375 45.714844 157.296875 45.902344 157.789062 C 46.085938 158.28125 46.175781 158.789062 46.167969 159.316406 C 46.105469 159.832031 45.953125 160.324219 45.714844 160.789062 C 45.476562 161.253906 45.167969 161.664062 44.78125 162.019531 C 44.398438 162.371094 43.964844 162.648438 43.480469 162.84375 C 43 163.042969 42.496094 163.148438 41.976562 163.167969 C 41.457031 163.113281 40.960938 162.96875 40.496094 162.730469 C 40.03125 162.492188 39.621094 162.175781 39.273438 161.785156 C 38.925781 161.394531 38.65625 160.953125 38.472656 160.460938 C 38.289062 159.972656 38.199219 159.464844 38.203125 158.9375 Z M 38.203125 158.9375 " clip-rule="nonzero"/></clipPath><clipPath id="5b6398e4e7"><path d="M 222 113 L 231 113 L 231 122 L 222 122 Z M 222 113 " clip-rule="nonzero"/></clipPath><clipPath id="2a5ccf3897"><path d="M 230.875 117.164062 C 230.863281 117.707031 230.75 118.226562 230.542969 118.726562 C 230.335938 119.222656 230.046875 119.667969 229.671875 120.058594 C 229.300781 120.449219 228.867188 120.757812 228.378906 120.984375 C 227.890625 121.210938 227.375 121.34375 226.835938 121.375 C 226.335938 121.339844 225.855469 121.21875 225.394531 121.011719 C 224.9375 120.804688 224.527344 120.523438 224.171875 120.167969 C 223.8125 119.8125 223.527344 119.40625 223.316406 118.949219 C 223.101562 118.492188 222.976562 118.011719 222.9375 117.507812 C 222.925781 117.246094 222.941406 116.984375 222.980469 116.726562 C 223.023438 116.46875 223.089844 116.21875 223.179688 115.972656 C 223.269531 115.726562 223.382812 115.492188 223.515625 115.269531 C 223.652344 115.046875 223.808594 114.839844 223.988281 114.648438 C 224.164062 114.457031 224.355469 114.285156 224.566406 114.128906 C 224.777344 113.976562 225.003906 113.84375 225.238281 113.734375 C 225.476562 113.625 225.71875 113.539062 225.972656 113.476562 C 226.226562 113.417969 226.484375 113.378906 226.742188 113.371094 C 227.003906 113.359375 227.261719 113.375 227.519531 113.414062 C 227.777344 113.457031 228.027344 113.519531 228.273438 113.609375 C 228.519531 113.699219 228.75 113.8125 228.972656 113.949219 C 229.195312 114.085938 229.402344 114.242188 229.59375 114.417969 C 229.789062 114.597656 229.960938 114.789062 230.113281 115 C 230.265625 115.210938 230.398438 115.4375 230.507812 115.671875 C 230.617188 115.910156 230.703125 116.15625 230.765625 116.410156 C 230.828125 116.664062 230.863281 116.921875 230.875 117.183594 Z M 230.875 117.164062 " clip-rule="nonzero"/></clipPath><linearGradient x1="227.00728" gradientTransform="matrix(0.851811, 0, 0, 0.854271, 38.203518, 109.818177)" y1="5.519825" x2="215.990404" gradientUnits="userSpaceOnUse" y2="12.070875" id="11ac307686"><stop stop-opacity="1" stop-color="rgb(53.877258%, 40.560913%, 88.444519%)" offset="0"/><stop stop-opacity="1" stop-color="rgb(53.75061%, 40.467834%, 88.383484%)" offset="0.125"/><stop stop-opacity="1" stop-color="rgb(53.49884%, 40.281677%, 88.262939%)" offset="0.25"/><stop stop-opacity="1" stop-color="rgb(53.248596%, 40.09552%, 88.140869%)" offset="0.374214"/><stop stop-opacity="1" stop-color="rgb(53.123474%, 40.002441%, 88.08136%)" offset="0.375"/><stop stop-opacity="1" stop-color="rgb(52.996826%, 39.909363%, 88.020325%)" offset="0.5"/><stop stop-opacity="1" stop-color="rgb(52.745056%, 39.72168%, 87.898254%)" offset="0.625"/><stop stop-opacity="1" stop-color="rgb(52.493286%, 39.535522%, 87.77771%)" offset="0.625786"/><stop stop-opacity="1" stop-color="rgb(52.368164%, 39.442444%, 87.716675%)" offset="0.75"/><stop stop-opacity="1" stop-color="rgb(52.241516%, 39.349365%, 87.65564%)" offset="0.875"/><stop stop-opacity="1" stop-color="rgb(51.991272%, 39.163208%, 87.535095%)" offset="1"/></linearGradient><clipPath id="60ed72fbd9"><path d="M 38 113 L 47 113 L 47 122 L 38 122 Z M 38 113 " clip-rule="nonzero"/></clipPath><clipPath id="e9472250f3"><path d="M 46.160156 117.164062 C 46.144531 117.707031 46.035156 118.226562 45.828125 118.726562 C 45.617188 119.226562 45.328125 119.667969 44.953125 120.058594 C 44.578125 120.449219 44.144531 120.757812 43.65625 120.984375 C 43.167969 121.210938 42.652344 121.34375 42.113281 121.375 C 41.609375 121.34375 41.128906 121.222656 40.667969 121.015625 C 40.207031 120.808594 39.796875 120.527344 39.4375 120.171875 C 39.078125 119.816406 38.792969 119.410156 38.582031 118.953125 C 38.367188 118.492188 38.242188 118.011719 38.203125 117.507812 C 38.191406 117.246094 38.207031 116.984375 38.25 116.726562 C 38.289062 116.46875 38.355469 116.21875 38.449219 115.972656 C 38.539062 115.726562 38.652344 115.496094 38.789062 115.273438 C 38.925781 115.050781 39.082031 114.84375 39.261719 114.652344 C 39.4375 114.460938 39.632812 114.289062 39.847656 114.136719 C 40.058594 113.984375 40.28125 113.855469 40.519531 113.746094 C 40.757812 113.640625 41.003906 113.554688 41.257812 113.496094 C 41.511719 113.4375 41.769531 113.40625 42.027344 113.398438 C 42.289062 113.382812 42.546875 113.394531 42.804688 113.433594 C 43.058594 113.46875 43.3125 113.53125 43.554688 113.617188 C 43.800781 113.707031 44.035156 113.816406 44.257812 113.949219 C 44.480469 114.082031 44.6875 114.238281 44.878906 114.414062 C 45.074219 114.589844 45.246094 114.78125 45.398438 114.992188 C 45.554688 115.203125 45.6875 115.425781 45.796875 115.660156 C 45.90625 115.898438 45.992188 116.140625 46.050781 116.394531 C 46.113281 116.648438 46.148438 116.90625 46.160156 117.164062 Z M 46.160156 117.164062 " clip-rule="nonzero"/></clipPath><clipPath id="4a850235c8"><path d="M 328 113 L 337 113 L 337 122 L 328 122 Z M 328 113 " clip-rule="nonzero"/></clipPath><clipPath id="34dbed4a28"><path d="M 332.785156 113.390625 C 333.046875 113.390625 333.300781 113.421875 333.554688 113.476562 C 333.808594 113.53125 334.058594 113.609375 334.296875 113.714844 C 334.535156 113.816406 334.757812 113.941406 334.972656 114.09375 C 335.1875 114.242188 335.382812 114.410156 335.5625 114.597656 C 335.742188 114.785156 335.902344 114.988281 336.042969 115.210938 C 336.179688 115.429688 336.296875 115.660156 336.390625 115.902344 C 336.484375 116.148438 336.554688 116.398438 336.597656 116.652344 C 336.640625 116.910156 336.660156 117.167969 336.652344 117.429688 C 336.644531 117.691406 336.613281 117.953125 336.554688 118.207031 C 336.496094 118.464844 336.414062 118.714844 336.308594 118.953125 C 336.203125 119.191406 336.074219 119.421875 335.921875 119.636719 C 335.769531 119.851562 335.597656 120.046875 335.410156 120.226562 C 335.21875 120.410156 335.011719 120.570312 334.789062 120.710938 C 334.570312 120.851562 334.335938 120.96875 334.089844 121.0625 C 333.847656 121.15625 333.59375 121.226562 333.335938 121.269531 C 333.078125 121.3125 332.816406 121.332031 332.554688 121.324219 C 332.292969 121.316406 332.035156 121.285156 331.777344 121.226562 C 331.523438 121.167969 331.277344 121.085938 331.035156 120.980469 C 330.796875 120.871094 330.570312 120.742188 330.355469 120.589844 C 330.140625 120.441406 329.945312 120.269531 329.765625 120.078125 C 329.585938 119.886719 329.425781 119.679688 329.285156 119.457031 C 329.144531 119.234375 329.027344 119 328.933594 118.757812 C 328.839844 118.511719 328.769531 118.257812 328.726562 118 C 328.683594 117.738281 328.664062 117.480469 328.671875 117.214844 C 328.679688 116.953125 328.710938 116.695312 328.769531 116.441406 C 328.828125 116.183594 328.910156 115.9375 329.019531 115.699219 C 329.125 115.460938 329.257812 115.234375 329.410156 115.023438 C 329.5625 114.808594 329.734375 114.613281 329.925781 114.433594 C 330.117188 114.257812 330.324219 114.097656 330.546875 113.960938 C 330.769531 113.824219 331.003906 113.710938 331.25 113.621094 C 331.496094 113.535156 331.75 113.46875 332.007812 113.429688 C 332.265625 113.390625 332.523438 113.375 332.785156 113.390625 Z M 332.785156 113.390625 " clip-rule="nonzero"/></clipPath></defs><g clip-path="url(#12ba42b5fd)"><g clip-path="url(#fc2785c089)"><path fill="url(#e611a7208b)" d="M 69.761719 109.921875 L 69.761719 145.839844 L 106.683594 145.839844 L 106.683594 109.921875 Z M 69.761719 109.921875 " fill-rule="nonzero"/></g></g><g clip-path="url(#36eef3cb7f)"><g clip-path="url(#e03b12a28b)"><path fill="url(#269303676a)" d="M 276.003906 127.929688 L 276.003906 186.316406 L 337.386719 186.316406 L 337.386719 127.929688 Z M 276.003906 127.929688 " fill-rule="nonzero"/></g></g><g clip-path="url(#13884843a2)"><g clip-path="url(#ef4856c5d4)"><path fill="#9973e9" d="M 299.238281 110 L 299.238281 124.949219 L 313.917969 124.949219 L 313.917969 110 Z M 299.238281 110 " fill-opacity="1" fill-rule="nonzero"/></g></g><g clip-path="url(#448be124d1)"><g clip-path="url(#59a61a5eae)"><path fill="url(#38cf980d5f)" d="M 236.246094 128.859375 L 236.246094 165.859375 L 272.101562 165.859375 L 272.101562 128.859375 Z M 236.246094 128.859375 " fill-rule="nonzero"/></g></g><g clip-path="url(#9fd69aa31f)"><g clip-path="url(#2daa8b10dc)"><path fill="url(#dbfbeecf11)" d="M 201.292969 171.496094 L 201.292969 186.304688 L 216.113281 186.304688 L 216.113281 171.496094 Z M 201.292969 171.496094 " fill-rule="nonzero"/></g></g><g clip-path="url(#19aa997e3b)"><g clip-path="url(#78a6abb129)"><path fill="url(#415e44d440)" d="M 237.4375 171.472656 L 237.4375 186.316406 L 252.417969 186.316406 L 252.417969 171.472656 Z M 237.4375 171.472656 " fill-rule="nonzero"/></g></g><g clip-path="url(#9970386619)"><g clip-path="url(#bf2bf1ecc9)"><path fill="url(#bfcbe49ff3)" d="M 255.871094 110.113281 L 255.871094 124.78125 L 270.578125 124.78125 L 270.578125 110.113281 Z M 255.871094 110.113281 " fill-rule="nonzero"/></g></g><g clip-path="url(#d09b126a4e)"><g clip-path="url(#f540207f90)"><path fill="url(#c78ddfdeed)" d="M 219.980469 151.800781 L 219.980469 166.546875 L 234.675781 166.546875 L 234.675781 151.800781 Z M 219.980469 151.800781 " fill-rule="nonzero"/></g></g><g clip-path="url(#64483ff832)"><g clip-path="url(#070735414b)"><path fill="url(#fd3ffe94d5)" d="M 201.667969 131.832031 L 201.667969 144.222656 L 213.949219 144.222656 L 213.949219 131.832031 Z M 201.667969 131.832031 " fill-rule="nonzero"/></g></g><g clip-path="url(#20ee813489)"><g clip-path="url(#4143130077)"><path fill="url(#8b39ea0ebf)" d="M 183.007812 152.992188 L 183.007812 165.367188 L 195.386719 165.367188 L 195.386719 152.992188 Z M 183.007812 152.992188 " fill-rule="nonzero"/></g></g><g clip-path="url(#c31d04a8b8)"><g clip-path="url(#2ee13314fd)"><path fill="url(#82db575631)" d="M 184.765625 113.378906 L 184.765625 121.324219 L 192.738281 121.324219 L 192.738281 113.378906 Z M 184.765625 113.378906 " fill-rule="nonzero"/></g></g><g clip-path="url(#b2937952db)"><g clip-path="url(#518a892752)"><path fill="#503dc6" d="M 38.191406 155.179688 L 38.191406 163.210938 L 46.175781 163.210938 L 46.175781 155.179688 Z M 38.191406 155.179688 " fill-opacity="1" fill-rule="nonzero"/></g></g><g clip-path="url(#5445fc543d)"><g clip-path="url(#967383fde2)"><path fill="url(#2191ed68d8)" d="M 124.5625 149.703125 L 124.5625 185.78125 L 161.207031 185.78125 L 161.207031 149.703125 Z M 124.5625 149.703125 " fill-rule="nonzero"/></g></g><g clip-path="url(#7a23ca1206)"><g clip-path="url(#db5829cfd8)"><path fill="#503dc6" d="M 66.058594 149.703125 L 66.058594 185.78125 L 102.695312 185.78125 L 102.695312 149.703125 Z M 66.058594 149.703125 " fill-opacity="1" fill-rule="nonzero"/></g></g><g clip-path="url(#e72fb7252d)"><g clip-path="url(#9017cdd721)"><path fill="url(#2be6d3c31b)" d="M 142.679688 109.816406 L 142.679688 145.84375 L 178.703125 145.84375 L 178.703125 109.816406 Z M 142.679688 109.816406 " fill-rule="nonzero"/></g></g><g clip-path="url(#90e8953c64)"><g clip-path="url(#d2a01bf97c)"><path fill="url(#2795ac7149)" d="M 105.351562 109.921875 L 105.351562 145.839844 L 142.238281 145.839844 L 142.238281 109.921875 Z M 105.351562 109.921875 " fill-rule="nonzero"/></g></g><g clip-path="url(#8512390eaf)"><g clip-path="url(#0f84f4ff32)"><path fill="#503dc6" d="M 51.746094 130.925781 L 51.746094 145.761719 L 66.738281 145.761719 L 66.738281 130.925781 Z M 51.746094 130.925781 " fill-opacity="1" fill-rule="nonzero"/></g></g><g clip-path="url(#6937225313)"><g clip-path="url(#1e51d6b34d)"><path fill="url(#90bb8aec96)" d="M 105.714844 151.777344 L 105.714844 166.554688 L 120.445312 166.554688 L 120.445312 151.777344 Z M 105.714844 151.777344 " fill-rule="nonzero"/></g></g><g clip-path="url(#49a9dc336f)"><g clip-path="url(#7fe240029c)"><path fill="url(#01053537c9)" d="M 163.570312 172.6875 L 163.570312 184.957031 L 175.808594 184.957031 L 175.808594 172.6875 Z M 163.570312 172.6875 " fill-rule="nonzero"/></g></g><g clip-path="url(#8d3ac5512e)"><g clip-path="url(#7ae56d92ec)"><path fill="#503dc6" d="M 54.207031 172.746094 L 54.207031 185.058594 L 66.484375 185.058594 L 66.484375 172.746094 Z M 54.207031 172.746094 " fill-opacity="1" fill-rule="nonzero"/></g></g><g clip-path="url(#0e08b4a216)"><g clip-path="url(#6d58571e10)"><path fill="#503dc6" d="M 38.199219 155.148438 L 38.199219 163.167969 L 46.175781 163.167969 L 46.175781 155.148438 Z M 38.199219 155.148438 " fill-opacity="1" fill-rule="nonzero"/></g></g><g clip-path="url(#5b6398e4e7)"><g clip-path="url(#2a5ccf3897)"><path fill="url(#11ac307686)" d="M 222.925781 113.359375 L 222.925781 121.375 L 230.875 121.375 L 230.875 113.359375 Z M 222.925781 113.359375 " fill-rule="nonzero"/></g></g><g clip-path="url(#60ed72fbd9)"><g clip-path="url(#e9472250f3)"><path fill="#503dc6" d="M 38.191406 113.382812 L 38.191406 121.375 L 46.160156 121.375 L 46.160156 113.382812 Z M 38.191406 113.382812 " fill-opacity="1" fill-rule="nonzero"/></g></g><g clip-path="url(#4a850235c8)"><g clip-path="url(#34dbed4a28)"><path fill="#9973e9" d="M 328.664062 113.375 L 328.664062 121.332031 L 336.660156 121.332031 L 336.660156 113.375 Z M 328.664062 113.375 " fill-opacity="1" fill-rule="nonzero"/></g></g><g fill="#503dc6" fill-opacity="1"><g transform="translate(44.055798, 252.972271)"><g><path d="M 19.09375 -13.742188 L 19.09375 -31.453125 L 3.96875 -31.453125 L 3.96875 -24.449219 L 11.511719 -24.449219 L 11.511719 -13.742188 C 11.511719 -8.921875 9.054688 -7.136719 0.804688 -7.136719 L 0.804688 0 C 14.097656 0 19.09375 -3.792969 19.09375 -13.742188 Z M 19.09375 -13.742188 "/></g></g></g><g fill="#503dc6" fill-opacity="1"><g transform="translate(65.469082, 252.972271)"><g><path d="M 25.921875 -31.585938 L 1.472656 -31.585938 L 1.472656 -24.449219 L 9.902344 -24.449219 L 9.902344 0 L 17.53125 0 L 17.53125 -24.449219 L 25.921875 -24.449219 Z M 25.921875 -31.585938 "/></g></g></g><g fill="#503dc6" fill-opacity="1"><g transform="translate(93.440189, 252.972271)"><g><path d="M 22.441406 -24.226562 L 22.441406 -31.496094 L 2.230469 -31.496094 L 2.230469 0 L 9.816406 0 L 9.816406 -11.289062 L 21.726562 -11.289062 L 21.726562 -18.378906 L 9.816406 -18.378906 L 9.816406 -24.226562 Z M 22.441406 -24.226562 "/></g></g></g><g fill="#503dc6" fill-opacity="1"><g transform="translate(117.842416, 252.972271)"><g/></g></g><g fill="#503dc6" fill-opacity="1"><g transform="translate(129.039785, 252.972271)"><g><path d="M 2.230469 -31.496094 L 2.230469 0 L 22.84375 0 L 22.84375 -7.359375 L 9.902344 -7.359375 L 9.902344 -12.359375 L 22.53125 -12.359375 L 22.53125 -19.765625 L 9.902344 -19.765625 L 9.902344 -24.136719 L 22.796875 -24.136719 L 22.796875 -31.496094 Z M 2.230469 -31.496094 "/></g></g></g><g fill="#503dc6" fill-opacity="1"><g transform="translate(153.932723, 252.972271)"><g><path d="M 0.757812 -31.230469 L 0.757812 -29.800781 L 12.757812 0.0898438 L 18.292969 0.0898438 L 30.335938 -30.113281 L 30.335938 -31.230469 L 22.574219 -31.230469 L 17.398438 -18.203125 L 15.570312 -12.179688 L 13.742188 -18.203125 L 8.566406 -31.230469 Z M 0.757812 -31.230469 "/></g></g></g><g fill="#503dc6" fill-opacity="1"><g transform="translate(184.402047, 252.972271)"><g><path d="M 2.230469 -31.496094 L 2.230469 0 L 22.84375 0 L 22.84375 -7.359375 L 9.902344 -7.359375 L 9.902344 -12.359375 L 22.53125 -12.359375 L 22.53125 -19.765625 L 9.902344 -19.765625 L 9.902344 -24.136719 L 22.796875 -24.136719 L 22.796875 -31.496094 Z M 2.230469 -31.496094 "/></g></g></g><g fill="#503dc6" fill-opacity="1"><g transform="translate(209.294986, 252.972271)"><g><path d="M 18.917969 -31.230469 L 18.917969 -15.613281 L 8.121094 -31.230469 L 2.230469 -31.230469 L 2.230469 0 L 9.816406 0 L 9.816406 -15.214844 L 20.476562 0 L 26.457031 0 L 26.457031 -31.230469 Z M 18.917969 -31.230469 "/></g></g></g><g fill="#503dc6" fill-opacity="1"><g transform="translate(238.113693, 252.972271)"><g><path d="M 25.921875 -31.585938 L 1.472656 -31.585938 L 1.472656 -24.449219 L 9.902344 -24.449219 L 9.902344 0 L 17.53125 0 L 17.53125 -24.449219 L 25.921875 -24.449219 Z M 25.921875 -31.585938 "/></g></g></g><g fill="#503dc6" fill-opacity="1"><g transform="translate(266.084801, 252.972271)"><g><path d="M 2.273438 -15.570312 C 2.273438 -6.378906 9.503906 0.445312 18.425781 0.445312 C 27.347656 0.445312 34.621094 -6.511719 34.621094 -15.570312 C 34.621094 -24.761719 27.347656 -31.71875 18.425781 -31.71875 C 9.503906 -31.71875 2.273438 -24.761719 2.273438 -15.570312 Z M 9.859375 -15.570312 C 9.859375 -21.503906 14.140625 -24.402344 18.425781 -24.402344 C 22.707031 -24.402344 26.945312 -21.460938 26.945312 -15.570312 C 26.945312 -9.726562 22.617188 -6.78125 18.335938 -6.78125 C 14.054688 -6.78125 9.859375 -9.679688 9.859375 -15.570312 Z M 9.859375 -15.570312 "/></g></g></g><g fill="#503dc6" fill-opacity="1"><g transform="translate(302.97811, 252.972271)"><g><path d="M 17.710938 -21.371094 L 25.386719 -21.371094 C 25.386719 -28.550781 19.363281 -31.675781 13.785156 -31.675781 C 7.136719 -31.675781 1.515625 -27.570312 1.875 -20.699219 L 1.875 -20.746094 C 2.453125 -13.5625 8.433594 -12.445312 13.472656 -11.957031 C 14.632812 -11.824219 18.203125 -11.734375 18.203125 -9.503906 C 18.203125 -7.71875 16.195312 -7.003906 13.695312 -7.003906 C 11.957031 -7.003906 9.367188 -7.585938 9.367188 -10.664062 L 1.652344 -10.664062 C 1.652344 -2.722656 8.566406 0.402344 13.652344 0.402344 C 19.585938 0.402344 25.921875 -3.347656 25.921875 -9.859375 C 25.921875 -10.527344 25.832031 -11.332031 25.699219 -12.046875 C 24.359375 -17.667969 18.78125 -18.828125 14.367188 -19.40625 C 13.339844 -19.496094 9.636719 -19.539062 9.636719 -21.859375 C 9.636719 -23.554688 11.289062 -24.582031 13.652344 -24.582031 C 16.015625 -24.582031 17.710938 -23.464844 17.710938 -21.371094 Z M 17.710938 -21.371094 "/></g></g></g></svg>