<svg xmlns="http://www.w3.org/2000/svg" xmlns:xlink="http://www.w3.org/1999/xlink" width="500" zoomAndPan="magnify" viewBox="0 0 375 374.999991" height="500" preserveAspectRatio="xMidYMid meet" version="1.0"><defs><clipPath id="9dd1012f8f"><path d="M 70 149.355469 L 107 149.355469 L 107 186 L 70 186 Z M 70 149.355469 " clip-rule="nonzero"/></clipPath><clipPath id="0b9515995d"><path d="M 97.773438 185.339844 C 96.683594 185.378906 95.632812 185.195312 94.617188 184.796875 C 93.605469 184.398438 92.710938 183.8125 91.9375 183.042969 C 85.660156 176.777344 79.339844 170.558594 73.15625 164.246094 C 69.835938 160.828125 70.125 155.601562 73.566406 152.054688 C 73.953125 151.660156 74.378906 151.304688 74.835938 150.988281 C 75.292969 150.671875 75.777344 150.40625 76.289062 150.183594 C 76.796875 149.964844 77.324219 149.792969 77.867188 149.671875 C 78.410156 149.554688 78.957031 149.488281 79.511719 149.476562 C 80.070312 149.460938 80.621094 149.503906 81.167969 149.597656 C 81.714844 149.691406 82.25 149.835938 82.769531 150.03125 C 83.289062 150.230469 83.785156 150.472656 84.253906 150.769531 C 84.726562 151.0625 85.167969 151.394531 85.574219 151.773438 C 90.472656 156.421875 95.183594 161.316406 99.980469 166.101562 C 101.402344 167.527344 102.882812 168.902344 104.238281 170.371094 C 104.847656 170.988281 105.351562 171.679688 105.75 172.453125 C 106.152344 173.222656 106.425781 174.035156 106.578125 174.890625 C 106.730469 175.742188 106.753906 176.601562 106.644531 177.464844 C 106.535156 178.324219 106.300781 179.148438 105.941406 179.941406 C 104.511719 183.527344 101.675781 185.320312 97.773438 185.339844 Z M 97.773438 185.339844 " clip-rule="nonzero"/></clipPath><linearGradient x1="84.137773" gradientTransform="matrix(0.851785, 0, 0, 0.854271, 38.275799, 149.357126)" y1="6.42249" x2="33.647768" gradientUnits="userSpaceOnUse" y2="36.442529" id="e95962c21b"><stop stop-opacity="1" stop-color="rgb(34.533691%, 26.222229%, 79.112244%)" offset="0"/><stop stop-opacity="1" stop-color="rgb(34.388733%, 26.115417%, 79.042053%)" offset="0.03125"/><stop stop-opacity="1" stop-color="rgb(34.100342%, 25.901794%, 78.903198%)" offset="0.0625"/><stop stop-opacity="1" stop-color="rgb(33.813477%, 25.688171%, 78.762817%)" offset="0.09375"/><stop stop-opacity="1" stop-color="rgb(33.525085%, 25.474548%, 78.623962%)" offset="0.125"/><stop stop-opacity="1" stop-color="rgb(33.236694%, 25.260925%, 78.485107%)" offset="0.15625"/><stop stop-opacity="1" stop-color="rgb(32.948303%, 25.048828%, 78.346252%)" offset="0.1875"/><stop stop-opacity="1" stop-color="rgb(32.659912%, 24.835205%, 78.207397%)" offset="0.21875"/><stop stop-opacity="1" stop-color="rgb(32.373047%, 24.621582%, 78.068542%)" offset="0.25"/><stop stop-opacity="1" stop-color="rgb(32.084656%, 24.407959%, 77.929688%)" offset="0.28125"/><stop stop-opacity="1" stop-color="rgb(31.796265%, 24.194336%, 77.790833%)" offset="0.3125"/><stop stop-opacity="1" stop-color="rgb(31.526184%, 23.99292%, 77.659607%)" offset="0.365778"/><stop stop-opacity="1" stop-color="rgb(31.399536%, 23.899841%, 77.598572%)" offset="0.375"/><stop stop-opacity="1" stop-color="rgb(31.399536%, 23.899841%, 77.598572%)" offset="0.5"/><stop stop-opacity="1" stop-color="rgb(31.399536%, 23.899841%, 77.598572%)" offset="0.634222"/><stop stop-opacity="1" stop-color="rgb(31.399536%, 23.899841%, 77.598572%)" offset="1"/></linearGradient><clipPath id="31edcdd557"><path d="M 278 168 L 335 168 L 335 225 L 278 225 Z M 278 168 " clip-rule="nonzero"/></clipPath><clipPath id="32201eb22e"><path d="M 306.527344 182.46875 C 302.753906 178.625 299.253906 175.011719 295.703125 171.449219 C 292.789062 168.527344 289.21875 167.46875 285.351562 168.816406 C 278.054688 171.378906 276.070312 179.855469 281.382812 185.511719 C 284.511719 188.839844 287.789062 192.035156 291.078125 195.214844 C 292.148438 196.257812 292.175781 196.871094 291.078125 197.949219 C 287.804688 201.050781 284.644531 204.269531 281.511719 207.507812 C 281.101562 207.90625 280.726562 208.335938 280.390625 208.800781 C 280.050781 209.261719 279.753906 209.75 279.5 210.261719 C 279.246094 210.777344 279.035156 211.308594 278.871094 211.855469 C 278.707031 212.40625 278.589844 212.964844 278.519531 213.535156 C 278.449219 214.101562 278.429688 214.671875 278.453125 215.246094 C 278.480469 215.816406 278.554688 216.382812 278.679688 216.945312 C 278.800781 217.503906 278.972656 218.050781 279.1875 218.582031 C 279.402344 219.113281 279.660156 219.621094 279.960938 220.109375 C 283.480469 225.515625 290.335938 226.582031 295.113281 222.253906 C 298.605469 219.089844 301.851562 215.65625 305.121094 212.265625 C 306.222656 211.128906 306.953125 211.09375 308.070312 212.265625 C 311.179688 215.519531 314.355469 218.722656 317.609375 221.832031 C 320.164062 224.285156 323.265625 225.53125 326.835938 224.628906 C 334.816406 222.59375 337.449219 213.753906 331.835938 207.710938 C 328.8125 204.464844 325.675781 201.3125 322.464844 198.316406 C 320.921875 196.878906 321.273438 196.050781 322.585938 194.777344 C 325.992188 191.507812 329.398438 188.234375 332.5 184.714844 C 335.308594 181.5625 335.675781 177.753906 333.8125 173.976562 C 331.867188 170.054688 328.546875 168.21875 324.136719 168.382812 C 320.726562 168.5 318.4375 170.484375 316.230469 172.722656 C 313.0625 175.839844 309.933594 179.015625 306.527344 182.46875 Z M 306.527344 182.46875 " clip-rule="nonzero"/></clipPath><linearGradient x1="356.730418" gradientTransform="matrix(0.851785, 0, 0, 0.854271, 38.275799, 149.357126)" y1="30.450489" x2="273.467449" gradientUnits="userSpaceOnUse" y2="79.959637" id="8bb39f0bcc"><stop stop-opacity="1" stop-color="rgb(59.999084%, 45.098877%, 91.398621%)" offset="0"/><stop stop-opacity="1" stop-color="rgb(59.999084%, 45.098877%, 91.398621%)" offset="0.360613"/><stop stop-opacity="1" stop-color="rgb(59.999084%, 45.098877%, 91.398621%)" offset="0.5"/><stop stop-opacity="1" stop-color="rgb(59.936523%, 45.053101%, 91.368103%)" offset="0.625"/><stop stop-opacity="1" stop-color="rgb(59.75647%, 44.918823%, 91.281128%)" offset="0.639387"/><stop stop-opacity="1" stop-color="rgb(59.637451%, 44.831848%, 91.22467%)" offset="0.640625"/><stop stop-opacity="1" stop-color="rgb(59.518433%, 44.743347%, 91.166687%)" offset="0.65625"/><stop stop-opacity="1" stop-color="rgb(59.281921%, 44.566345%, 91.052246%)" offset="0.671875"/><stop stop-opacity="1" stop-color="rgb(59.043884%, 44.390869%, 90.937805%)" offset="0.6875"/><stop stop-opacity="1" stop-color="rgb(58.805847%, 44.213867%, 90.823364%)" offset="0.703125"/><stop stop-opacity="1" stop-color="rgb(58.56781%, 44.038391%, 90.708923%)" offset="0.71875"/><stop stop-opacity="1" stop-color="rgb(58.331299%, 43.862915%, 90.594482%)" offset="0.734375"/><stop stop-opacity="1" stop-color="rgb(58.093262%, 43.685913%, 90.478516%)" offset="0.75"/><stop stop-opacity="1" stop-color="rgb(57.855225%, 43.510437%, 90.364075%)" offset="0.765625"/><stop stop-opacity="1" stop-color="rgb(57.618713%, 43.333435%, 90.249634%)" offset="0.78125"/><stop stop-opacity="1" stop-color="rgb(57.380676%, 43.157959%, 90.135193%)" offset="0.796875"/><stop stop-opacity="1" stop-color="rgb(57.142639%, 42.982483%, 90.020752%)" offset="0.8125"/><stop stop-opacity="1" stop-color="rgb(56.906128%, 42.805481%, 89.906311%)" offset="0.828125"/><stop stop-opacity="1" stop-color="rgb(56.668091%, 42.630005%, 89.79187%)" offset="0.84375"/><stop stop-opacity="1" stop-color="rgb(56.430054%, 42.453003%, 89.677429%)" offset="0.859375"/><stop stop-opacity="1" stop-color="rgb(56.193542%, 42.277527%, 89.561462%)" offset="0.875"/><stop stop-opacity="1" stop-color="rgb(55.955505%, 42.102051%, 89.447021%)" offset="0.890625"/><stop stop-opacity="1" stop-color="rgb(55.717468%, 41.925049%, 89.332581%)" offset="0.90625"/><stop stop-opacity="1" stop-color="rgb(55.480957%, 41.749573%, 89.21814%)" offset="0.921875"/><stop stop-opacity="1" stop-color="rgb(55.24292%, 41.574097%, 89.103699%)" offset="0.9375"/><stop stop-opacity="1" stop-color="rgb(55.004883%, 41.397095%, 88.989258%)" offset="0.953125"/><stop stop-opacity="1" stop-color="rgb(54.768372%, 41.221619%, 88.874817%)" offset="0.96875"/><stop stop-opacity="1" stop-color="rgb(54.530334%, 41.044617%, 88.760376%)" offset="0.984375"/><stop stop-opacity="1" stop-color="rgb(54.292297%, 40.869141%, 88.645935%)" offset="1"/></linearGradient><clipPath id="563ea27233"><path d="M 299 149.355469 L 314 149.355469 L 314 165 L 299 165 Z M 299 149.355469 " clip-rule="nonzero"/></clipPath><clipPath id="10f374ada7"><path d="M 313.964844 156.976562 C 313.984375 156.496094 313.953125 156.019531 313.875 155.542969 C 313.800781 155.070312 313.675781 154.605469 313.503906 154.15625 C 313.332031 153.707031 313.121094 153.277344 312.863281 152.871094 C 312.605469 152.464844 312.308594 152.089844 311.976562 151.742188 C 311.644531 151.398438 311.28125 151.089844 310.882812 150.816406 C 310.488281 150.542969 310.070312 150.3125 309.628906 150.125 C 309.1875 149.9375 308.730469 149.796875 308.261719 149.703125 C 307.789062 149.605469 307.316406 149.5625 306.835938 149.5625 C 306.347656 149.539062 305.863281 149.566406 305.378906 149.644531 C 304.898438 149.722656 304.429688 149.847656 303.972656 150.019531 C 303.515625 150.191406 303.082031 150.410156 302.667969 150.671875 C 302.257812 150.933594 301.875 151.234375 301.523438 151.574219 C 301.171875 151.914062 300.855469 152.285156 300.582031 152.6875 C 300.304688 153.09375 300.074219 153.519531 299.882812 153.972656 C 299.695312 154.421875 299.550781 154.886719 299.457031 155.367188 C 299.363281 155.847656 299.316406 156.332031 299.324219 156.824219 C 299.300781 157.316406 299.328125 157.804688 299.40625 158.289062 C 299.484375 158.777344 299.609375 159.25 299.78125 159.710938 C 299.953125 160.171875 300.167969 160.613281 300.429688 161.03125 C 300.6875 161.449219 300.988281 161.835938 301.324219 162.191406 C 301.664062 162.550781 302.03125 162.871094 302.433594 163.152344 C 302.835938 163.4375 303.261719 163.675781 303.710938 163.871094 C 304.164062 164.070312 304.628906 164.21875 305.109375 164.324219 C 305.585938 164.425781 306.074219 164.480469 306.5625 164.484375 C 307.054688 164.488281 307.542969 164.445312 308.023438 164.351562 C 308.507812 164.261719 308.972656 164.121094 309.429688 163.933594 C 309.882812 163.746094 310.3125 163.515625 310.722656 163.238281 C 311.128906 162.964844 311.503906 162.652344 311.851562 162.304688 C 312.195312 161.953125 312.503906 161.570312 312.769531 161.160156 C 313.039062 160.746094 313.265625 160.3125 313.445312 159.855469 C 313.628906 159.398438 313.761719 158.925781 313.851562 158.441406 C 313.9375 157.957031 313.976562 157.46875 313.964844 156.976562 Z M 313.964844 156.976562 " clip-rule="nonzero"/></clipPath><clipPath id="121b46d7c6"><path d="M 236 169 L 273 169 L 273 206 L 236 206 Z M 236 169 " clip-rule="nonzero"/></clipPath><clipPath id="8728282af1"><path d="M 272.167969 196.734375 C 272.140625 197.566406 271.996094 198.378906 271.742188 199.167969 C 271.484375 199.960938 271.125 200.699219 270.660156 201.390625 C 270.195312 202.078125 269.648438 202.691406 269.011719 203.226562 C 268.375 203.761719 267.679688 204.195312 266.921875 204.535156 C 266.125 204.914062 265.289062 205.160156 264.414062 205.277344 C 263.542969 205.398438 262.671875 205.378906 261.804688 205.226562 C 260.933594 205.074219 260.109375 204.792969 259.328125 204.382812 C 258.546875 203.972656 257.847656 203.453125 257.226562 202.824219 C 251.117188 196.765625 245.039062 190.675781 239 184.554688 C 238.574219 184.144531 238.195312 183.695312 237.859375 183.207031 C 237.523438 182.71875 237.242188 182.203125 237.011719 181.660156 C 236.78125 181.117188 236.605469 180.554688 236.488281 179.976562 C 236.371094 179.394531 236.3125 178.808594 236.3125 178.21875 C 236.3125 177.628906 236.371094 177.042969 236.488281 176.460938 C 236.605469 175.882812 236.78125 175.320312 237.011719 174.777344 C 237.242188 174.230469 237.523438 173.71875 237.859375 173.230469 C 238.195312 172.742188 238.574219 172.292969 239 171.882812 C 242.484375 168.398438 248.011719 168.527344 251.640625 172.167969 C 257.378906 177.925781 263.128906 183.683594 268.886719 189.441406 C 269.925781 190.367188 270.730469 191.464844 271.300781 192.738281 C 271.871094 194.007812 272.160156 195.339844 272.167969 196.734375 Z M 272.167969 196.734375 " clip-rule="nonzero"/></clipPath><linearGradient x1="278.807941" gradientTransform="matrix(0.851785, 0, 0, 0.854271, 38.275799, 149.357126)" y1="29.384072" x2="228.68218" gradientUnits="userSpaceOnUse" y2="59.187544" id="1fd55264ce"><stop stop-opacity="1" stop-color="rgb(58.950806%, 44.322205%, 90.893555%)" offset="0"/><stop stop-opacity="1" stop-color="rgb(58.807373%, 44.215393%, 90.823364%)" offset="0.03125"/><stop stop-opacity="1" stop-color="rgb(58.522034%, 44.003296%, 90.686035%)" offset="0.0625"/><stop stop-opacity="1" stop-color="rgb(58.235168%, 43.791199%, 90.548706%)" offset="0.09375"/><stop stop-opacity="1" stop-color="rgb(57.949829%, 43.579102%, 90.409851%)" offset="0.125"/><stop stop-opacity="1" stop-color="rgb(57.662964%, 43.367004%, 90.272522%)" offset="0.15625"/><stop stop-opacity="1" stop-color="rgb(57.377625%, 43.154907%, 90.133667%)" offset="0.1875"/><stop stop-opacity="1" stop-color="rgb(57.092285%, 42.94281%, 89.996338%)" offset="0.21875"/><stop stop-opacity="1" stop-color="rgb(56.80542%, 42.732239%, 89.857483%)" offset="0.25"/><stop stop-opacity="1" stop-color="rgb(56.520081%, 42.520142%, 89.720154%)" offset="0.28125"/><stop stop-opacity="1" stop-color="rgb(56.233215%, 42.308044%, 89.582825%)" offset="0.3125"/><stop stop-opacity="1" stop-color="rgb(55.947876%, 42.095947%, 89.44397%)" offset="0.34375"/><stop stop-opacity="1" stop-color="rgb(55.661011%, 41.88385%, 89.306641%)" offset="0.375"/><stop stop-opacity="1" stop-color="rgb(55.375671%, 41.671753%, 89.167786%)" offset="0.379545"/><stop stop-opacity="1" stop-color="rgb(55.233765%, 41.566467%, 89.099121%)" offset="0.40625"/><stop stop-opacity="1" stop-color="rgb(55.090332%, 41.459656%, 89.030457%)" offset="0.4375"/><stop stop-opacity="1" stop-color="rgb(54.803467%, 41.247559%, 88.891602%)" offset="0.46875"/><stop stop-opacity="1" stop-color="rgb(54.518127%, 41.035461%, 88.754272%)" offset="0.5"/><stop stop-opacity="1" stop-color="rgb(54.231262%, 40.823364%, 88.615417%)" offset="0.53125"/><stop stop-opacity="1" stop-color="rgb(53.945923%, 40.611267%, 88.478088%)" offset="0.5625"/><stop stop-opacity="1" stop-color="rgb(53.659058%, 40.39917%, 88.340759%)" offset="0.59375"/><stop stop-opacity="1" stop-color="rgb(53.373718%, 40.187073%, 88.201904%)" offset="0.620455"/><stop stop-opacity="1" stop-color="rgb(53.231812%, 40.081787%, 88.13324%)" offset="0.625"/><stop stop-opacity="1" stop-color="rgb(53.088379%, 39.974976%, 88.064575%)" offset="0.65625"/><stop stop-opacity="1" stop-color="rgb(52.801514%, 39.762878%, 87.92572%)" offset="0.6875"/><stop stop-opacity="1" stop-color="rgb(52.516174%, 39.552307%, 87.788391%)" offset="0.71875"/><stop stop-opacity="1" stop-color="rgb(52.229309%, 39.34021%, 87.649536%)" offset="0.75"/><stop stop-opacity="1" stop-color="rgb(51.94397%, 39.128113%, 87.512207%)" offset="0.78125"/><stop stop-opacity="1" stop-color="rgb(51.657104%, 38.916016%, 87.374878%)" offset="0.8125"/><stop stop-opacity="1" stop-color="rgb(51.371765%, 38.703918%, 87.236023%)" offset="0.84375"/><stop stop-opacity="1" stop-color="rgb(51.086426%, 38.491821%, 87.098694%)" offset="0.875"/><stop stop-opacity="1" stop-color="rgb(50.799561%, 38.279724%, 86.959839%)" offset="0.90625"/><stop stop-opacity="1" stop-color="rgb(50.514221%, 38.067627%, 86.82251%)" offset="0.9375"/><stop stop-opacity="1" stop-color="rgb(50.227356%, 37.85553%, 86.683655%)" offset="0.96875"/><stop stop-opacity="1" stop-color="rgb(49.942017%, 37.643433%, 86.546326%)" offset="1"/></linearGradient><clipPath id="b168adc6e4"><path d="M 201 211 L 217 211 L 217 225.855469 L 201 225.855469 Z M 201 211 " clip-rule="nonzero"/></clipPath><clipPath id="0da2763317"><path d="M 208.871094 211.035156 C 209.351562 211.050781 209.824219 211.109375 210.292969 211.214844 C 210.757812 211.320312 211.210938 211.472656 211.652344 211.664062 C 212.089844 211.855469 212.507812 212.085938 212.902344 212.359375 C 213.296875 212.632812 213.664062 212.9375 214 213.28125 C 214.339844 213.621094 214.640625 213.992188 214.90625 214.390625 C 215.171875 214.792969 215.398438 215.210938 215.585938 215.65625 C 215.773438 216.097656 215.914062 216.554688 216.015625 217.023438 C 216.117188 217.496094 216.171875 217.96875 216.179688 218.449219 C 216.179688 218.929688 216.128906 219.40625 216.035156 219.878906 C 215.941406 220.351562 215.804688 220.808594 215.621094 221.253906 C 215.4375 221.699219 215.214844 222.121094 214.949219 222.519531 C 214.683594 222.921875 214.382812 223.292969 214.046875 223.636719 C 213.710938 223.976562 213.34375 224.285156 212.949219 224.554688 C 212.550781 224.824219 212.132812 225.054688 211.691406 225.246094 C 211.25 225.433594 210.796875 225.578125 210.328125 225.679688 C 209.859375 225.777344 209.382812 225.832031 208.90625 225.839844 C 208.417969 225.84375 207.933594 225.800781 207.453125 225.707031 C 206.976562 225.617188 206.507812 225.480469 206.054688 225.296875 C 205.601562 225.113281 205.171875 224.890625 204.765625 224.625 C 204.355469 224.355469 203.976562 224.050781 203.625 223.710938 C 203.277344 223.371094 202.960938 222.996094 202.683594 222.59375 C 202.40625 222.191406 202.171875 221.765625 201.976562 221.316406 C 201.78125 220.867188 201.632812 220.40625 201.53125 219.925781 C 201.425781 219.449219 201.367188 218.964844 201.359375 218.476562 C 201.375 217.988281 201.433594 217.507812 201.542969 217.03125 C 201.648438 216.554688 201.800781 216.09375 201.996094 215.644531 C 202.191406 215.199219 202.425781 214.773438 202.703125 214.371094 C 202.976562 213.96875 203.289062 213.59375 203.632812 213.25 C 203.980469 212.910156 204.355469 212.601562 204.761719 212.332031 C 205.164062 212.058594 205.59375 211.828125 206.039062 211.640625 C 206.488281 211.449219 206.949219 211.304688 207.425781 211.203125 C 207.902344 211.101562 208.382812 211.046875 208.871094 211.035156 Z M 208.871094 211.035156 " clip-rule="nonzero"/></clipPath><linearGradient x1="210.421619" gradientTransform="matrix(0.851785, 0, 0, 0.854271, 38.275799, 149.357126)" y1="74.826293" x2="189.951938" gradientUnits="userSpaceOnUse" y2="86.997809" id="4ae5a75405"><stop stop-opacity="1" stop-color="rgb(46.081543%, 34.78241%, 84.683228%)" offset="0"/><stop stop-opacity="1" stop-color="rgb(45.96405%, 34.695435%, 84.62677%)" offset="0.0625"/><stop stop-opacity="1" stop-color="rgb(45.730591%, 34.521484%, 84.513855%)" offset="0.125"/><stop stop-opacity="1" stop-color="rgb(45.497131%, 34.34906%, 84.40094%)" offset="0.1875"/><stop stop-opacity="1" stop-color="rgb(45.262146%, 34.176636%, 84.289551%)" offset="0.25"/><stop stop-opacity="1" stop-color="rgb(45.028687%, 34.002686%, 84.176636%)" offset="0.3125"/><stop stop-opacity="1" stop-color="rgb(44.795227%, 33.830261%, 84.063721%)" offset="0.372"/><stop stop-opacity="1" stop-color="rgb(44.67926%, 33.743286%, 84.007263%)" offset="0.375"/><stop stop-opacity="1" stop-color="rgb(44.561768%, 33.656311%, 83.950806%)" offset="0.4375"/><stop stop-opacity="1" stop-color="rgb(44.328308%, 33.483887%, 83.837891%)" offset="0.5"/><stop stop-opacity="1" stop-color="rgb(44.094849%, 33.309937%, 83.724976%)" offset="0.5625"/><stop stop-opacity="1" stop-color="rgb(43.861389%, 33.137512%, 83.612061%)" offset="0.625"/><stop stop-opacity="1" stop-color="rgb(43.62793%, 32.963562%, 83.500671%)" offset="0.628"/><stop stop-opacity="1" stop-color="rgb(43.511963%, 32.878113%, 83.444214%)" offset="0.6875"/><stop stop-opacity="1" stop-color="rgb(43.39447%, 32.791138%, 83.387756%)" offset="0.75"/><stop stop-opacity="1" stop-color="rgb(43.161011%, 32.617188%, 83.274841%)" offset="0.8125"/><stop stop-opacity="1" stop-color="rgb(42.927551%, 32.444763%, 83.161926%)" offset="0.875"/><stop stop-opacity="1" stop-color="rgb(42.694092%, 32.270813%, 83.049011%)" offset="0.9375"/><stop stop-opacity="1" stop-color="rgb(42.459106%, 32.098389%, 82.936096%)" offset="1"/></linearGradient><clipPath id="651285c47c"><path d="M 237 211 L 253 211 L 253 225.855469 L 237 225.855469 Z M 237 211 " clip-rule="nonzero"/></clipPath><clipPath id="173f16733c"><path d="M 252.484375 218.449219 C 252.484375 218.929688 252.4375 219.40625 252.34375 219.878906 C 252.253906 220.347656 252.117188 220.808594 251.933594 221.25 C 251.753906 221.695312 251.53125 222.121094 251.269531 222.519531 C 251.003906 222.921875 250.707031 223.292969 250.371094 223.636719 C 250.035156 223.980469 249.671875 224.289062 249.277344 224.558594 C 248.882812 224.832031 248.464844 225.0625 248.023438 225.253906 C 247.585938 225.441406 247.128906 225.589844 246.664062 225.691406 C 246.195312 225.792969 245.722656 225.847656 245.242188 225.855469 C 244.746094 225.878906 244.253906 225.851562 243.765625 225.773438 C 243.277344 225.699219 242.796875 225.574219 242.332031 225.398438 C 241.867188 225.226562 241.425781 225.007812 241.003906 224.746094 C 240.585938 224.484375 240.191406 224.183594 239.832031 223.84375 C 239.472656 223.5 239.148438 223.128906 238.863281 222.722656 C 238.578125 222.316406 238.335938 221.882812 238.136719 221.429688 C 237.933594 220.972656 237.78125 220.503906 237.679688 220.019531 C 237.574219 219.53125 237.515625 219.039062 237.507812 218.542969 C 237.503906 218.046875 237.546875 217.554688 237.636719 217.066406 C 237.730469 216.578125 237.867188 216.101562 238.054688 215.640625 C 238.242188 215.179688 238.472656 214.742188 238.746094 214.332031 C 239.023438 213.917969 239.335938 213.535156 239.6875 213.183594 C 240.035156 212.832031 240.417969 212.519531 240.832031 212.246094 C 241.246094 211.972656 241.683594 211.742188 242.144531 211.554688 C 242.601562 211.371094 243.074219 211.230469 243.5625 211.140625 C 244.050781 211.050781 244.542969 211.011719 245.039062 211.019531 C 245.527344 211.015625 246.011719 211.058594 246.492188 211.148438 C 246.972656 211.242188 247.4375 211.378906 247.890625 211.566406 C 248.34375 211.75 248.773438 211.976562 249.179688 212.25 C 249.585938 212.519531 249.964844 212.828125 250.308594 213.171875 C 250.65625 213.519531 250.964844 213.894531 251.238281 214.300781 C 251.507812 214.710938 251.738281 215.140625 251.925781 215.59375 C 252.109375 216.046875 252.25 216.511719 252.34375 216.992188 C 252.4375 217.476562 252.484375 217.960938 252.484375 218.449219 Z M 252.484375 218.449219 " clip-rule="nonzero"/></clipPath><linearGradient x1="253.054878" gradientTransform="matrix(0.851785, 0, 0, 0.854271, 38.275799, 149.357126)" y1="74.814088" x2="232.425254" gradientUnits="userSpaceOnUse" y2="87.080707" id="9173d31c12"><stop stop-opacity="1" stop-color="rgb(51.832581%, 39.045715%, 87.458801%)" offset="0"/><stop stop-opacity="1" stop-color="rgb(51.715088%, 38.95874%, 87.402344%)" offset="0.0625"/><stop stop-opacity="1" stop-color="rgb(51.480103%, 38.783264%, 87.287903%)" offset="0.125"/><stop stop-opacity="1" stop-color="rgb(51.245117%, 38.609314%, 87.174988%)" offset="0.1875"/><stop stop-opacity="1" stop-color="rgb(51.008606%, 38.435364%, 87.060547%)" offset="0.25"/><stop stop-opacity="1" stop-color="rgb(50.773621%, 38.259888%, 86.947632%)" offset="0.3125"/><stop stop-opacity="1" stop-color="rgb(50.538635%, 38.085938%, 86.833191%)" offset="0.370095"/><stop stop-opacity="1" stop-color="rgb(50.421143%, 37.998962%, 86.776733%)" offset="0.375"/><stop stop-opacity="1" stop-color="rgb(50.302124%, 37.911987%, 86.720276%)" offset="0.4375"/><stop stop-opacity="1" stop-color="rgb(50.067139%, 37.736511%, 86.607361%)" offset="0.5"/><stop stop-opacity="1" stop-color="rgb(49.832153%, 37.562561%, 86.49292%)" offset="0.5625"/><stop stop-opacity="1" stop-color="rgb(49.597168%, 37.388611%, 86.380005%)" offset="0.625"/><stop stop-opacity="1" stop-color="rgb(49.360657%, 37.213135%, 86.265564%)" offset="0.629905"/><stop stop-opacity="1" stop-color="rgb(49.243164%, 37.12616%, 86.209106%)" offset="0.6875"/><stop stop-opacity="1" stop-color="rgb(49.125671%, 37.039185%, 86.152649%)" offset="0.75"/><stop stop-opacity="1" stop-color="rgb(48.890686%, 36.863708%, 86.038208%)" offset="0.8125"/><stop stop-opacity="1" stop-color="rgb(48.654175%, 36.689758%, 85.925293%)" offset="0.875"/><stop stop-opacity="1" stop-color="rgb(48.419189%, 36.515808%, 85.810852%)" offset="0.9375"/><stop stop-opacity="1" stop-color="rgb(48.184204%, 36.340332%, 85.697937%)" offset="1"/></linearGradient><clipPath id="a8f4df8421"><path d="M 255 149.355469 L 271 149.355469 L 271 165 L 255 165 Z M 255 149.355469 " clip-rule="nonzero"/></clipPath><clipPath id="d97569e72b"><path d="M 270.644531 157.121094 C 270.632812 157.613281 270.570312 158.097656 270.464844 158.574219 C 270.355469 159.050781 270.203125 159.515625 270.003906 159.960938 C 269.800781 160.40625 269.5625 160.832031 269.277344 161.230469 C 268.992188 161.628906 268.671875 161.992188 268.316406 162.328125 C 267.957031 162.660156 267.570312 162.957031 267.15625 163.214844 C 266.738281 163.472656 266.300781 163.683594 265.84375 163.851562 C 265.386719 164.023438 264.914062 164.144531 264.433594 164.21875 C 263.949219 164.292969 263.464844 164.320312 262.976562 164.296875 C 262.5 164.273438 262.027344 164.203125 261.5625 164.085938 C 261.097656 163.972656 260.652344 163.8125 260.21875 163.609375 C 259.785156 163.40625 259.375 163.160156 258.988281 162.878906 C 258.601562 162.59375 258.246094 162.277344 257.921875 161.925781 C 257.59375 161.574219 257.304688 161.191406 257.054688 160.785156 C 256.804688 160.375 256.59375 159.949219 256.425781 159.5 C 256.253906 159.050781 256.128906 158.589844 256.050781 158.117188 C 255.972656 157.644531 255.9375 157.167969 255.949219 156.6875 C 255.972656 156.207031 256.039062 155.738281 256.152344 155.273438 C 256.265625 154.808594 256.425781 154.359375 256.625 153.925781 C 256.824219 153.492188 257.066406 153.082031 257.347656 152.695312 C 257.628906 152.308594 257.941406 151.953125 258.292969 151.628906 C 258.644531 151.300781 259.019531 151.015625 259.425781 150.761719 C 259.832031 150.511719 260.257812 150.300781 260.703125 150.132812 C 261.152344 149.964844 261.609375 149.84375 262.082031 149.765625 C 262.550781 149.6875 263.023438 149.652344 263.5 149.667969 C 263.976562 149.683594 264.449219 149.742188 264.914062 149.847656 C 265.378906 149.953125 265.828125 150.105469 266.265625 150.296875 C 266.699219 150.492188 267.113281 150.726562 267.503906 151.003906 C 267.894531 151.277344 268.253906 151.585938 268.585938 151.933594 C 268.914062 152.277344 269.207031 152.652344 269.464844 153.054688 C 269.722656 153.457031 269.9375 153.882812 270.113281 154.328125 C 270.289062 154.769531 270.417969 155.230469 270.503906 155.699219 C 270.589844 156.167969 270.632812 156.644531 270.625 157.121094 Z M 270.644531 157.121094 " clip-rule="nonzero"/></clipPath><linearGradient x1="274.27813" gradientTransform="matrix(0.851785, 0, 0, 0.854271, 38.275799, 149.357126)" y1="2.833051" x2="253.980932" gradientUnits="userSpaceOnUse" y2="14.901235" id="010ed7b99a"><stop stop-opacity="1" stop-color="rgb(59.999084%, 45.098877%, 91.398621%)" offset="0"/><stop stop-opacity="1" stop-color="rgb(59.999084%, 45.098877%, 91.398621%)" offset="0.125"/><stop stop-opacity="1" stop-color="rgb(59.886169%, 45.014954%, 91.343689%)" offset="0.1875"/><stop stop-opacity="1" stop-color="rgb(59.657288%, 44.845581%, 91.233826%)" offset="0.25"/><stop stop-opacity="1" stop-color="rgb(59.425354%, 44.673157%, 91.122437%)" offset="0.3125"/><stop stop-opacity="1" stop-color="rgb(59.19342%, 44.502258%, 91.009521%)" offset="0.371582"/><stop stop-opacity="1" stop-color="rgb(59.078979%, 44.416809%, 90.95459%)" offset="0.375"/><stop stop-opacity="1" stop-color="rgb(58.963013%, 44.329834%, 90.898132%)" offset="0.4375"/><stop stop-opacity="1" stop-color="rgb(58.731079%, 44.158936%, 90.786743%)" offset="0.5"/><stop stop-opacity="1" stop-color="rgb(58.499146%, 43.986511%, 90.675354%)" offset="0.5625"/><stop stop-opacity="1" stop-color="rgb(58.267212%, 43.815613%, 90.563965%)" offset="0.625"/><stop stop-opacity="1" stop-color="rgb(58.036804%, 43.643188%, 90.45105%)" offset="0.628418"/><stop stop-opacity="1" stop-color="rgb(57.920837%, 43.557739%, 90.396118%)" offset="0.6875"/><stop stop-opacity="1" stop-color="rgb(57.804871%, 43.47229%, 90.339661%)" offset="0.75"/><stop stop-opacity="1" stop-color="rgb(57.572937%, 43.299866%, 90.228271%)" offset="0.8125"/><stop stop-opacity="1" stop-color="rgb(57.341003%, 43.128967%, 90.116882%)" offset="0.875"/><stop stop-opacity="1" stop-color="rgb(57.10907%, 42.956543%, 90.003967%)" offset="0.9375"/><stop stop-opacity="1" stop-color="rgb(56.878662%, 42.785645%, 89.892578%)" offset="1"/></linearGradient><clipPath id="c65f37a096"><path d="M 220 191 L 235 191 L 235 207 L 220 207 Z M 220 191 " clip-rule="nonzero"/></clipPath><clipPath id="02ec614887"><path d="M 227.234375 206.070312 C 226.753906 206.0625 226.28125 206.003906 225.8125 205.898438 C 225.34375 205.796875 224.886719 205.648438 224.449219 205.453125 C 224.007812 205.261719 223.589844 205.027344 223.195312 204.75 C 222.804688 204.472656 222.441406 204.164062 222.105469 203.816406 C 221.773438 203.46875 221.476562 203.09375 221.21875 202.6875 C 220.957031 202.28125 220.742188 201.855469 220.566406 201.40625 C 220.390625 200.957031 220.257812 200.496094 220.171875 200.023438 C 220.085938 199.546875 220.046875 199.070312 220.054688 198.589844 C 220.0625 198.105469 220.117188 197.628906 220.21875 197.160156 C 220.320312 196.6875 220.46875 196.230469 220.65625 195.789062 C 220.847656 195.347656 221.078125 194.925781 221.351562 194.53125 C 221.625 194.132812 221.933594 193.769531 222.277344 193.433594 C 222.621094 193.097656 222.996094 192.796875 223.398438 192.535156 C 223.800781 192.273438 224.226562 192.050781 224.671875 191.871094 C 225.117188 191.695312 225.578125 191.558594 226.050781 191.472656 C 226.523438 191.382812 227 191.339844 227.480469 191.347656 C 227.960938 191.351562 228.433594 191.402344 228.90625 191.503906 C 229.375 191.601562 229.832031 191.746094 230.273438 191.933594 C 230.714844 192.125 231.132812 192.351562 231.53125 192.625 C 231.929688 192.894531 232.296875 193.203125 232.632812 193.546875 C 232.96875 193.890625 233.269531 194.261719 233.535156 194.664062 C 233.796875 195.070312 234.019531 195.492188 234.199219 195.9375 C 234.382812 196.386719 234.515625 196.84375 234.609375 197.320312 C 234.699219 197.792969 234.742188 198.269531 234.738281 198.75 C 234.742188 199.242188 234.691406 199.726562 234.597656 200.207031 C 234.5 200.683594 234.355469 201.152344 234.167969 201.601562 C 233.976562 202.054688 233.746094 202.480469 233.46875 202.886719 C 233.195312 203.289062 232.882812 203.664062 232.53125 204.003906 C 232.183594 204.347656 231.800781 204.648438 231.390625 204.914062 C 230.980469 205.179688 230.546875 205.398438 230.09375 205.578125 C 229.636719 205.753906 229.171875 205.886719 228.6875 205.96875 C 228.207031 206.050781 227.722656 206.085938 227.234375 206.070312 Z M 227.234375 206.070312 " clip-rule="nonzero"/></clipPath><linearGradient x1="232.177495" gradientTransform="matrix(0.851785, 0, 0, 0.854271, 38.275799, 149.357126)" y1="51.710181" x2="211.849927" gradientUnits="userSpaceOnUse" y2="63.796423" id="5cca66710c"><stop stop-opacity="1" stop-color="rgb(50.869751%, 38.331604%, 86.994934%)" offset="0"/><stop stop-opacity="1" stop-color="rgb(50.753784%, 38.246155%, 86.938477%)" offset="0.0625"/><stop stop-opacity="1" stop-color="rgb(50.521851%, 38.07373%, 86.825562%)" offset="0.125"/><stop stop-opacity="1" stop-color="rgb(50.289917%, 37.901306%, 86.714172%)" offset="0.1875"/><stop stop-opacity="1" stop-color="rgb(50.057983%, 37.730408%, 86.602783%)" offset="0.25"/><stop stop-opacity="1" stop-color="rgb(49.82605%, 37.557983%, 86.489868%)" offset="0.3125"/><stop stop-opacity="1" stop-color="rgb(49.594116%, 37.385559%, 86.378479%)" offset="0.372997"/><stop stop-opacity="1" stop-color="rgb(49.478149%, 37.30011%, 86.322021%)" offset="0.375"/><stop stop-opacity="1" stop-color="rgb(49.362183%, 37.214661%, 86.265564%)" offset="0.4375"/><stop stop-opacity="1" stop-color="rgb(49.130249%, 37.042236%, 86.154175%)" offset="0.5"/><stop stop-opacity="1" stop-color="rgb(48.898315%, 36.869812%, 86.042786%)" offset="0.5625"/><stop stop-opacity="1" stop-color="rgb(48.666382%, 36.698914%, 85.929871%)" offset="0.625"/><stop stop-opacity="1" stop-color="rgb(48.434448%, 36.526489%, 85.818481%)" offset="0.627003"/><stop stop-opacity="1" stop-color="rgb(48.318481%, 36.44104%, 85.76355%)" offset="0.6875"/><stop stop-opacity="1" stop-color="rgb(48.202515%, 36.354065%, 85.707092%)" offset="0.75"/><stop stop-opacity="1" stop-color="rgb(47.970581%, 36.183167%, 85.594177%)" offset="0.8125"/><stop stop-opacity="1" stop-color="rgb(47.738647%, 36.010742%, 85.482788%)" offset="0.875"/><stop stop-opacity="1" stop-color="rgb(47.506714%, 35.838318%, 85.371399%)" offset="0.9375"/><stop stop-opacity="1" stop-color="rgb(47.27478%, 35.667419%, 85.258484%)" offset="1"/></linearGradient><clipPath id="3cc010a439"><path d="M 201 171 L 215 171 L 215 184 L 201 184 Z M 201 171 " clip-rule="nonzero"/></clipPath><clipPath id="16f5aca523"><path d="M 201.742188 177.625 C 201.734375 177.222656 201.769531 176.820312 201.839844 176.421875 C 201.914062 176.027344 202.023438 175.640625 202.171875 175.265625 C 202.320312 174.890625 202.503906 174.53125 202.71875 174.191406 C 202.9375 173.855469 203.1875 173.539062 203.46875 173.25 C 203.746094 172.960938 204.054688 172.699219 204.382812 172.46875 C 204.714844 172.238281 205.066406 172.042969 205.433594 171.882812 C 205.804688 171.722656 206.183594 171.601562 206.578125 171.515625 C 206.972656 171.429688 207.371094 171.382812 207.773438 171.378906 C 208.175781 171.371094 208.574219 171.402344 208.96875 171.476562 C 209.367188 171.546875 209.75 171.65625 210.125 171.804688 C 210.5 171.953125 210.855469 172.136719 211.195312 172.355469 C 211.535156 172.574219 211.847656 172.824219 212.136719 173.105469 C 212.425781 173.386719 212.6875 173.691406 212.914062 174.023438 C 213.144531 174.355469 213.339844 174.707031 213.5 175.074219 C 213.660156 175.445312 213.785156 175.828125 213.867188 176.222656 C 213.953125 176.617188 214 177.015625 214.007812 177.421875 C 214.015625 177.832031 213.984375 178.238281 213.910156 178.644531 C 213.839844 179.050781 213.726562 179.441406 213.578125 179.824219 C 213.425781 180.207031 213.242188 180.574219 213.019531 180.917969 C 212.796875 181.265625 212.539062 181.585938 212.253906 181.878906 C 211.96875 182.175781 211.65625 182.4375 211.316406 182.671875 C 210.980469 182.902344 210.621094 183.101562 210.246094 183.261719 C 209.867188 183.421875 209.476562 183.546875 209.074219 183.628906 C 208.675781 183.710938 208.269531 183.757812 207.859375 183.757812 C 207.457031 183.757812 207.058594 183.722656 206.664062 183.644531 C 206.269531 183.566406 205.886719 183.449219 205.515625 183.296875 C 205.144531 183.144531 204.789062 182.953125 204.457031 182.730469 C 204.121094 182.507812 203.8125 182.253906 203.527344 181.96875 C 203.242188 181.683594 202.992188 181.371094 202.765625 181.035156 C 202.542969 180.703125 202.355469 180.347656 202.203125 179.976562 C 202.050781 179.601562 201.933594 179.21875 201.855469 178.824219 C 201.777344 178.425781 201.742188 178.027344 201.742188 177.625 Z M 201.742188 177.625 " clip-rule="nonzero"/></clipPath><linearGradient x1="207.614566" gradientTransform="matrix(0.851785, 0, 0, 0.854271, 38.275799, 149.357126)" y1="27.946085" x2="190.592064" gradientUnits="userSpaceOnUse" y2="38.067221" id="45c04f9cac"><stop stop-opacity="1" stop-color="rgb(49.461365%, 37.287903%, 86.314392%)" offset="0"/><stop stop-opacity="1" stop-color="rgb(49.267578%, 37.14447%, 86.219788%)" offset="0.125"/><stop stop-opacity="1" stop-color="rgb(48.878479%, 36.856079%, 86.03363%)" offset="0.25"/><stop stop-opacity="1" stop-color="rgb(48.490906%, 36.567688%, 85.845947%)" offset="0.374252"/><stop stop-opacity="1" stop-color="rgb(48.297119%, 36.424255%, 85.752869%)" offset="0.375"/><stop stop-opacity="1" stop-color="rgb(48.101807%, 36.279297%, 85.658264%)" offset="0.5"/><stop stop-opacity="1" stop-color="rgb(47.712708%, 35.992432%, 85.470581%)" offset="0.625"/><stop stop-opacity="1" stop-color="rgb(47.325134%, 35.704041%, 85.282898%)" offset="0.625748"/><stop stop-opacity="1" stop-color="rgb(47.131348%, 35.560608%, 85.189819%)" offset="0.75"/><stop stop-opacity="1" stop-color="rgb(46.936035%, 35.415649%, 85.095215%)" offset="0.875"/><stop stop-opacity="1" stop-color="rgb(46.548462%, 35.128784%, 84.909058%)" offset="1"/></linearGradient><clipPath id="73411fa91f"><path d="M 183 192 L 196 192 L 196 205 L 183 205 Z M 183 192 " clip-rule="nonzero"/></clipPath><clipPath id="3c4c028c3e"><path d="M 189.042969 204.882812 C 188.644531 204.871094 188.25 204.820312 187.863281 204.730469 C 187.472656 204.640625 187.097656 204.515625 186.734375 204.351562 C 186.367188 204.1875 186.023438 203.992188 185.699219 203.761719 C 185.371094 203.53125 185.070312 203.273438 184.792969 202.984375 C 184.519531 202.695312 184.273438 202.382812 184.058594 202.046875 C 183.84375 201.710938 183.660156 201.355469 183.515625 200.984375 C 183.367188 200.613281 183.257812 200.230469 183.183594 199.835938 C 183.109375 199.445312 183.074219 199.046875 183.078125 198.648438 C 183.101562 198.238281 183.164062 197.832031 183.261719 197.433594 C 183.359375 197.035156 183.496094 196.648438 183.667969 196.273438 C 183.84375 195.902344 184.046875 195.550781 184.289062 195.214844 C 184.527344 194.882812 184.796875 194.574219 185.097656 194.292969 C 185.394531 194.007812 185.71875 193.757812 186.0625 193.539062 C 186.410156 193.316406 186.773438 193.132812 187.15625 192.980469 C 187.539062 192.832031 187.929688 192.71875 188.332031 192.640625 C 188.734375 192.566406 189.144531 192.53125 189.554688 192.53125 C 189.953125 192.5625 190.347656 192.625 190.738281 192.730469 C 191.125 192.835938 191.5 192.972656 191.863281 193.148438 C 192.222656 193.324219 192.566406 193.53125 192.890625 193.773438 C 193.210938 194.015625 193.507812 194.28125 193.78125 194.578125 C 194.050781 194.878906 194.292969 195.199219 194.503906 195.539062 C 194.714844 195.882812 194.890625 196.242188 195.035156 196.621094 C 195.175781 196.996094 195.285156 197.382812 195.351562 197.78125 C 195.421875 198.179688 195.453125 198.578125 195.445312 198.980469 C 195.433594 199.386719 195.378906 199.789062 195.285156 200.183594 C 195.191406 200.578125 195.0625 200.960938 194.890625 201.328125 C 194.722656 201.695312 194.519531 202.046875 194.28125 202.375 C 194.042969 202.703125 193.773438 203.003906 193.476562 203.277344 C 193.179688 203.550781 192.855469 203.792969 192.507812 204.003906 C 192.164062 204.214844 191.800781 204.390625 191.417969 204.527344 C 191.039062 204.664062 190.648438 204.765625 190.25 204.824219 C 189.847656 204.886719 189.445312 204.90625 189.042969 204.882812 Z M 189.042969 204.882812 " clip-rule="nonzero"/></clipPath><linearGradient x1="185.824059" gradientTransform="matrix(0.851785, 0, 0, 0.854271, 38.275799, 149.357126)" y1="52.717994" x2="168.724374" gradientUnits="userSpaceOnUse" y2="62.88502" id="5653d54bc4"><stop stop-opacity="1" stop-color="rgb(44.535828%, 33.636475%, 83.938599%)" offset="0"/><stop stop-opacity="1" stop-color="rgb(44.340515%, 33.491516%, 83.843994%)" offset="0.125"/><stop stop-opacity="1" stop-color="rgb(43.94989%, 33.203125%, 83.654785%)" offset="0.25"/><stop stop-opacity="1" stop-color="rgb(43.560791%, 32.913208%, 83.467102%)" offset="0.372139"/><stop stop-opacity="1" stop-color="rgb(43.365479%, 32.769775%, 83.372498%)" offset="0.375"/><stop stop-opacity="1" stop-color="rgb(43.170166%, 32.624817%, 83.277893%)" offset="0.5"/><stop stop-opacity="1" stop-color="rgb(42.779541%, 32.3349%, 83.09021%)" offset="0.625"/><stop stop-opacity="1" stop-color="rgb(42.388916%, 32.044983%, 82.902527%)" offset="0.627861"/><stop stop-opacity="1" stop-color="rgb(42.195129%, 31.90155%, 82.807922%)" offset="0.75"/><stop stop-opacity="1" stop-color="rgb(41.999817%, 31.756592%, 82.713318%)" offset="0.875"/><stop stop-opacity="1" stop-color="rgb(41.609192%, 31.466675%, 82.525635%)" offset="1"/></linearGradient><clipPath id="1562b5c2ce"><path d="M 184 152 L 193 152 L 193 161 L 184 161 Z M 184 152 " clip-rule="nonzero"/></clipPath><clipPath id="054146dac7"><path d="M 188.921875 152.929688 C 189.183594 152.933594 189.4375 152.960938 189.691406 153.015625 C 189.949219 153.070312 190.195312 153.152344 190.433594 153.253906 C 190.671875 153.359375 190.894531 153.484375 191.109375 153.632812 C 191.324219 153.78125 191.519531 153.949219 191.699219 154.136719 C 191.878906 154.324219 192.039062 154.53125 192.179688 154.75 C 192.320312 154.96875 192.4375 155.199219 192.53125 155.441406 C 192.625 155.6875 192.695312 155.9375 192.738281 156.191406 C 192.785156 156.449219 192.804688 156.707031 192.796875 156.96875 C 192.792969 157.230469 192.757812 157.488281 192.703125 157.746094 C 192.644531 158 192.5625 158.25 192.457031 158.488281 C 192.347656 158.726562 192.222656 158.953125 192.070312 159.167969 C 191.917969 159.382812 191.75 159.582031 191.558594 159.761719 C 191.371094 159.941406 191.164062 160.101562 190.941406 160.242188 C 190.722656 160.382812 190.488281 160.5 190.246094 160.59375 C 190 160.6875 189.75 160.753906 189.492188 160.800781 C 189.234375 160.84375 188.976562 160.863281 188.714844 160.855469 C 188.453125 160.847656 188.195312 160.816406 187.9375 160.757812 C 187.683594 160.699219 187.4375 160.617188 187.199219 160.511719 C 186.960938 160.402344 186.734375 160.273438 186.519531 160.125 C 186.308594 159.972656 186.109375 159.800781 185.929688 159.609375 C 185.75 159.417969 185.589844 159.214844 185.453125 158.992188 C 185.3125 158.769531 185.195312 158.535156 185.101562 158.292969 C 185.011719 158.046875 184.941406 157.792969 184.898438 157.535156 C 184.851562 157.277344 184.835938 157.015625 184.84375 156.753906 C 184.847656 156.496094 184.882812 156.238281 184.941406 155.984375 C 185 155.730469 185.082031 155.484375 185.1875 155.246094 C 185.292969 155.007812 185.421875 154.785156 185.574219 154.570312 C 185.726562 154.359375 185.894531 154.164062 186.085938 153.988281 C 186.273438 153.808594 186.480469 153.652344 186.703125 153.515625 C 186.921875 153.378906 187.15625 153.261719 187.398438 153.171875 C 187.640625 153.082031 187.890625 153.015625 188.148438 152.972656 C 188.40625 152.933594 188.664062 152.917969 188.921875 152.929688 Z M 188.921875 152.929688 " clip-rule="nonzero"/></clipPath><linearGradient x1="182.228095" gradientTransform="matrix(0.851785, 0, 0, 0.854271, 38.275799, 149.357126)" y1="5.531647" x2="171.230402" gradientUnits="userSpaceOnUse" y2="12.070588" id="ffc313155c"><stop stop-opacity="1" stop-color="rgb(47.836304%, 36.082458%, 85.53009%)" offset="0"/><stop stop-opacity="1" stop-color="rgb(47.709656%, 35.98938%, 85.469055%)" offset="0.125"/><stop stop-opacity="1" stop-color="rgb(47.459412%, 35.803223%, 85.348511%)" offset="0.25"/><stop stop-opacity="1" stop-color="rgb(47.207642%, 35.618591%, 85.22644%)" offset="0.371483"/><stop stop-opacity="1" stop-color="rgb(47.08252%, 35.525513%, 85.166931%)" offset="0.375"/><stop stop-opacity="1" stop-color="rgb(46.957397%, 35.432434%, 85.105896%)" offset="0.5"/><stop stop-opacity="1" stop-color="rgb(46.705627%, 35.246277%, 84.985352%)" offset="0.625"/><stop stop-opacity="1" stop-color="rgb(46.455383%, 35.06012%, 84.863281%)" offset="0.628517"/><stop stop-opacity="1" stop-color="rgb(46.330261%, 34.967041%, 84.803772%)" offset="0.75"/><stop stop-opacity="1" stop-color="rgb(46.203613%, 34.873962%, 84.742737%)" offset="0.875"/><stop stop-opacity="1" stop-color="rgb(45.953369%, 34.687805%, 84.622192%)" offset="1"/></linearGradient><clipPath id="b9a7f6050f"><path d="M 38 194 L 47 194 L 47 203 L 38 203 Z M 38 194 " clip-rule="nonzero"/></clipPath><clipPath id="0edcab2f81"><path d="M 38.277344 198.476562 C 38.265625 199.007812 38.351562 199.519531 38.535156 200.015625 C 38.714844 200.511719 38.980469 200.957031 39.332031 201.351562 C 39.679688 201.746094 40.089844 202.066406 40.558594 202.308594 C 41.027344 202.546875 41.523438 202.695312 42.050781 202.75 C 42.570312 202.730469 43.070312 202.625 43.554688 202.425781 C 44.035156 202.226562 44.46875 201.953125 44.855469 201.601562 C 45.238281 201.246094 45.550781 200.835938 45.789062 200.371094 C 46.027344 199.90625 46.175781 199.414062 46.238281 198.894531 C 46.25 198.371094 46.160156 197.863281 45.972656 197.371094 C 45.785156 196.878906 45.515625 196.441406 45.160156 196.054688 C 44.804688 195.667969 44.390625 195.363281 43.917969 195.136719 C 43.445312 194.910156 42.945312 194.777344 42.425781 194.746094 C 41.902344 194.71875 41.394531 194.792969 40.90625 194.96875 C 40.414062 195.144531 39.972656 195.40625 39.585938 195.753906 C 39.195312 196.105469 38.886719 196.515625 38.660156 196.988281 C 38.433594 197.457031 38.304688 197.957031 38.277344 198.476562 Z M 38.277344 198.476562 " clip-rule="nonzero"/></clipPath><clipPath id="7dcdc3a089"><path d="M 124 189 L 161 189 L 161 225.855469 L 124 225.855469 Z M 124 189 " clip-rule="nonzero"/></clipPath><clipPath id="fa24e59623"><path d="M 151.742188 189.414062 C 152.570312 189.398438 153.382812 189.5 154.179688 189.726562 C 154.976562 189.953125 155.722656 190.289062 156.421875 190.738281 C 157.117188 191.1875 157.734375 191.730469 158.269531 192.363281 C 158.808594 192.996094 159.242188 193.691406 159.570312 194.453125 C 161.273438 198.128906 160.582031 201.734375 157.695312 204.664062 C 152.78125 209.644531 147.816406 214.5625 142.875 219.5 C 141.734375 220.644531 140.644531 221.84375 139.46875 222.917969 C 139.050781 223.3125 138.601562 223.660156 138.117188 223.964844 C 137.632812 224.269531 137.125 224.523438 136.589844 224.730469 C 136.054688 224.933594 135.507812 225.085938 134.945312 225.179688 C 134.382812 225.277344 133.8125 225.320312 133.242188 225.304688 C 132.671875 225.292969 132.105469 225.222656 131.546875 225.097656 C 130.992188 224.972656 130.449219 224.792969 129.925781 224.5625 C 129.402344 224.332031 128.90625 224.050781 128.441406 223.722656 C 127.972656 223.394531 127.539062 223.023438 127.140625 222.609375 C 126.738281 222.191406 126.378906 221.742188 126.0625 221.25 C 125.746094 220.761719 125.480469 220.25 125.269531 219.707031 C 125.054688 219.167969 124.894531 218.609375 124.789062 218.039062 C 124.683594 217.464844 124.632812 216.890625 124.640625 216.308594 C 124.648438 215.726562 124.710938 215.148438 124.832031 214.578125 C 124.953125 214.011719 125.125 213.457031 125.355469 212.921875 C 125.582031 212.386719 125.863281 211.882812 126.191406 211.402344 C 126.519531 210.921875 126.890625 210.476562 127.304688 210.070312 C 133.15625 204.140625 139.066406 198.273438 144.953125 192.386719 C 146.808594 190.5 148.957031 189.242188 151.742188 189.414062 Z M 151.742188 189.414062 " clip-rule="nonzero"/></clipPath><linearGradient x1="147.941204" gradientTransform="matrix(0.851785, 0, 0, 0.854271, 38.275799, 149.357126)" y1="52.645223" x2="97.609641" gradientUnits="userSpaceOnUse" y2="82.574269" id="acea614345"><stop stop-opacity="1" stop-color="rgb(39.433289%, 29.853821%, 81.47583%)" offset="0"/><stop stop-opacity="1" stop-color="rgb(39.28833%, 29.747009%, 81.40564%)" offset="0.03125"/><stop stop-opacity="1" stop-color="rgb(39.001465%, 29.534912%, 81.266785%)" offset="0.0625"/><stop stop-opacity="1" stop-color="rgb(38.7146%, 29.321289%, 81.12793%)" offset="0.09375"/><stop stop-opacity="1" stop-color="rgb(38.427734%, 29.109192%, 80.990601%)" offset="0.125"/><stop stop-opacity="1" stop-color="rgb(38.140869%, 28.895569%, 80.851746%)" offset="0.15625"/><stop stop-opacity="1" stop-color="rgb(37.852478%, 28.683472%, 80.712891%)" offset="0.1875"/><stop stop-opacity="1" stop-color="rgb(37.565613%, 28.469849%, 80.574036%)" offset="0.21875"/><stop stop-opacity="1" stop-color="rgb(37.278748%, 28.257751%, 80.435181%)" offset="0.25"/><stop stop-opacity="1" stop-color="rgb(36.991882%, 28.044128%, 80.297852%)" offset="0.28125"/><stop stop-opacity="1" stop-color="rgb(36.705017%, 27.832031%, 80.158997%)" offset="0.3125"/><stop stop-opacity="1" stop-color="rgb(36.416626%, 27.618408%, 80.020142%)" offset="0.34375"/><stop stop-opacity="1" stop-color="rgb(36.129761%, 27.406311%, 79.881287%)" offset="0.368599"/><stop stop-opacity="1" stop-color="rgb(35.986328%, 27.2995%, 79.812622%)" offset="0.375"/><stop stop-opacity="1" stop-color="rgb(35.842896%, 27.192688%, 79.742432%)" offset="0.40625"/><stop stop-opacity="1" stop-color="rgb(35.55603%, 26.980591%, 79.603577%)" offset="0.4375"/><stop stop-opacity="1" stop-color="rgb(35.269165%, 26.766968%, 79.466248%)" offset="0.46875"/><stop stop-opacity="1" stop-color="rgb(34.980774%, 26.554871%, 79.327393%)" offset="0.5"/><stop stop-opacity="1" stop-color="rgb(34.693909%, 26.341248%, 79.188538%)" offset="0.53125"/><stop stop-opacity="1" stop-color="rgb(34.407043%, 26.12915%, 79.049683%)" offset="0.5625"/><stop stop-opacity="1" stop-color="rgb(34.120178%, 25.915527%, 78.910828%)" offset="0.59375"/><stop stop-opacity="1" stop-color="rgb(33.833313%, 25.70343%, 78.773499%)" offset="0.625"/><stop stop-opacity="1" stop-color="rgb(33.546448%, 25.489807%, 78.634644%)" offset="0.631401"/><stop stop-opacity="1" stop-color="rgb(33.403015%, 25.384521%, 78.565979%)" offset="0.65625"/><stop stop-opacity="1" stop-color="rgb(33.258057%, 25.27771%, 78.495789%)" offset="0.6875"/><stop stop-opacity="1" stop-color="rgb(32.971191%, 25.064087%, 78.356934%)" offset="0.71875"/><stop stop-opacity="1" stop-color="rgb(32.684326%, 24.85199%, 78.218079%)" offset="0.75"/><stop stop-opacity="1" stop-color="rgb(32.397461%, 24.638367%, 78.08075%)" offset="0.78125"/><stop stop-opacity="1" stop-color="rgb(32.110596%, 24.42627%, 77.941895%)" offset="0.8125"/><stop stop-opacity="1" stop-color="rgb(31.822205%, 24.212646%, 77.80304%)" offset="0.84375"/><stop stop-opacity="1" stop-color="rgb(31.538391%, 24.003601%, 77.66571%)" offset="0.875"/><stop stop-opacity="1" stop-color="rgb(31.399536%, 23.899841%, 77.598572%)" offset="1"/></linearGradient><clipPath id="9dd1b820ba"><path d="M 66 189 L 103 189 L 103 225.855469 L 66 225.855469 Z M 66 189 " clip-rule="nonzero"/></clipPath><clipPath id="650349c4ed"><path d="M 75.667969 189.414062 C 74.839844 189.398438 74.027344 189.503906 73.230469 189.726562 C 72.433594 189.953125 71.683594 190.289062 70.988281 190.738281 C 70.289062 191.1875 69.671875 191.730469 69.132812 192.363281 C 68.597656 192.996094 68.164062 193.691406 67.832031 194.453125 C 66.128906 198.128906 66.820312 201.734375 69.714844 204.664062 C 74.621094 209.644531 79.585938 214.5625 84.527344 219.5 C 85.667969 220.644531 86.757812 221.84375 87.933594 222.917969 C 88.351562 223.3125 88.800781 223.660156 89.285156 223.964844 C 89.769531 224.269531 90.277344 224.523438 90.808594 224.726562 C 91.34375 224.933594 91.890625 225.082031 92.457031 225.179688 C 93.019531 225.277344 93.585938 225.320312 94.15625 225.304688 C 94.726562 225.289062 95.292969 225.222656 95.847656 225.097656 C 96.40625 224.972656 96.945312 224.792969 97.46875 224.5625 C 97.992188 224.332031 98.488281 224.050781 98.957031 223.722656 C 99.425781 223.394531 99.855469 223.023438 100.25 222.609375 C 100.65625 222.195312 101.015625 221.742188 101.332031 221.253906 C 101.648438 220.765625 101.914062 220.25 102.128906 219.710938 C 102.34375 219.167969 102.503906 218.613281 102.609375 218.039062 C 102.714844 217.46875 102.765625 216.890625 102.757812 216.308594 C 102.75 215.726562 102.6875 215.152344 102.566406 214.582031 C 102.449219 214.011719 102.273438 213.460938 102.046875 212.925781 C 101.816406 212.390625 101.539062 211.882812 101.210938 211.402344 C 100.882812 210.921875 100.511719 210.476562 100.097656 210.070312 C 94.246094 204.140625 88.335938 198.273438 82.441406 192.386719 C 80.601562 190.5 78.445312 189.242188 75.667969 189.414062 Z M 75.667969 189.414062 " clip-rule="nonzero"/></clipPath><clipPath id="22de2b0bbf"><path d="M 142 149.355469 L 179 149.355469 L 179 186 L 142 186 Z M 142 149.355469 " clip-rule="nonzero"/></clipPath><clipPath id="1895db3cbf"><path d="M 169.160156 185.238281 C 168.105469 185.214844 167.09375 184.988281 166.128906 184.558594 C 165.160156 184.128906 164.316406 183.53125 163.589844 182.757812 C 157.449219 176.632812 151.28125 170.542969 145.207031 164.347656 C 144.816406 163.941406 144.46875 163.5 144.164062 163.027344 C 143.855469 162.550781 143.597656 162.050781 143.386719 161.527344 C 143.175781 161 143.015625 160.460938 142.910156 159.90625 C 142.800781 159.351562 142.746094 158.789062 142.746094 158.222656 C 142.746094 157.660156 142.800781 157.097656 142.910156 156.542969 C 143.015625 155.988281 143.175781 155.445312 143.386719 154.921875 C 143.597656 154.398438 143.855469 153.898438 144.164062 153.421875 C 144.46875 152.949219 144.816406 152.507812 145.207031 152.097656 C 148.554688 148.683594 153.972656 148.296875 157.398438 151.59375 C 163.785156 157.746094 170.0625 164.011719 176.222656 170.390625 C 176.859375 171.007812 177.386719 171.710938 177.796875 172.496094 C 178.207031 173.285156 178.484375 174.117188 178.628906 174.996094 C 178.769531 175.871094 178.773438 176.75 178.632812 177.628906 C 178.492188 178.507812 178.214844 179.339844 177.808594 180.128906 C 176.207031 183.527344 173.410156 185.382812 169.160156 185.238281 Z M 169.160156 185.238281 " clip-rule="nonzero"/></clipPath><linearGradient x1="168.669979" gradientTransform="matrix(0.851785, 0, 0, 0.854271, 38.275799, 149.357126)" y1="6.26842" x2="118.899065" gradientUnits="userSpaceOnUse" y2="35.860908" id="699d8b55b4"><stop stop-opacity="1" stop-color="rgb(45.948792%, 34.683228%, 84.619141%)" offset="0"/><stop stop-opacity="1" stop-color="rgb(45.806885%, 34.577942%, 84.550476%)" offset="0.03125"/><stop stop-opacity="1" stop-color="rgb(45.523071%, 34.368896%, 84.413147%)" offset="0.0625"/><stop stop-opacity="1" stop-color="rgb(45.237732%, 34.158325%, 84.277344%)" offset="0.09375"/><stop stop-opacity="1" stop-color="rgb(44.953918%, 33.947754%, 84.140015%)" offset="0.125"/><stop stop-opacity="1" stop-color="rgb(44.670105%, 33.737183%, 84.002686%)" offset="0.15625"/><stop stop-opacity="1" stop-color="rgb(44.386292%, 33.526611%, 83.865356%)" offset="0.1875"/><stop stop-opacity="1" stop-color="rgb(44.102478%, 33.31604%, 83.728027%)" offset="0.21875"/><stop stop-opacity="1" stop-color="rgb(43.818665%, 33.105469%, 83.592224%)" offset="0.25"/><stop stop-opacity="1" stop-color="rgb(43.534851%, 32.894897%, 83.454895%)" offset="0.28125"/><stop stop-opacity="1" stop-color="rgb(43.251038%, 32.684326%, 83.317566%)" offset="0.3125"/><stop stop-opacity="1" stop-color="rgb(42.967224%, 32.473755%, 83.180237%)" offset="0.34375"/><stop stop-opacity="1" stop-color="rgb(42.683411%, 32.263184%, 83.042908%)" offset="0.372194"/><stop stop-opacity="1" stop-color="rgb(42.541504%, 32.157898%, 82.975769%)" offset="0.375"/><stop stop-opacity="1" stop-color="rgb(42.399597%, 32.052612%, 82.907104%)" offset="0.40625"/><stop stop-opacity="1" stop-color="rgb(42.114258%, 31.842041%, 82.769775%)" offset="0.4375"/><stop stop-opacity="1" stop-color="rgb(41.830444%, 31.63147%, 82.632446%)" offset="0.46875"/><stop stop-opacity="1" stop-color="rgb(41.546631%, 31.420898%, 82.495117%)" offset="0.5"/><stop stop-opacity="1" stop-color="rgb(41.262817%, 31.210327%, 82.357788%)" offset="0.53125"/><stop stop-opacity="1" stop-color="rgb(40.979004%, 30.999756%, 82.221985%)" offset="0.5625"/><stop stop-opacity="1" stop-color="rgb(40.69519%, 30.789185%, 82.084656%)" offset="0.59375"/><stop stop-opacity="1" stop-color="rgb(40.411377%, 30.578613%, 81.947327%)" offset="0.625"/><stop stop-opacity="1" stop-color="rgb(40.127563%, 30.369568%, 81.809998%)" offset="0.627806"/><stop stop-opacity="1" stop-color="rgb(39.985657%, 30.264282%, 81.742859%)" offset="0.65625"/><stop stop-opacity="1" stop-color="rgb(39.84375%, 30.158997%, 81.674194%)" offset="0.6875"/><stop stop-opacity="1" stop-color="rgb(39.559937%, 29.948425%, 81.536865%)" offset="0.71875"/><stop stop-opacity="1" stop-color="rgb(39.274597%, 29.737854%, 81.399536%)" offset="0.75"/><stop stop-opacity="1" stop-color="rgb(38.990784%, 29.527283%, 81.262207%)" offset="0.78125"/><stop stop-opacity="1" stop-color="rgb(38.70697%, 29.316711%, 81.124878%)" offset="0.8125"/><stop stop-opacity="1" stop-color="rgb(38.423157%, 29.10614%, 80.989075%)" offset="0.84375"/><stop stop-opacity="1" stop-color="rgb(38.139343%, 28.895569%, 80.851746%)" offset="0.875"/><stop stop-opacity="1" stop-color="rgb(37.85553%, 28.684998%, 80.714417%)" offset="0.90625"/><stop stop-opacity="1" stop-color="rgb(37.571716%, 28.474426%, 80.577087%)" offset="0.9375"/><stop stop-opacity="1" stop-color="rgb(37.287903%, 28.263855%, 80.439758%)" offset="0.96875"/><stop stop-opacity="1" stop-color="rgb(37.004089%, 28.053284%, 80.303955%)" offset="1"/></linearGradient><clipPath id="31aa6e9eda"><path d="M 106 149.355469 L 143 149.355469 L 143 186 L 106 186 Z M 106 149.355469 " clip-rule="nonzero"/></clipPath><clipPath id="029bbb5219"><path d="M 133.328125 185.339844 C 132.234375 185.378906 131.183594 185.199219 130.167969 184.796875 C 129.152344 184.398438 128.257812 183.8125 127.484375 183.042969 C 121.207031 176.777344 114.886719 170.558594 108.742188 164.246094 C 105.421875 160.828125 105.710938 155.601562 109.152344 152.054688 C 109.542969 151.660156 109.964844 151.304688 110.425781 150.988281 C 110.882812 150.671875 111.367188 150.40625 111.875 150.183594 C 112.386719 149.964844 112.910156 149.792969 113.453125 149.671875 C 113.996094 149.554688 114.546875 149.488281 115.101562 149.476562 C 115.65625 149.460938 116.207031 149.503906 116.753906 149.597656 C 117.300781 149.691406 117.835938 149.835938 118.355469 150.03125 C 118.875 150.230469 119.371094 150.472656 119.84375 150.769531 C 120.316406 151.0625 120.753906 151.394531 121.164062 151.773438 C 126.007812 156.421875 130.738281 161.316406 135.53125 166.101562 C 136.953125 167.527344 138.4375 168.902344 139.792969 170.371094 C 140.402344 170.988281 140.90625 171.679688 141.304688 172.453125 C 141.703125 173.222656 141.980469 174.035156 142.132812 174.890625 C 142.285156 175.742188 142.304688 176.601562 142.199219 177.464844 C 142.089844 178.324219 141.855469 179.148438 141.496094 179.941406 C 140.0625 183.527344 137.226562 185.320312 133.328125 185.339844 Z M 133.328125 185.339844 " clip-rule="nonzero"/></clipPath><linearGradient x1="125.87945" gradientTransform="matrix(0.851785, 0, 0, 0.854271, 38.275799, 149.357126)" y1="6.424903" x2="75.418879" gradientUnits="userSpaceOnUse" y2="36.429356" id="d6d0d8e3f8"><stop stop-opacity="1" stop-color="rgb(40.161133%, 30.393982%, 81.826782%)" offset="0"/><stop stop-opacity="1" stop-color="rgb(40.016174%, 30.28717%, 81.756592%)" offset="0.03125"/><stop stop-opacity="1" stop-color="rgb(39.729309%, 30.073547%, 81.617737%)" offset="0.0625"/><stop stop-opacity="1" stop-color="rgb(39.440918%, 29.859924%, 81.478882%)" offset="0.09375"/><stop stop-opacity="1" stop-color="rgb(39.152527%, 29.647827%, 81.340027%)" offset="0.125"/><stop stop-opacity="1" stop-color="rgb(38.865662%, 29.434204%, 81.201172%)" offset="0.15625"/><stop stop-opacity="1" stop-color="rgb(38.577271%, 29.220581%, 81.062317%)" offset="0.1875"/><stop stop-opacity="1" stop-color="rgb(38.288879%, 29.006958%, 80.923462%)" offset="0.21875"/><stop stop-opacity="1" stop-color="rgb(38.002014%, 28.793335%, 80.784607%)" offset="0.25"/><stop stop-opacity="1" stop-color="rgb(37.713623%, 28.579712%, 80.645752%)" offset="0.28125"/><stop stop-opacity="1" stop-color="rgb(37.425232%, 28.366089%, 80.506897%)" offset="0.3125"/><stop stop-opacity="1" stop-color="rgb(37.138367%, 28.152466%, 80.368042%)" offset="0.34375"/><stop stop-opacity="1" stop-color="rgb(36.849976%, 27.940369%, 80.229187%)" offset="0.366015"/><stop stop-opacity="1" stop-color="rgb(36.706543%, 27.833557%, 80.160522%)" offset="0.375"/><stop stop-opacity="1" stop-color="rgb(36.561584%, 27.726746%, 80.090332%)" offset="0.40625"/><stop stop-opacity="1" stop-color="rgb(36.274719%, 27.513123%, 79.951477%)" offset="0.4375"/><stop stop-opacity="1" stop-color="rgb(35.986328%, 27.2995%, 79.812622%)" offset="0.46875"/><stop stop-opacity="1" stop-color="rgb(35.697937%, 27.085876%, 79.673767%)" offset="0.5"/><stop stop-opacity="1" stop-color="rgb(35.409546%, 26.872253%, 79.533386%)" offset="0.53125"/><stop stop-opacity="1" stop-color="rgb(35.122681%, 26.65863%, 79.394531%)" offset="0.5625"/><stop stop-opacity="1" stop-color="rgb(34.83429%, 26.446533%, 79.255676%)" offset="0.59375"/><stop stop-opacity="1" stop-color="rgb(34.545898%, 26.23291%, 79.116821%)" offset="0.625"/><stop stop-opacity="1" stop-color="rgb(34.259033%, 26.019287%, 78.977966%)" offset="0.633985"/><stop stop-opacity="1" stop-color="rgb(34.115601%, 25.912476%, 78.909302%)" offset="0.65625"/><stop stop-opacity="1" stop-color="rgb(33.970642%, 25.805664%, 78.839111%)" offset="0.6875"/><stop stop-opacity="1" stop-color="rgb(33.682251%, 25.592041%, 78.700256%)" offset="0.71875"/><stop stop-opacity="1" stop-color="rgb(33.395386%, 25.378418%, 78.561401%)" offset="0.75"/><stop stop-opacity="1" stop-color="rgb(33.106995%, 25.164795%, 78.422546%)" offset="0.78125"/><stop stop-opacity="1" stop-color="rgb(32.818604%, 24.951172%, 78.283691%)" offset="0.8125"/><stop stop-opacity="1" stop-color="rgb(32.531738%, 24.739075%, 78.144836%)" offset="0.84375"/><stop stop-opacity="1" stop-color="rgb(32.243347%, 24.525452%, 78.005981%)" offset="0.875"/><stop stop-opacity="1" stop-color="rgb(31.954956%, 24.311829%, 77.867126%)" offset="0.90625"/><stop stop-opacity="1" stop-color="rgb(31.666565%, 24.098206%, 77.728271%)" offset="0.9375"/><stop stop-opacity="1" stop-color="rgb(31.460571%, 23.945618%, 77.629089%)" offset="1"/></linearGradient><clipPath id="9a048c2c9c"><path d="M 51 170 L 67 170 L 67 186 L 51 186 Z M 51 170 " clip-rule="nonzero"/></clipPath><clipPath id="a46ec2e598"><path d="M 59.570312 185.296875 C 59.089844 185.300781 58.613281 185.257812 58.140625 185.167969 C 57.671875 185.082031 57.210938 184.949219 56.765625 184.773438 C 56.316406 184.597656 55.890625 184.382812 55.484375 184.125 C 55.078125 183.867188 54.703125 183.574219 54.351562 183.246094 C 54 182.917969 53.683594 182.558594 53.402344 182.167969 C 53.121094 181.777344 52.878906 181.363281 52.675781 180.929688 C 52.46875 180.492188 52.308594 180.042969 52.191406 179.574219 C 52.074219 179.109375 52 178.636719 51.972656 178.15625 C 51.820312 174.269531 55.378906 170.570312 59.304688 170.464844 C 59.792969 170.46875 60.277344 170.515625 60.753906 170.609375 C 61.234375 170.707031 61.699219 170.847656 62.148438 171.03125 C 62.601562 171.21875 63.03125 171.445312 63.4375 171.714844 C 63.84375 171.984375 64.222656 172.292969 64.570312 172.636719 C 64.917969 172.980469 65.226562 173.351562 65.503906 173.757812 C 65.777344 174.160156 66.011719 174.589844 66.203125 175.039062 C 66.394531 175.488281 66.542969 175.953125 66.644531 176.429688 C 66.746094 176.910156 66.800781 177.390625 66.8125 177.882812 C 66.8125 178.363281 66.765625 178.839844 66.675781 179.308594 C 66.582031 179.78125 66.445312 180.238281 66.265625 180.683594 C 66.085938 181.128906 65.863281 181.554688 65.597656 181.957031 C 65.335938 182.355469 65.039062 182.730469 64.703125 183.074219 C 64.367188 183.417969 64 183.722656 63.605469 183.996094 C 63.210938 184.269531 62.792969 184.5 62.355469 184.691406 C 61.914062 184.882812 61.460938 185.027344 60.992188 185.128906 C 60.523438 185.230469 60.050781 185.285156 59.570312 185.296875 Z M 59.570312 185.296875 " clip-rule="nonzero"/></clipPath><clipPath id="84d19665db"><path d="M 105 191 L 121 191 L 121 207 L 105 207 Z M 105 191 " clip-rule="nonzero"/></clipPath><clipPath id="4a0a3b9e5c"><path d="M 113.53125 191.34375 C 114.011719 191.371094 114.484375 191.441406 114.953125 191.558594 C 115.417969 191.679688 115.871094 191.839844 116.304688 192.046875 C 116.742188 192.257812 117.152344 192.503906 117.539062 192.792969 C 117.925781 193.082031 118.277344 193.402344 118.601562 193.761719 C 118.925781 194.121094 119.210938 194.507812 119.457031 194.921875 C 119.703125 195.335938 119.910156 195.769531 120.070312 196.226562 C 120.234375 196.679688 120.351562 197.144531 120.421875 197.625 C 120.492188 198.101562 120.515625 198.582031 120.492188 199.0625 C 120.46875 199.546875 120.398438 200.023438 120.28125 200.492188 C 120.164062 200.960938 120.003906 201.410156 119.800781 201.847656 C 119.59375 202.285156 119.347656 202.699219 119.0625 203.085938 C 118.777344 203.476562 118.457031 203.832031 118.097656 204.15625 C 117.742188 204.484375 117.359375 204.769531 116.945312 205.019531 C 116.535156 205.269531 116.101562 205.476562 115.648438 205.640625 C 115.195312 205.804688 114.730469 205.921875 114.253906 205.996094 C 113.777344 206.066406 113.300781 206.09375 112.820312 206.070312 C 112.339844 206.050781 111.863281 205.980469 111.394531 205.867188 C 110.929688 205.75 110.476562 205.589844 110.039062 205.386719 C 109.605469 205.183594 109.191406 204.9375 108.804688 204.652344 C 108.414062 204.367188 108.058594 204.046875 107.730469 203.691406 C 107.40625 203.332031 107.117188 202.949219 106.867188 202.535156 C 106.617188 202.125 106.410156 201.691406 106.246094 201.238281 C 106.082031 200.785156 105.960938 200.316406 105.886719 199.839844 C 105.8125 199.363281 105.785156 198.882812 105.804688 198.402344 C 105.824219 197.914062 105.890625 197.433594 106.003906 196.957031 C 106.117188 196.484375 106.277344 196.027344 106.480469 195.582031 C 106.6875 195.140625 106.933594 194.722656 107.222656 194.332031 C 107.507812 193.9375 107.832031 193.578125 108.191406 193.25 C 108.550781 192.917969 108.941406 192.628906 109.359375 192.378906 C 109.773438 192.128906 110.210938 191.921875 110.671875 191.757812 C 111.128906 191.59375 111.597656 191.476562 112.082031 191.410156 C 112.5625 191.339844 113.046875 191.316406 113.53125 191.34375 Z M 113.53125 191.34375 " clip-rule="nonzero"/></clipPath><linearGradient x1="98.080507" gradientTransform="matrix(0.851785, 0, 0, 0.854271, 38.275799, 149.357126)" y1="51.692829" x2="77.705846" gradientUnits="userSpaceOnUse" y2="63.807071" id="f57b45949e"><stop stop-opacity="1" stop-color="rgb(32.783508%, 24.925232%, 78.266907%)" offset="0"/><stop stop-opacity="1" stop-color="rgb(32.666016%, 24.838257%, 78.210449%)" offset="0.0625"/><stop stop-opacity="1" stop-color="rgb(32.434082%, 24.665833%, 78.09906%)" offset="0.125"/><stop stop-opacity="1" stop-color="rgb(32.202148%, 24.493408%, 77.986145%)" offset="0.1875"/><stop stop-opacity="1" stop-color="rgb(31.968689%, 24.320984%, 77.874756%)" offset="0.25"/><stop stop-opacity="1" stop-color="rgb(31.736755%, 24.14856%, 77.761841%)" offset="0.3125"/><stop stop-opacity="1" stop-color="rgb(31.509399%, 23.980713%, 77.651978%)" offset="0.372919"/><stop stop-opacity="1" stop-color="rgb(31.399536%, 23.899841%, 77.598572%)" offset="0.375"/><stop stop-opacity="1" stop-color="rgb(31.399536%, 23.899841%, 77.598572%)" offset="0.5"/><stop stop-opacity="1" stop-color="rgb(31.399536%, 23.899841%, 77.598572%)" offset="0.627081"/><stop stop-opacity="1" stop-color="rgb(31.399536%, 23.899841%, 77.598572%)" offset="1"/></linearGradient><clipPath id="4dcc4b9224"><path d="M 163 212 L 176 212 L 176 225 L 163 225 Z M 163 212 " clip-rule="nonzero"/></clipPath><clipPath id="0d3a97a375"><path d="M 175.875 218.324219 C 175.875 218.726562 175.839844 219.125 175.761719 219.519531 C 175.6875 219.914062 175.574219 220.300781 175.421875 220.671875 C 175.269531 221.046875 175.085938 221.398438 174.863281 221.738281 C 174.644531 222.074219 174.390625 222.382812 174.109375 222.671875 C 173.828125 222.957031 173.519531 223.214844 173.1875 223.441406 C 172.855469 223.664062 172.503906 223.855469 172.132812 224.011719 C 171.761719 224.167969 171.382812 224.289062 170.988281 224.371094 C 170.59375 224.449219 170.195312 224.492188 169.796875 224.496094 C 169.394531 224.496094 168.996094 224.460938 168.601562 224.382812 C 168.207031 224.308594 167.824219 224.195312 167.453125 224.042969 C 167.082031 223.890625 166.726562 223.703125 166.390625 223.480469 C 166.054688 223.261719 165.746094 223.007812 165.460938 222.726562 C 165.175781 222.441406 164.917969 222.132812 164.695312 221.800781 C 164.46875 221.46875 164.277344 221.113281 164.121094 220.742188 C 163.964844 220.371094 163.847656 219.988281 163.765625 219.59375 C 163.6875 219.199219 163.644531 218.800781 163.640625 218.398438 C 163.640625 217.996094 163.675781 217.597656 163.75 217.203125 C 163.828125 216.804688 163.941406 216.421875 164.09375 216.050781 C 164.242188 215.675781 164.429688 215.320312 164.652344 214.984375 C 164.871094 214.648438 165.125 214.335938 165.40625 214.050781 C 165.6875 213.765625 165.996094 213.507812 166.328125 213.28125 C 166.660156 213.054688 167.011719 212.867188 167.382812 212.707031 C 167.75 212.550781 168.132812 212.433594 168.527344 212.351562 C 168.917969 212.273438 169.316406 212.230469 169.71875 212.226562 C 170.121094 212.226562 170.519531 212.261719 170.914062 212.335938 C 171.308594 212.414062 171.691406 212.527344 172.0625 212.679688 C 172.433594 212.832031 172.789062 213.019531 173.125 213.238281 C 173.457031 213.460938 173.769531 213.714844 174.054688 213.996094 C 174.339844 214.28125 174.597656 214.585938 174.820312 214.921875 C 175.046875 215.253906 175.238281 215.605469 175.394531 215.976562 C 175.550781 216.347656 175.667969 216.730469 175.75 217.125 C 175.828125 217.519531 175.871094 217.917969 175.875 218.324219 Z M 175.875 218.324219 " clip-rule="nonzero"/></clipPath><linearGradient x1="162.846917" gradientTransform="matrix(0.851785, 0, 0, 0.854271, 38.275799, 149.357126)" y1="75.785191" x2="145.92252" gradientUnits="userSpaceOnUse" y2="85.847995" id="89556b7a5f"><stop stop-opacity="1" stop-color="rgb(39.587402%, 29.968262%, 81.550598%)" offset="0"/><stop stop-opacity="1" stop-color="rgb(39.393616%, 29.824829%, 81.455994%)" offset="0.125"/><stop stop-opacity="1" stop-color="rgb(39.007568%, 29.53949%, 81.269836%)" offset="0.25"/><stop stop-opacity="1" stop-color="rgb(38.621521%, 29.252625%, 81.083679%)" offset="0.372873"/><stop stop-opacity="1" stop-color="rgb(38.427734%, 29.109192%, 80.990601%)" offset="0.375"/><stop stop-opacity="1" stop-color="rgb(38.233948%, 28.965759%, 80.897522%)" offset="0.5"/><stop stop-opacity="1" stop-color="rgb(37.8479%, 28.68042%, 80.711365%)" offset="0.625"/><stop stop-opacity="1" stop-color="rgb(37.461853%, 28.393555%, 80.525208%)" offset="0.627127"/><stop stop-opacity="1" stop-color="rgb(37.269592%, 28.250122%, 80.432129%)" offset="0.75"/><stop stop-opacity="1" stop-color="rgb(37.075806%, 28.106689%, 80.33905%)" offset="0.875"/><stop stop-opacity="1" stop-color="rgb(36.689758%, 27.82135%, 80.152893%)" offset="1"/></linearGradient><clipPath id="d7f294fc36"><path d="M 54 212 L 67 212 L 67 225 L 54 225 Z M 54 212 " clip-rule="nonzero"/></clipPath><clipPath id="a9ed34347b"><path d="M 60.292969 224.585938 C 59.894531 224.578125 59.5 224.53125 59.105469 224.445312 C 58.714844 224.359375 58.335938 224.234375 57.96875 224.074219 C 57.601562 223.914062 57.253906 223.722656 56.925781 223.492188 C 56.59375 223.265625 56.292969 223.007812 56.011719 222.71875 C 55.734375 222.429688 55.484375 222.117188 55.269531 221.78125 C 55.050781 221.441406 54.867188 221.089844 54.71875 220.714844 C 54.570312 220.34375 54.457031 219.957031 54.386719 219.5625 C 54.3125 219.167969 54.277344 218.769531 54.28125 218.371094 C 54.285156 217.96875 54.328125 217.570312 54.410156 217.175781 C 54.492188 216.785156 54.613281 216.402344 54.769531 216.035156 C 54.925781 215.664062 55.113281 215.3125 55.339844 214.980469 C 55.5625 214.648438 55.820312 214.339844 56.105469 214.058594 C 56.390625 213.777344 56.699219 213.523438 57.03125 213.304688 C 57.367188 213.082031 57.71875 212.894531 58.089844 212.742188 C 58.460938 212.589844 58.839844 212.476562 59.234375 212.398438 C 59.628906 212.320312 60.023438 212.285156 60.425781 212.285156 C 60.824219 212.285156 61.222656 212.324219 61.613281 212.402344 C 62.007812 212.480469 62.386719 212.597656 62.757812 212.75 C 63.128906 212.90625 63.480469 213.09375 63.8125 213.316406 C 64.144531 213.539062 64.453125 213.789062 64.738281 214.074219 C 65.023438 214.355469 65.277344 214.664062 65.5 214.996094 C 65.722656 215.332031 65.914062 215.683594 66.066406 216.054688 C 66.222656 216.421875 66.339844 216.804688 66.421875 217.199219 C 66.503906 217.589844 66.542969 217.988281 66.546875 218.390625 C 66.554688 218.804688 66.519531 219.210938 66.445312 219.617188 C 66.371094 220.023438 66.253906 220.414062 66.101562 220.796875 C 65.945312 221.179688 65.753906 221.539062 65.527344 221.882812 C 65.296875 222.226562 65.039062 222.542969 64.746094 222.832031 C 64.453125 223.121094 64.132812 223.378906 63.789062 223.605469 C 63.445312 223.828125 63.082031 224.015625 62.699219 224.167969 C 62.316406 224.316406 61.921875 224.425781 61.519531 224.496094 C 61.113281 224.566406 60.707031 224.597656 60.292969 224.585938 Z M 60.292969 224.585938 " clip-rule="nonzero"/></clipPath><clipPath id="fdb120d46d"><path d="M 38 194 L 47 194 L 47 203 L 38 203 Z M 38 194 " clip-rule="nonzero"/></clipPath><clipPath id="3a68355d32"><path d="M 38.277344 198.476562 C 38.289062 198.21875 38.324219 197.960938 38.390625 197.707031 C 38.453125 197.453125 38.539062 197.210938 38.648438 196.972656 C 38.761719 196.738281 38.894531 196.515625 39.050781 196.304688 C 39.203125 196.097656 39.378906 195.902344 39.570312 195.726562 C 39.761719 195.550781 39.96875 195.398438 40.195312 195.265625 C 40.417969 195.128906 40.652344 195.019531 40.894531 194.929688 C 41.140625 194.84375 41.390625 194.777344 41.648438 194.742188 C 41.90625 194.703125 42.164062 194.6875 42.425781 194.703125 C 42.945312 194.734375 43.445312 194.867188 43.917969 195.09375 C 44.390625 195.320312 44.804688 195.625 45.160156 196.011719 C 45.515625 196.398438 45.785156 196.835938 45.972656 197.328125 C 46.160156 197.820312 46.25 198.328125 46.238281 198.855469 C 46.175781 199.371094 46.027344 199.863281 45.789062 200.328125 C 45.550781 200.792969 45.238281 201.203125 44.855469 201.558594 C 44.46875 201.910156 44.035156 202.1875 43.554688 202.382812 C 43.070312 202.582031 42.570312 202.6875 42.050781 202.707031 C 41.527344 202.652344 41.035156 202.507812 40.570312 202.269531 C 40.101562 202.03125 39.695312 201.714844 39.347656 201.324219 C 38.996094 200.933594 38.730469 200.492188 38.546875 200 C 38.359375 199.511719 38.269531 199.003906 38.277344 198.476562 Z M 38.277344 198.476562 " clip-rule="nonzero"/></clipPath><clipPath id="d350253416"><path d="M 223 152 L 231 152 L 231 161 L 223 161 Z M 223 152 " clip-rule="nonzero"/></clipPath><clipPath id="e277b7b54f"><path d="M 230.941406 156.703125 C 230.929688 157.246094 230.816406 157.765625 230.609375 158.265625 C 230.402344 158.761719 230.113281 159.207031 229.738281 159.597656 C 229.367188 159.988281 228.933594 160.296875 228.445312 160.523438 C 227.957031 160.75 227.441406 160.882812 226.902344 160.914062 C 226.402344 160.878906 225.921875 160.757812 225.460938 160.550781 C 225.003906 160.34375 224.59375 160.0625 224.238281 159.707031 C 223.878906 159.351562 223.59375 158.945312 223.382812 158.488281 C 223.167969 158.027344 223.042969 157.546875 223.003906 157.046875 C 222.992188 156.785156 223.007812 156.523438 223.046875 156.265625 C 223.089844 156.007812 223.15625 155.757812 223.246094 155.511719 C 223.335938 155.265625 223.449219 155.03125 223.582031 154.808594 C 223.71875 154.585938 223.875 154.378906 224.054688 154.1875 C 224.230469 153.996094 224.421875 153.824219 224.632812 153.667969 C 224.84375 153.515625 225.070312 153.382812 225.304688 153.273438 C 225.542969 153.164062 225.785156 153.078125 226.039062 153.015625 C 226.292969 152.957031 226.550781 152.917969 226.808594 152.910156 C 227.070312 152.898438 227.328125 152.914062 227.585938 152.953125 C 227.84375 152.996094 228.09375 153.058594 228.339844 153.148438 C 228.585938 153.238281 228.816406 153.351562 229.039062 153.488281 C 229.261719 153.625 229.46875 153.78125 229.660156 153.957031 C 229.855469 154.136719 230.027344 154.328125 230.179688 154.539062 C 230.332031 154.75 230.464844 154.976562 230.574219 155.210938 C 230.683594 155.449219 230.769531 155.695312 230.832031 155.949219 C 230.894531 156.203125 230.929688 156.460938 230.941406 156.722656 Z M 230.941406 156.703125 " clip-rule="nonzero"/></clipPath><linearGradient x1="227.00727" gradientTransform="matrix(0.851785, 0, 0, 0.854271, 38.275799, 149.357126)" y1="5.519832" x2="215.990394" gradientUnits="userSpaceOnUse" y2="12.070882" id="e2a7d73f35"><stop stop-opacity="1" stop-color="rgb(53.877258%, 40.560913%, 88.444519%)" offset="0"/><stop stop-opacity="1" stop-color="rgb(53.75061%, 40.467834%, 88.383484%)" offset="0.125"/><stop stop-opacity="1" stop-color="rgb(53.49884%, 40.281677%, 88.262939%)" offset="0.25"/><stop stop-opacity="1" stop-color="rgb(53.248596%, 40.09552%, 88.140869%)" offset="0.374214"/><stop stop-opacity="1" stop-color="rgb(53.123474%, 40.002441%, 88.08136%)" offset="0.375"/><stop stop-opacity="1" stop-color="rgb(52.996826%, 39.909363%, 88.020325%)" offset="0.5"/><stop stop-opacity="1" stop-color="rgb(52.745056%, 39.72168%, 87.898254%)" offset="0.625"/><stop stop-opacity="1" stop-color="rgb(52.493286%, 39.535522%, 87.77771%)" offset="0.625786"/><stop stop-opacity="1" stop-color="rgb(52.368164%, 39.442444%, 87.716675%)" offset="0.75"/><stop stop-opacity="1" stop-color="rgb(52.241516%, 39.349365%, 87.65564%)" offset="0.875"/><stop stop-opacity="1" stop-color="rgb(51.991272%, 39.163208%, 87.535095%)" offset="1"/></linearGradient><clipPath id="826cdc7d2c"><path d="M 38 152 L 47 152 L 47 161 L 38 161 Z M 38 152 " clip-rule="nonzero"/></clipPath><clipPath id="3cbeae5134"><path d="M 46.230469 156.703125 C 46.21875 157.246094 46.105469 157.765625 45.898438 158.265625 C 45.691406 158.761719 45.398438 159.207031 45.023438 159.597656 C 44.648438 159.988281 44.21875 160.296875 43.726562 160.523438 C 43.238281 160.75 42.722656 160.882812 42.183594 160.914062 C 41.683594 160.882812 41.199219 160.761719 40.738281 160.554688 C 40.277344 160.347656 39.871094 160.066406 39.511719 159.710938 C 39.152344 159.355469 38.867188 158.949219 38.652344 158.492188 C 38.441406 158.03125 38.316406 157.550781 38.277344 157.046875 C 38.265625 156.785156 38.28125 156.523438 38.320312 156.265625 C 38.363281 156.007812 38.429688 155.757812 38.519531 155.511719 C 38.609375 155.265625 38.722656 155.035156 38.863281 154.8125 C 39 154.589844 39.15625 154.382812 39.332031 154.191406 C 39.511719 154 39.707031 153.828125 39.917969 153.675781 C 40.128906 153.523438 40.355469 153.394531 40.589844 153.285156 C 40.828125 153.179688 41.074219 153.09375 41.328125 153.035156 C 41.582031 152.976562 41.839844 152.945312 42.101562 152.9375 C 42.359375 152.921875 42.617188 152.933594 42.875 152.972656 C 43.132812 153.007812 43.382812 153.070312 43.628906 153.15625 C 43.871094 153.246094 44.105469 153.355469 44.328125 153.488281 C 44.550781 153.621094 44.761719 153.777344 44.953125 153.953125 C 45.144531 154.128906 45.316406 154.320312 45.472656 154.53125 C 45.625 154.742188 45.757812 154.964844 45.867188 155.199219 C 45.976562 155.4375 46.0625 155.679688 46.125 155.933594 C 46.183594 156.1875 46.222656 156.445312 46.230469 156.703125 Z M 46.230469 156.703125 " clip-rule="nonzero"/></clipPath><clipPath id="604868a2e6"><path d="M 328 152 L 337 152 L 337 161 L 328 161 Z M 328 152 " clip-rule="nonzero"/></clipPath><clipPath id="1de3a6a63e"><path d="M 332.847656 152.929688 C 333.109375 152.929688 333.367188 152.960938 333.621094 153.015625 C 333.875 153.070312 334.121094 153.148438 334.359375 153.253906 C 334.597656 153.355469 334.824219 153.480469 335.035156 153.632812 C 335.25 153.78125 335.445312 153.949219 335.625 154.136719 C 335.804688 154.324219 335.964844 154.527344 336.105469 154.746094 C 336.246094 154.96875 336.359375 155.199219 336.453125 155.441406 C 336.546875 155.6875 336.617188 155.9375 336.660156 156.191406 C 336.703125 156.449219 336.722656 156.707031 336.714844 156.96875 C 336.707031 157.230469 336.675781 157.492188 336.617188 157.746094 C 336.558594 158.003906 336.476562 158.253906 336.371094 158.492188 C 336.265625 158.730469 336.136719 158.960938 335.984375 159.175781 C 335.832031 159.390625 335.660156 159.585938 335.472656 159.765625 C 335.28125 159.949219 335.074219 160.109375 334.855469 160.25 C 334.632812 160.390625 334.398438 160.507812 334.152344 160.601562 C 333.910156 160.695312 333.65625 160.765625 333.398438 160.808594 C 333.140625 160.851562 332.878906 160.871094 332.617188 160.863281 C 332.355469 160.855469 332.097656 160.824219 331.84375 160.765625 C 331.585938 160.707031 331.339844 160.625 331.097656 160.519531 C 330.859375 160.410156 330.632812 160.28125 330.417969 160.128906 C 330.207031 159.976562 330.007812 159.808594 329.828125 159.617188 C 329.648438 159.425781 329.488281 159.21875 329.347656 158.996094 C 329.207031 158.773438 329.089844 158.539062 328.996094 158.292969 C 328.902344 158.050781 328.835938 157.796875 328.789062 157.539062 C 328.746094 157.277344 328.726562 157.019531 328.734375 156.753906 C 328.742188 156.492188 328.773438 156.234375 328.832031 155.980469 C 328.890625 155.722656 328.972656 155.476562 329.082031 155.238281 C 329.191406 155 329.320312 154.773438 329.472656 154.5625 C 329.625 154.347656 329.796875 154.152344 329.988281 153.972656 C 330.179688 153.796875 330.386719 153.636719 330.609375 153.5 C 330.835938 153.363281 331.066406 153.25 331.3125 153.160156 C 331.558594 153.070312 331.8125 153.007812 332.070312 152.96875 C 332.328125 152.929688 332.585938 152.914062 332.847656 152.929688 Z M 332.847656 152.929688 " clip-rule="nonzero"/></clipPath></defs><g clip-path="url(#9dd1012f8f)"><g clip-path="url(#0b9515995d)"><path fill="url(#e95962c21b)" d="M 69.835938 149.460938 L 69.835938 185.378906 L 106.753906 185.378906 L 106.753906 149.460938 Z M 69.835938 149.460938 " fill-rule="nonzero"/></g></g><g clip-path="url(#31edcdd557)"><g clip-path="url(#32201eb22e)"><path fill="url(#8bb39f0bcc)" d="M 276.070312 167.46875 L 276.070312 225.855469 L 337.449219 225.855469 L 337.449219 167.46875 Z M 276.070312 167.46875 " fill-rule="nonzero"/></g></g><g clip-path="url(#563ea27233)"><g clip-path="url(#10f374ada7)"><path fill="#9973e9" d="M 299.300781 149.539062 L 299.300781 164.488281 L 313.984375 164.488281 L 313.984375 149.539062 Z M 299.300781 149.539062 " fill-opacity="1" fill-rule="nonzero"/></g></g><g clip-path="url(#121b46d7c6)"><g clip-path="url(#8728282af1)"><path fill="url(#1fd55264ce)" d="M 236.3125 168.398438 L 236.3125 205.398438 L 272.167969 205.398438 L 272.167969 168.398438 Z M 236.3125 168.398438 " fill-rule="nonzero"/></g></g><g clip-path="url(#b168adc6e4)"><g clip-path="url(#0da2763317)"><path fill="url(#4ae5a75405)" d="M 201.359375 211.035156 L 201.359375 225.84375 L 216.179688 225.84375 L 216.179688 211.035156 Z M 201.359375 211.035156 " fill-rule="nonzero"/></g></g><g clip-path="url(#651285c47c)"><g clip-path="url(#173f16733c)"><path fill="url(#9173d31c12)" d="M 237.503906 211.011719 L 237.503906 225.855469 L 252.484375 225.855469 L 252.484375 211.011719 Z M 237.503906 211.011719 " fill-rule="nonzero"/></g></g><g clip-path="url(#a8f4df8421)"><g clip-path="url(#d97569e72b)"><path fill="url(#010ed7b99a)" d="M 255.9375 149.652344 L 255.9375 164.320312 L 270.644531 164.320312 L 270.644531 149.652344 Z M 255.9375 149.652344 " fill-rule="nonzero"/></g></g><g clip-path="url(#c65f37a096)"><g clip-path="url(#02ec614887)"><path fill="url(#5cca66710c)" d="M 220.046875 191.339844 L 220.046875 206.085938 L 234.742188 206.085938 L 234.742188 191.339844 Z M 220.046875 191.339844 " fill-rule="nonzero"/></g></g><g clip-path="url(#3cc010a439)"><g clip-path="url(#16f5aca523)"><path fill="url(#45c04f9cac)" d="M 201.734375 171.371094 L 201.734375 183.757812 L 214.015625 183.757812 L 214.015625 171.371094 Z M 201.734375 171.371094 " fill-rule="nonzero"/></g></g><g clip-path="url(#73411fa91f)"><g clip-path="url(#3c4c028c3e)"><path fill="url(#5653d54bc4)" d="M 183.074219 192.53125 L 183.074219 204.90625 L 195.453125 204.90625 L 195.453125 192.53125 Z M 183.074219 192.53125 " fill-rule="nonzero"/></g></g><g clip-path="url(#1562b5c2ce)"><g clip-path="url(#054146dac7)"><path fill="url(#ffc313155c)" d="M 184.835938 152.917969 L 184.835938 160.863281 L 192.804688 160.863281 L 192.804688 152.917969 Z M 184.835938 152.917969 " fill-rule="nonzero"/></g></g><g clip-path="url(#b9a7f6050f)"><g clip-path="url(#0edcab2f81)"><path fill="#503dc6" d="M 38.265625 194.71875 L 38.265625 202.75 L 46.25 202.75 L 46.25 194.71875 Z M 38.265625 194.71875 " fill-opacity="1" fill-rule="nonzero"/></g></g><g clip-path="url(#7dcdc3a089)"><g clip-path="url(#fa24e59623)"><path fill="url(#acea614345)" d="M 124.632812 189.242188 L 124.632812 225.320312 L 161.273438 225.320312 L 161.273438 189.242188 Z M 124.632812 189.242188 " fill-rule="nonzero"/></g></g><g clip-path="url(#9dd1b820ba)"><g clip-path="url(#650349c4ed)"><path fill="#503dc6" d="M 66.128906 189.242188 L 66.128906 225.320312 L 102.765625 225.320312 L 102.765625 189.242188 Z M 66.128906 189.242188 " fill-opacity="1" fill-rule="nonzero"/></g></g><g clip-path="url(#22de2b0bbf)"><g clip-path="url(#1895db3cbf)"><path fill="url(#699d8b55b4)" d="M 142.746094 149.355469 L 142.746094 185.382812 L 178.773438 185.382812 L 178.773438 149.355469 Z M 142.746094 149.355469 " fill-rule="nonzero"/></g></g><g clip-path="url(#31aa6e9eda)"><g clip-path="url(#029bbb5219)"><path fill="url(#d6d0d8e3f8)" d="M 105.421875 149.460938 L 105.421875 185.378906 L 142.304688 185.378906 L 142.304688 149.460938 Z M 105.421875 149.460938 " fill-rule="nonzero"/></g></g><g clip-path="url(#9a048c2c9c)"><g clip-path="url(#a46ec2e598)"><path fill="#503dc6" d="M 51.820312 170.464844 L 51.820312 185.300781 L 66.8125 185.300781 L 66.8125 170.464844 Z M 51.820312 170.464844 " fill-opacity="1" fill-rule="nonzero"/></g></g><g clip-path="url(#84d19665db)"><g clip-path="url(#4a0a3b9e5c)"><path fill="url(#f57b45949e)" d="M 105.785156 191.316406 L 105.785156 206.09375 L 120.515625 206.09375 L 120.515625 191.316406 Z M 105.785156 191.316406 " fill-rule="nonzero"/></g></g><g clip-path="url(#4dcc4b9224)"><g clip-path="url(#0d3a97a375)"><path fill="url(#89556b7a5f)" d="M 163.640625 212.226562 L 163.640625 224.496094 L 175.875 224.496094 L 175.875 212.226562 Z M 163.640625 212.226562 " fill-rule="nonzero"/></g></g><g clip-path="url(#d7f294fc36)"><g clip-path="url(#a9ed34347b)"><path fill="#503dc6" d="M 54.277344 212.285156 L 54.277344 224.597656 L 66.554688 224.597656 L 66.554688 212.285156 Z M 54.277344 212.285156 " fill-opacity="1" fill-rule="nonzero"/></g></g><g clip-path="url(#fdb120d46d)"><g clip-path="url(#3a68355d32)"><path fill="#503dc6" d="M 38.269531 194.6875 L 38.269531 202.707031 L 46.25 202.707031 L 46.25 194.6875 Z M 38.269531 194.6875 " fill-opacity="1" fill-rule="nonzero"/></g></g><g clip-path="url(#d350253416)"><g clip-path="url(#e277b7b54f)"><path fill="url(#e2a7d73f35)" d="M 222.992188 152.898438 L 222.992188 160.914062 L 230.941406 160.914062 L 230.941406 152.898438 Z M 222.992188 152.898438 " fill-rule="nonzero"/></g></g><g clip-path="url(#826cdc7d2c)"><g clip-path="url(#3cbeae5134)"><path fill="#503dc6" d="M 38.265625 152.921875 L 38.265625 160.914062 L 46.230469 160.914062 L 46.230469 152.921875 Z M 38.265625 152.921875 " fill-opacity="1" fill-rule="nonzero"/></g></g><g clip-path="url(#604868a2e6)"><g clip-path="url(#1de3a6a63e)"><path fill="#9973e9" d="M 328.726562 152.914062 L 328.726562 160.871094 L 336.722656 160.871094 L 336.722656 152.914062 Z M 328.726562 152.914062 " fill-opacity="1" fill-rule="nonzero"/></g></g></svg>